<svg width="35" height="35" viewBox="0 0 35 35" fill="none" xmlns="http://www.w3.org/2000/svg">
<rect width="35" height="35" rx="17.5" fill="white"/>
<path d="M11.5334 7.99927C15.5046 7.99927 19.4759 7.99927 23.5674 7.99927C23.5674 9.7449 23.5674 9.7449 23.2161 10.2484C23.1394 10.3625 23.0626 10.4765 22.9836 10.5941C22.8984 10.713 22.8132 10.8319 22.728 10.9508C22.6399 11.0793 22.5523 11.2081 22.4649 11.3372C22.2823 11.6061 22.098 11.8736 21.9123 12.1403C21.5058 12.7262 21.117 13.3245 20.7268 13.922C20.5566 14.1822 20.3854 14.4417 20.2143 14.7012C19.6298 15.5877 19.0535 16.4797 18.4784 17.3727C17.9939 18.1239 17.5025 18.8698 17.0068 19.6132C16.4525 20.4463 15.9109 21.288 15.3687 22.1297C14.8513 22.932 14.327 23.7284 13.7898 24.5167C14.0023 24.5706 14.215 24.6235 14.4277 24.6761C14.5462 24.7057 14.6646 24.7353 14.7866 24.7657C17.666 25.3674 20.4287 24.9227 23.0705 23.6992C23.46 23.519 23.46 23.519 23.6749 23.519C23.8038 23.7516 23.9311 23.9849 24.0577 24.2188C24.0944 24.2848 24.1312 24.3507 24.1691 24.4187C24.2634 24.5947 24.346 24.7773 24.427 24.9602C24.3196 25.2927 24.3196 25.2927 24.095 25.4473C23.4378 25.785 22.7778 26.0668 22.0833 26.3112C22.0097 26.3376 21.9361 26.3639 21.8603 26.391C20.4802 26.8574 19.1483 27.0105 17.707 26.9989C17.4432 26.9971 17.1796 26.9989 16.9158 27.001C15.4656 27.0032 14.1253 26.7821 12.7489 26.2904C12.6268 26.2493 12.6268 26.2493 12.5023 26.2073C11.6936 25.925 11.6936 25.925 11.426 25.6253C11.3037 25.0428 11.3527 24.461 11.6408 23.9417C11.7472 23.7874 11.7472 23.7874 11.8557 23.6299C11.9267 23.6299 11.9976 23.6299 12.0706 23.6299C12.0995 23.5489 12.1284 23.4678 12.1582 23.3843C12.2827 23.0825 12.4237 22.8405 12.6041 22.5711C12.7041 22.4207 12.7041 22.4207 12.8062 22.2673C12.9174 22.1015 12.9174 22.1015 13.0309 21.9324C13.1977 21.6818 13.3643 21.431 13.5308 21.1803C13.5988 21.0781 13.5988 21.0781 13.6682 20.9738C14.2247 20.1365 14.7743 19.2945 15.3244 18.4527C15.5726 18.0729 15.8209 17.6932 16.0692 17.3136C16.2581 17.0247 16.447 16.7359 16.6359 16.447C17.1879 15.6029 17.7399 14.7588 18.2923 13.9149C18.4042 13.7438 18.5161 13.5727 18.628 13.4016C18.7847 13.162 18.9415 12.9225 19.0983 12.6829C19.1418 12.6164 19.1852 12.55 19.23 12.4815C19.7753 11.6489 20.3294 10.8228 20.8813 9.99467C17.7965 9.95809 14.7117 9.9215 11.5334 9.88381C11.5334 9.26191 11.5334 8.64001 11.5334 7.99927Z" fill="#E81239"/>
<path d="M12.5593 15.6118C12.8832 15.8005 13.1417 16.0154 13.3129 16.3516C13.3724 16.8839 13.371 17.2945 13.1245 17.7784C12.8445 18.0839 12.6353 18.2258 12.2204 18.2895C11.6342 18.2996 11.2944 18.2258 10.8368 17.8313C10.5429 17.3637 10.5366 16.8851 10.6214 16.3516C11.0421 15.5455 11.7265 15.3883 12.5593 15.6118Z" fill="#E81239"/>
<path d="M23.6415 15.5619C23.9836 15.7389 24.2204 15.9662 24.395 16.3155C24.4544 16.8577 24.453 17.2759 24.2066 17.7689C23.9266 18.08 23.7175 18.2246 23.3026 18.2895C22.7166 18.2998 22.3769 18.2246 21.9193 17.8227C21.6259 17.3472 21.6177 16.8581 21.704 16.3155C22.1406 15.5054 22.7962 15.4523 23.6415 15.5619Z" fill="#E81239"/>
</svg>
