<svg width="35" height="35" viewBox="0 0 35 35" fill="none" xmlns="http://www.w3.org/2000/svg">
<rect width="35" height="35" rx="17.5" fill="white"/>
<path d="M11.331 17.1477C11.054 17.6422 10.937 19.1996 11.0332 20.2332C11.0671 20.5743 11.1225 20.8589 11.2032 21.0285C11.314 21.2633 11.5003 21.403 11.7126 21.4115C11.8487 21.4192 11.9334 21.3936 14.4944 20.4764C14.4944 20.4764 15.6325 20.0719 15.637 20.0693C15.9209 19.9888 16.1118 19.6981 16.1303 19.327C16.1488 18.9465 15.9726 18.6105 15.6817 18.4888C15.6817 18.4888 14.8791 18.1246 14.8775 18.1246C12.1258 16.8605 12.002 16.8107 11.8634 16.809C11.6511 16.7995 11.4626 16.9187 11.3309 17.1476L11.331 17.1477ZM17.5941 15.7747C17.5441 14.4908 17.197 8.7741 17.1563 8.50919C17.0978 8.26922 16.9293 8.09779 16.6877 8.0301C15.9451 7.82533 13.1071 8.71068 12.5815 9.31489C12.4123 9.51126 12.35 9.75294 12.4006 9.96726C12.4838 10.1566 15.9996 16.3182 15.9996 16.3182C16.519 17.2568 16.943 17.111 17.0823 17.0621C17.22 17.0149 17.6417 16.8692 17.5941 15.7747ZM20.5136 18.4498C23.4223 17.6646 23.5346 17.6236 23.6493 17.5395C23.8256 17.4075 23.914 17.1864 23.8986 16.9172C23.8986 16.9086 23.9002 16.8991 23.8986 16.8897C23.8239 16.0944 22.5728 14.0253 21.9564 13.6894C21.7378 13.5727 21.5193 13.5805 21.3378 13.7159C21.2254 13.7973 21.1431 13.9208 19.5856 16.2932C19.5856 16.2932 18.8823 17.3602 18.8739 17.3705C18.6885 17.6216 18.6854 17.9815 18.867 18.2902C19.0548 18.6099 19.3718 18.7658 19.6627 18.6759C19.6627 18.6759 19.651 18.699 19.6479 18.7034C19.7911 18.6434 20.0474 18.573 20.5136 18.4498ZM21.8364 25.5241C22.4827 25.237 23.8925 23.2391 23.9918 22.4703C24.0263 22.2028 23.951 21.9724 23.7855 21.8249C23.677 21.7341 23.5947 21.6989 21.0353 20.763C21.0353 20.763 19.9126 20.3499 19.8979 20.3422C19.6263 20.2248 19.3162 20.3335 19.1076 20.6198C18.8907 20.9138 18.8583 21.3021 19.0314 21.5952L19.4832 22.4146C21.0022 25.1624 21.1184 25.3569 21.2276 25.4521C21.3969 25.6003 21.6123 25.6244 21.8362 25.5241H21.8364ZM17.4872 26.5672C17.5318 26.4231 17.5372 26.3247 17.5449 23.3282C17.5449 23.3282 17.551 22.0039 17.5518 21.9911C17.5702 21.6662 17.3817 21.3706 17.0731 21.2385C16.7553 21.1023 16.413 21.1862 16.2205 21.4528C16.2205 21.4528 15.6589 22.1951 15.6572 22.1951C13.7297 24.7175 13.6489 24.8341 13.6019 24.9832C13.5733 25.0705 13.5618 25.1649 13.571 25.2583C13.5827 25.392 13.6372 25.524 13.7272 25.6474C14.1744 26.2387 16.3182 27.1173 17.003 26.987C17.2407 26.939 17.414 26.7899 17.487 26.5671L17.4872 26.5672Z" fill="#E81239"/>
</svg>
