<svg width="35" height="35" viewBox="0 0 35 35" fill="none" xmlns="http://www.w3.org/2000/svg">
<rect width="35" height="35" rx="17.5" fill="#E81239"/>
<path d="M21.55 11.8333H18.85C18.3529 11.8333 17.95 12.2562 17.95 12.7778V15.6111H21.55C21.6523 15.6087 21.7494 15.6587 21.8103 15.7451C21.8711 15.8315 21.8882 15.9436 21.856 16.0456L21.19 18.1233C21.1286 18.314 20.9588 18.4429 20.767 18.4444H17.95V25.5278C17.95 25.7885 17.7485 26 17.5 26H15.25C15.0015 26 14.8 25.7885 14.8 25.5278V18.4444H13.45C13.2015 18.4444 13 18.233 13 17.9722V16.0833C13 15.8226 13.2015 15.6111 13.45 15.6111H14.8V12.7778C14.8 10.6914 16.4118 9 18.4 9H21.55C21.7985 9 22 9.21142 22 9.47222V11.3611C22 11.6219 21.7985 11.8333 21.55 11.8333Z" fill="white"/>
</svg>
