<svg width="35" height="35" viewBox="0 0 35 35" fill="none" xmlns="http://www.w3.org/2000/svg">
<rect width="35" height="35" rx="17.5" fill="#E81239"/>
<path fill-rule="evenodd" clip-rule="evenodd" d="M20.8333 10H14.1667C11.8655 10 10 11.8655 10 14.1667V20.8333C10 23.1345 11.8655 25 14.1667 25H20.8333C23.1345 25 25 23.1345 25 20.8333V14.1667C25 11.8655 23.1345 10 20.8333 10ZM23.5417 20.8333C23.5371 22.3272 22.3272 23.5371 20.8333 23.5417H14.1667C12.6728 23.5371 11.4629 22.3272 11.4583 20.8333V14.1667C11.4629 12.6728 12.6728 11.4629 14.1667 11.4583H20.8333C22.3272 11.4629 23.5371 12.6728 23.5417 14.1667V20.8333ZM21.4583 14.375C21.9186 14.375 22.2917 14.0019 22.2917 13.5417C22.2917 13.0814 21.9186 12.7083 21.4583 12.7083C20.9981 12.7083 20.625 13.0814 20.625 13.5417C20.625 14.0019 20.9981 14.375 21.4583 14.375ZM17.5 13.75C15.4289 13.75 13.75 15.4289 13.75 17.5C13.75 19.5711 15.4289 21.25 17.5 21.25C19.5711 21.25 21.25 19.5711 21.25 17.5C21.2522 16.5047 20.8578 15.5496 20.1541 14.8459C19.4503 14.1422 18.4952 13.7478 17.5 13.75ZM15.2083 17.5C15.2083 18.7657 16.2343 19.7917 17.5 19.7917C18.7657 19.7917 19.7917 18.7657 19.7917 17.5C19.7917 16.2343 18.7657 15.2083 17.5 15.2083C16.2343 15.2083 15.2083 16.2343 15.2083 17.5Z" fill="white"/>
</svg>
