<svg width="54" height="45" viewBox="0 0 54 45" fill="none" xmlns="http://www.w3.org/2000/svg">
<path d="M15.7429 0.207031C15.4588 1.37287 15.1475 2.52975 14.8268 3.68598C12.6632 11.0861 12.6632 11.0861 12.4336 18.7039C12.5109 18.6873 12.5883 18.6706 12.6679 18.6535C15.4016 18.1423 18.5929 19.4796 20.8103 20.9773C21.1691 21.2382 21.5088 21.5143 21.8445 21.8039C21.9619 21.9007 21.9619 21.9007 22.0816 21.9993C24.0965 23.7042 25.3786 26.1178 26.0846 28.624C26.1199 28.7494 26.1552 28.8747 26.1916 29.0039C26.6315 30.9071 26.5976 33.1418 26.0846 35.0308C26.0554 35.1401 26.0554 35.1401 26.0256 35.2517C25.0933 38.6172 22.7994 41.549 19.7762 43.2975C16.7036 44.9891 13.1448 45.4574 9.7448 44.5375C9.61429 44.5037 9.48378 44.4699 9.34931 44.435C6.06367 43.4625 3.30363 41.1058 1.65369 38.1344C0.609759 36.1777 0.0887725 34.1464 0.0236738 31.9307C0.0208576 31.8517 0.0180414 31.7727 0.0151399 31.6913C-0.0791269 28.6925 0.274926 25.6722 0.851003 22.734C0.873783 22.6176 0.896562 22.5012 0.920032 22.3813C1.3029 20.4693 1.82526 18.6017 2.40225 16.7406C2.43329 16.6402 2.46434 16.5399 2.49632 16.4366C3.51671 13.1992 5.29736 10.2434 7.46964 7.64712C7.55176 7.54721 7.63388 7.44731 7.71849 7.34438C9.28766 5.44932 11.0178 3.69588 12.9507 2.17039C13.0769 2.06841 13.2029 1.96627 13.3288 1.86402C15.3746 0.207031 15.3746 0.207031 15.7429 0.207031Z" fill="white"/>
<path d="M42.839 0C42.5845 1.04192 42.3105 2.07611 42.0172 3.10771C41.1893 6.03016 40.415 8.97237 39.8334 11.9545C39.8189 12.0283 39.8044 12.102 39.7895 12.178C39.4625 13.8555 39.2198 15.5 39.4133 17.2052C39.4214 17.2796 39.4295 17.354 39.4378 17.4307C39.4609 17.6149 39.4945 17.7979 39.5296 17.9802C39.5979 18.0143 39.6662 18.0484 39.7365 18.0835C39.7365 18.1858 39.7365 18.2881 39.7365 18.3935C39.8579 18.3899 39.9794 18.3864 40.1045 18.3826C43.8547 18.3054 47.1162 19.7469 49.8196 22.3332C51.4519 24.0083 52.5658 26.0644 53.1806 28.3137C53.2156 28.4374 53.2507 28.5612 53.2868 28.6887C54.0537 31.9619 53.3811 35.5937 51.6293 38.4404C49.6286 41.5958 46.5614 43.6794 42.9286 44.5077C39.5194 45.1725 35.9952 44.4563 33.0791 42.5867C30.0776 40.4702 27.9542 37.4251 27.3097 33.7792C27.1902 33.0281 27.141 32.2761 27.1197 31.517C27.1174 31.4454 27.1152 31.3737 27.1128 31.2999C26.8738 22.5563 29.4481 12.8662 35.4689 6.35265C35.6608 6.14314 35.8465 5.93054 36.0317 5.71529C36.4677 5.21616 36.9334 4.7491 37.4032 4.28192C37.4867 4.19807 37.5702 4.11422 37.6562 4.02783C38.1604 3.52484 38.6761 3.04386 39.2194 2.58336C39.2862 2.52621 39.3531 2.46906 39.422 2.41017C40.2228 1.72945 41.0357 1.07447 41.9018 0.477922C41.9721 0.429336 42.0424 0.380749 42.1149 0.330691C42.6049 0 42.6049 0 42.839 0Z" fill="white"/>
</svg>
