<svg width="47" height="49" viewBox="0 0 47 49" fill="none" xmlns="http://www.w3.org/2000/svg">
<path d="M16.477 11.4247C16.4067 11.4247 16.3353 11.4148 16.265 11.3936C15.8564 11.2706 15.6199 10.8182 15.737 10.3857L16.1761 8.7525C16.2931 8.31873 16.724 8.06767 17.1268 8.19196C17.5354 8.315 17.7719 8.76741 17.6548 9.19994L17.2158 10.8331C17.1186 11.191 16.8106 11.4247 16.477 11.4247Z" fill="#00ADEF"/>
<mask id="mask0_1509_78984" style="mask-type:luminance" maskUnits="userSpaceOnUse" x="0" y="26" width="3" height="23">
<path d="M0 26.6489H2.69761V48.9215H0V26.6489Z" fill="white"/>
</mask>
<g mask="url(#mask0_1509_78984)">
<path d="M0.769536 48.963H0.749632C0.324619 48.9505 -0.0114114 48.5764 0.000296911 48.1253C0.164214 41.2533 0.559957 34.1788 1.14186 27.6673C1.18167 27.2199 1.54814 26.8943 1.98018 26.9328C2.40285 26.9763 2.71312 27.374 2.67332 27.8227C2.09375 34.2969 1.70152 41.3304 1.5376 48.1663C1.5259 48.61 1.18401 48.9617 0.769536 48.9617V48.963Z" fill="#00ADEF"/>
</g>
<mask id="mask1_1509_78984" style="mask-type:luminance" maskUnits="userSpaceOnUse" x="8" y="42" width="4" height="7">
<path d="M8.98828 42.2383H11.0864V48.92H8.98828V42.2383Z" fill="white"/>
</mask>
<g mask="url(#mask1_1509_78984)">
<path d="M10.0844 48.9625C9.66403 48.9625 9.3198 48.6033 9.31512 48.1546C9.2999 46.6371 9.26712 45.2289 9.16525 43.2949C9.14184 42.8463 9.46616 42.4597 9.89 42.4349C10.3232 42.41 10.6768 42.7555 10.7002 43.2042C10.8033 45.168 10.836 46.596 10.8536 48.136C10.8583 48.5871 10.5176 48.9563 10.0926 48.9613H10.0844V48.9625Z" fill="#00ADEF"/>
</g>
<path d="M7.68811 48.8537C7.66469 48.8537 7.64127 48.8525 7.61786 48.85C7.19401 48.809 6.88257 48.4112 6.92121 47.9638L7.4715 41.5468C7.51014 41.0981 7.87427 40.765 8.30631 40.8085C8.72898 40.8495 9.04042 41.246 9.00178 41.6947L8.45266 48.1105C8.41519 48.5343 8.08151 48.8537 7.68811 48.8537Z" fill="#00ADEF"/>
<mask id="mask2_1509_78984" style="mask-type:luminance" maskUnits="userSpaceOnUse" x="35" y="30" width="5" height="19">
<path d="M35.0703 30.7891H39.2666V48.9253H35.0703V30.7891Z" fill="white"/>
</mask>
<g mask="url(#mask2_1509_78984)">
<path d="M36.0505 48.9613H36.0412C35.6173 48.9563 35.2766 48.586 35.2813 48.136C35.3199 44.6125 35.4312 41.8483 36.2847 31.7511C36.3198 31.331 36.6512 31.0078 37.0481 31.0078C37.4462 31.0078 37.7787 31.3297 37.8138 31.7498L39.2024 47.9596C39.2411 48.407 38.9296 48.8047 38.507 48.8457C38.0784 48.8818 37.7108 48.5549 37.6721 48.1062L37.0856 41.2778C36.8853 44.3676 36.8397 46.1362 36.8163 48.1547C36.8116 48.6021 36.4685 48.9613 36.0482 48.9613H36.0505Z" fill="#00ADEF"/>
</g>
<path d="M18.4543 9.79248H16.1478C14.847 9.79248 13.6001 9.20459 12.7266 8.1817C11.8543 7.15756 11.4281 5.78292 11.5581 4.40953L11.9047 0.734314C11.9468 0.286875 12.3227 -0.0375186 12.7465 0.00349694C13.1692 0.0482406 13.4771 0.44845 13.4338 0.897133L13.0884 4.57235C13.0006 5.50203 13.2769 6.39442 13.867 7.08796C14.4571 7.78024 15.2673 8.16181 16.1478 8.16181H18.4543C18.8794 8.16181 19.2236 8.52722 19.2236 8.97714C19.2236 9.42707 18.8794 9.79372 18.4543 9.79372V9.79248Z" fill="#00ADEF"/>
<path d="M33.0553 15.6107C33.0132 15.6107 32.971 15.607 32.9277 15.5983C31.1832 15.2876 29.7383 13.9092 29.2489 12.0884L28.6003 9.67719C28.5066 9.33291 28.6378 8.96377 28.9199 8.76988C31.5613 6.94532 33.3141 4.00838 33.7285 0.708511C33.7859 0.262314 34.17 -0.0533793 34.5926 0.00752209C35.013 0.0671807 35.3092 0.477334 35.253 0.924773C34.8045 4.49559 32.9862 7.69602 30.2313 9.79402L30.7277 11.6409C31.0567 12.859 32.0203 13.7824 33.1829 13.99C33.6021 14.0646 33.8843 14.4859 33.814 14.9296C33.7508 15.3286 33.4253 15.6107 33.0565 15.6107H33.0553Z" fill="#00ADEF"/>
<mask id="mask3_1509_78984" style="mask-type:luminance" maskUnits="userSpaceOnUse" x="35" y="14" width="12" height="35">
<path d="M35.9688 14.2422H46.1597V48.9237H35.9688V14.2422Z" fill="white"/>
</mask>
<g mask="url(#mask3_1509_78984)">
<path d="M45.3533 48.9638C44.9388 48.9638 44.5957 48.612 44.5864 48.1683C44.3862 39.8522 43.8417 31.1867 43.0537 23.7704C42.6627 20.0828 40.1161 17.024 36.7183 16.1565C36.305 16.0521 36.051 15.6109 36.1505 15.1734C36.25 14.7346 36.6668 14.4625 37.0778 14.5706C41.102 15.5947 44.118 19.219 44.5829 23.5877C45.3743 31.05 45.9211 39.7652 46.1237 48.1261C46.1342 48.5772 45.7982 48.9513 45.3743 48.9638H45.3533Z" fill="#00ADEF"/>
</g>
<path d="M14.6073 17.1392C13.3358 17.1392 12.3008 16.0417 12.3008 14.6907C12.3008 13.3409 13.3358 12.2422 14.6073 12.2422C15.8789 12.2422 16.9139 13.3409 16.9139 14.6907C16.9139 16.0417 15.8789 17.1392 14.6073 17.1392ZM14.6073 13.8753C14.1835 13.8753 13.8381 14.242 13.8381 14.6907C13.8381 15.1406 14.1835 15.5073 14.6073 15.5073C15.0312 15.5073 15.3754 15.1406 15.3754 14.6907C15.3754 14.242 15.0312 13.8753 14.6073 13.8753Z" fill="#00ADEF"/>
<path d="M2.30655 17.1392C1.03502 17.1392 0 16.0417 0 14.6907C0 13.3409 1.03502 12.2422 2.30655 12.2422C3.57807 12.2422 4.61309 13.3409 4.61309 14.6907C4.61309 16.0417 3.57807 17.1392 2.30655 17.1392ZM2.30655 13.8753C1.8827 13.8753 1.53848 14.242 1.53848 14.6907C1.53848 15.1406 1.8827 15.5073 2.30655 15.5073C2.73039 15.5073 3.07579 15.1406 3.07579 14.6907C3.07579 14.242 2.73039 13.8753 2.30655 13.8753Z" fill="#00ADEF"/>
<path d="M8.45363 29.377C4.63787 29.377 1.53516 26.0821 1.53516 22.0328V16.3205C1.53516 15.8706 1.87938 15.5039 2.30322 15.5039C2.72707 15.5039 3.07246 15.8706 3.07246 16.3205V22.0328C3.07246 25.1835 5.48556 27.7463 8.45363 27.7463C11.4205 27.7463 13.8336 25.1835 13.8336 22.0328V16.3205C13.8336 15.8706 14.179 15.5039 14.6029 15.5039C15.0267 15.5039 15.3709 15.8706 15.3709 16.3205V22.0328C15.3709 26.0821 12.2682 29.377 8.45363 29.377Z" fill="#00ADEF"/>
<path d="M8.45616 32.6411C7.18346 32.6411 6.14844 31.5424 6.14844 30.1926V28.3556C6.14844 27.9045 6.49383 27.5391 6.91768 27.5391C7.34152 27.5391 7.68575 27.9045 7.68575 28.3556V30.1926C7.68575 30.6426 8.03114 31.0092 8.45498 31.0092C8.87883 31.0092 9.22305 30.6426 9.22305 30.1926V28.3556C9.22305 27.9045 9.56728 27.5391 9.99229 27.5391C10.4161 27.5391 10.7604 27.9045 10.7604 28.3556V30.1926C10.7604 31.5424 9.72534 32.6411 8.45381 32.6411H8.45616Z" fill="#00ADEF"/>
<path d="M8.45649 25.2932C6.38645 25.2932 4.31641 25.0123 2.30375 24.453C1.89395 24.3387 1.64808 23.8925 1.75579 23.4562C1.86351 23.0212 2.28501 22.7614 2.69481 22.8745C6.46255 23.926 10.4481 23.926 14.217 22.8745C14.6256 22.7602 15.0471 23.0212 15.156 23.4562C15.2626 23.8925 15.0179 24.3387 14.6069 24.453C12.5942 25.0135 10.5254 25.2932 8.45532 25.2932H8.45649Z" fill="#00ADEF"/>
<path d="M15.7592 41.618C11.3089 41.618 7.6875 37.7737 7.6875 33.0495V31.8253C7.6875 31.3753 8.03173 31.0087 8.45674 31.0087C8.88058 31.0087 9.22481 31.3753 9.22481 31.8253V33.0495C9.22481 36.8751 12.1554 39.986 15.7592 39.986C19.3631 39.986 22.2937 36.8751 22.2937 33.0495V28.5614C22.2937 28.1115 22.6379 27.7461 23.0617 27.7461C23.4868 27.7461 23.831 28.1115 23.831 28.5614V33.0495C23.831 37.7737 20.2096 41.618 15.7592 41.618Z" fill="#00ADEF"/>
<path d="M23.0614 29.3717C20.9434 29.3717 19.2188 27.5422 19.2188 25.2913C19.2188 23.0417 20.9434 21.2109 23.0614 21.2109C25.1806 21.2109 26.9053 23.0417 26.9053 25.2913C26.9053 27.5422 25.1818 29.3717 23.0614 29.3717ZM23.0614 22.8428C21.7899 22.8428 20.7561 23.9416 20.7561 25.2913C20.7561 26.6424 21.7899 27.7411 23.0614 27.7411C24.3341 27.7411 25.3692 26.6424 25.3692 25.2913C25.3692 23.9416 24.3341 22.8428 23.0614 22.8428Z" fill="#00ADEF"/>
<path d="M23.0724 26.1085C22.6485 26.1085 22.3008 25.7431 22.3008 25.2919C22.3008 24.842 22.6415 24.4766 23.0653 24.4766H23.0724C23.4974 24.4766 23.8416 24.842 23.8416 25.2919C23.8416 25.7431 23.4974 26.1085 23.0724 26.1085Z" fill="#00ADEF"/>
</svg>
