<?xml version="1.0" encoding="UTF-8"?>
<svg data-bbox="0 0.145 53.018 54.468" xmlns="http://www.w3.org/2000/svg" viewBox="0 0 54 57" height="57" width="54" data-type="color">
    <g>
        <path fill="#00ADEF" d="M31.83 23.559a.545.545 0 0 0-.54.546c0 .875-.74 1.586-1.653 1.586a.54.54 0 0 0-.535.551c0 .305.238.551.535.551 1.506 0 2.728-1.207 2.728-2.687a.54.54 0 0 0-.536-.547" data-color="1"/>
        <path fill="#00ADEF" d="M34.43 18.5a.53.53 0 0 0-.725.227c-.412.793-1.418 1.11-2.238.703a.53.53 0 0 0-.717.254.55.55 0 0 0 .25.735c.39.191.806.285 1.218.285a2.74 2.74 0 0 0 2.435-1.461.557.557 0 0 0-.224-.742" data-color="1"/>
        <path fill="#00ADEF" d="M41.091 22.676h.015a.547.547 0 0 0 .524-.566c-.015-.524.424-.965.979-.985a.55.55 0 0 0-.03-1.098c-1.149.036-2.054.985-2.023 2.114a.54.54 0 0 0 .535.535" data-color="1"/>
        <path fill="#00ADEF" d="M42.909 22.178c.123.277.44.402.709.281.512-.234 1.117-.023 1.348.465a.534.534 0 0 0 .717.258.55.55 0 0 0 .25-.734 2.094 2.094 0 0 0-2.747-.997.557.557 0 0 0-.277.727" data-color="1"/>
        <path fill="#00ADEF" d="M41.814 24.557a2.106 2.106 0 0 0-2.758.98.554.554 0 0 0 .242.735.527.527 0 0 0 .72-.246c.24-.492.845-.7 1.357-.465.27.125.586 0 .709-.277a.557.557 0 0 0-.27-.727" data-color="1"/>
        <mask height="55" width="54" y="0" x="0" maskUnits="userSpaceOnUse" style="mask-type:luminance" id="da9ad57e-63b8-437f-bc85-33f25b45d6bc" fill="none">
            <path fill="#ffffff" d="M0 .129h53.018v54.5H0z"/>
        </mask>
        <g mask="url(#da9ad57e-63b8-437f-bc85-33f25b45d6bc)">
            <path fill="#00ADEF" d="M46.337 28.36c-1.237 1.152-2.64 2.898-4.123 4.746l-.177.222c-2.685 3.348-6.03 7.516-10.753 10.617-4.99 3.27-11.088 5.88-17.645 7.543a68.4 68.4 0 0 1-12.564 1.969v-.703c4.06-.246 8.175-.89 12.24-1.922 6.426-1.633 12.406-4.191 17.295-7.398 4.596-3.016 7.852-7.07 10.722-10.649 1.503-1.875 2.924-3.644 4.207-4.84 2.011-1.87 4.115-3.398 6.404-4.652v.887c-1.977 1.14-3.815 2.508-5.606 4.18M1.075 32.874a43 43 0 0 0 3.91-.61c.24.208.482.403.74.59-1.522.325-3.082.57-4.65.73zm1.734-7.645c0-3.246 4.843-10.722 9.377-16.636a.18.18 0 0 1 .143-.074h.004c.034.003.1.011.146.078 3.21 4.554 6.588 10.039 7.968 13.8.158.43.292.84.393 1.223.107.402.184.774.223 1.11q.03.264.03.5c0 .41-.034.812-.092 1.206a7.7 7.7 0 0 1-.458 1.7 8.4 8.4 0 0 1-1.73 2.718c-1.437 1.524-3.44 2.563-5.706 2.832q-.566.066-1.156.067a9.7 9.7 0 0 1-3.182-.531 9.6 9.6 0 0 1-1.572-.711 9.5 9.5 0 0 1-1.892-1.434C3.76 29.551 2.81 27.492 2.81 25.231m28.317-9.12c-2.246 2.093-4.138 4.449-5.968 6.73l-.011.015q-.105.128-.208.262l-.212.262c-.177.219-.35.437-.528.652l-.004.008q-.265.328-.532.648c-.069.086-.142.172-.211.258l-.058.067-.035.043-.324.386q-.096.117-.192.227c-.066.078-.127.152-.193.227q-.098.111-.192.222l-.162.184-.227.254q.099-.65.1-1.325l-.004-.125c.705-.832 1.414-1.714 2.111-2.585 1.853-2.31 3.768-4.692 6.053-6.82 3.822-3.563 7.933-6.4 12.556-8.677 2.82-1.382 5.787-2.543 9.058-3.53v.76c-3.056.942-5.841 2.04-8.5 3.345a50.5 50.5 0 0 0-8.375 5.18 52 52 0 0 0-3.942 3.331m4.781 2.64c.394.324.617.785.617 1.266 0 .832-.643 1.535-1.533 1.672l-.748.117.355.683c.115.227.177.473.177.727 0 .55-.293 1.066-.782 1.387l-.582.375.497.488c.324.312.5.726.5 1.16 0 .934-.824 1.695-1.84 1.695-.378 0-.74-.105-1.053-.3l-.5-.325-.266.543c-.297.614-.956 1.008-1.68 1.008-.547 0-1.06-.223-1.414-.605l-.355-.395-.393.36a1.9 1.9 0 0 1-1.294.488c-1.017 0-1.845-.758-1.845-1.696 0-.238-.105-.457-.378-.699.74-.86 1.48-1.77 2.212-2.676a2.77 2.77 0 0 0 3.147.739.56.56 0 0 0 .293-.719.534.534 0 0 0-.701-.3c-.751.316-1.61.05-2.042-.587 1.707-2.133 3.486-4.312 5.552-6.234a51 51 0 0 1 2.997-2.586c.532.855 1.237 2.16 1.237 2.766 0 .32-.097.632-.282.906l-.288.422zM8.102 34.145a45 45 0 0 1-7.027 1.25v-.708a44 44 0 0 0 5.98-1.011q.509.264 1.047.468m31.874-5.543-.073-.442-.435-.02c-.594-.023-1.064-.46-1.08-.995a.95.95 0 0 1 .155-.551l.277-.43-.4-.309a.97.97 0 0 1-.397-.754c-.016-.503.37-.945.917-1.046l.743-.137-.373-.676a.9.9 0 0 1-.12-.43 1.02 1.02 0 0 1 .455-.855l.57-.395-.509-.468a.96.96 0 0 1-.323-.692.98.98 0 0 1 .296-.726c.212-.211.501-.332.813-.34h.039c.22 0 .435.059.62.168l.512.308.251-.55c.17-.383.574-.637 1.025-.649.339-.011.663.117.89.348l.366.383.381-.367a1.2 1.2 0 0 1 .802-.332c.628-.02 1.151.433 1.167 1a.95.95 0 0 1-.089.425l-.277.594.62.176c.486.133 1.314.531 1.973.87a35 35 0 0 0-5.475 4.196c-1.005.938-2.034 2.121-3.094 3.418-.111-.289-.204-.57-.227-.722m11.967-6.551c-2.566 1.344-4.901 3.008-7.128 5.082-1.34 1.25-2.785 3.05-4.311 4.953-2.824 3.516-6.018 7.5-10.476 10.426-4.789 3.14-10.656 5.648-16.971 7.25a65 65 0 0 1-11.982 1.89v-.703a64.6 64.6 0 0 0 11.655-1.843C18.92 47.53 24.67 45.078 29.353 42c4.342-2.848 7.401-6.66 10.102-10.027l.185-.23.505-.63c1.356-1.687 2.646-3.246 3.872-4.39 2.119-1.973 4.35-3.598 6.784-4.93q.569-.31 1.14-.598zm0-2.074q-1.053.51-2.065 1.078c-.547-.297-1.515-.797-2.277-1.098q.02-.169.019-.344c-.035-1.175-1.056-2.101-2.277-2.066-.4.012-.79.129-1.125.336a2.26 2.26 0 0 0-1.31-.371 2.28 2.28 0 0 0-1.687.828 2.4 2.4 0 0 0-.76-.106 2.26 2.26 0 0 0-1.533.657c-.416.418-.64.965-.62 1.543.008.363.111.707.297 1.011-.324.39-.501.883-.49 1.399q.005.164.039.328a2.12 2.12 0 0 0-1.206 1.96c.011.47.189.919.49 1.278a2.1 2.1 0 0 0-.124.766c.027.972.743 1.793 1.699 2.012.089.293.212.609.297.812l.115.277-.616.766-.185.23c-2.647 3.305-5.652 7.051-9.848 9.801-4.592 3.012-10.229 5.422-16.305 6.965a64 64 0 0 1-11.396 1.809V36.5a47 47 0 0 0 9.08-1.793q.876.148 1.796.148c4.304 0 7.995-2.52 9.497-6.074a35 35 0 0 0 1.221-1.27l.027.028c.077 1.477 1.357 2.656 2.917 2.656a3 3 0 0 0 1.622-.472 3 3 0 0 0 1.834.62 2.97 2.97 0 0 0 2.354-1.148 3 3 0 0 0 1.144.227c1.61 0 2.917-1.254 2.917-2.797 0-.531-.154-1.04-.443-1.48a2.72 2.72 0 0 0 .809-1.93q0-.311-.07-.606c1.083-.418 1.819-1.43 1.819-2.593 0-.66-.243-1.293-.682-1.793.162-.352.243-.73.243-1.121 0-.598-.335-1.497-.998-2.668-.039-.07-.231-.41-.459-.77A49 49 0 0 1 43.91 8.59a56 56 0 0 1 8.033-3.188zm-29.374 1.515.012-.012c1.892-2.355 3.845-4.789 6.226-7.007 3.968-3.696 8.24-6.645 13.053-9.012 3.125-1.54 6.43-2.805 10.083-3.871v.758c-3.445 1.023-6.565 2.23-9.524 3.687-4.72 2.32-8.912 5.215-12.814 8.852-2.343 2.18-4.285 4.597-6.161 6.941-.493.613-.99 1.23-1.487 1.832a12 12 0 0 0-.293-1.039q.462-.57.905-1.129M52.34.336c-3.987 1.121-7.566 2.473-10.945 4.133-4.909 2.414-9.262 5.422-13.311 9.191-2.44 2.274-4.42 4.738-6.334 7.125l-.008.012q-.255.31-.509.633-.924-2.32-2.743-5.485c-1.907-3.312-4.037-6.425-5.135-7.988a1.242 1.242 0 0 0-2.015-.043c-1.195 1.559-3.51 4.672-5.583 7.988-2.67 4.258-4.022 7.395-4.022 9.329 0 2.312.87 4.437 2.32 6.097-1.48.274-2.721.422-3.565.5l-.49.047v22.738l.563-.027c4.376-.223 8.988-.926 13.338-2.031 6.665-1.692 12.875-4.348 17.961-7.688 4.87-3.191 8.272-7.433 11.004-10.84l.177-.222c1.46-1.817 2.835-3.532 4.018-4.633 1.811-1.688 3.672-3.059 5.68-4.188l.277-.156V.145z" data-color="1"/>
        </g>
        <path fill="#00ADEF" d="M7.474 46.422c-1.075 0-1.637-.45-1.637-.602 0-.156.562-.605 1.637-.605 1.071 0 1.634.45 1.634.605 0 .153-.563.602-1.634.602m0-2.305c-1.545 0-2.712.73-2.712 1.703 0 .97 1.167 1.7 2.712 1.7s2.708-.73 2.708-1.7c0-.972-1.163-1.703-2.708-1.703" data-color="1"/>
        <path fill="#00ADEF" d="M21.654 34.745c-.161.473-.408.895-.681 1.156-.205.2-.363.242-.417.227-.05-.02-.146-.157-.184-.446-.055-.375.007-.863.169-1.336.331-.976.886-1.382 1.067-1.382.008 0 .02 0 .027.004.143.05.37.742.02 1.777m.336-2.816c-.898-.32-1.954.566-2.466 2.058-.216.64-.297 1.3-.216 1.852.093.683.412 1.152.898 1.324.123.047.25.066.381.066.374 0 .763-.18 1.125-.531.397-.383.736-.95.956-1.59.508-1.492.216-2.86-.678-3.18" data-color="1"/>
        <path fill="#00ADEF" d="M19.4 43.13c-.038.04-.2.07-.473-.02-.355-.113-.755-.382-1.102-.738-.76-.773-.844-1.5-.74-1.61.023-.023.077-.034.15-.034.27 0 .832.183 1.426.793.759.777.847 1.5.74 1.61m-3.074-3.145c-.67.688-.35 2.047.74 3.165.47.48 1.017.84 1.537 1.007q.342.113.643.114c.366 0 .678-.125.914-.364.67-.687.354-2.046-.74-3.164-1.094-1.117-2.424-1.441-3.094-.758" data-color="1"/>
        <path fill="#00ADEF" d="M45.336 13.999c.023-.024.073-.04.15-.04.266 0 .829.188 1.422.798.759.777.847 1.5.74 1.61-.105.108-.813.019-1.572-.759-.76-.777-.848-1.5-.74-1.609m2.157 3.504c.363 0 .678-.117.917-.36.67-.687.351-2.046-.74-3.164-1.093-1.117-2.423-1.445-3.093-.757-.67.687-.355 2.047.74 3.164.705.722 1.514 1.117 2.176 1.117" data-color="1"/>
        <path fill="#00ADEF" d="M29.567 36.651c-.104.11-.813.02-1.572-.758-.759-.777-.847-1.5-.74-1.609.024-.023.074-.039.15-.039.267 0 .83.188 1.422.797.347.352.61.762.721 1.129.089.273.058.441.02.48m.023-2.386c-1.094-1.118-2.423-1.446-3.093-.758-.675.687-.355 2.047.74 3.164.47.48 1.013.84 1.537 1.008q.343.11.64.109c.365 0 .681-.121.916-.36.358-.37.447-.937.243-1.593-.166-.531-.513-1.09-.983-1.57" data-color="1"/>
        <path fill="#00ADEF" d="M11.256 39.488c-.786.75-1.495.813-1.599.7-.034-.04-.058-.208.039-.481.123-.36.4-.762.759-1.102.354-.34.767-.594 1.125-.695.12-.035.216-.047.293-.047.096 0 .158.02.18.043.1.113-.01.832-.797 1.582m.035-2.637c-.524.149-1.083.489-1.572.95-.486.464-.855 1.011-1.036 1.539-.228.648-.158 1.214.188 1.597.243.266.578.39.967.39.652 0 1.441-.358 2.15-1.034 1.133-1.078 1.495-2.426.852-3.137-.351-.383-.898-.492-1.55-.305" data-color="1"/>
        <path fill="#00ADEF" d="M47.192 9.622c.123-.36.4-.762.759-1.102.358-.34.766-.593 1.125-.699.12-.031.22-.043.292-.043.1 0 .158.02.181.043.035.04.058.207-.034.48-.127.36-.405.762-.763 1.102-.782.75-1.495.813-1.595.7-.038-.04-.062-.208.035-.48m.142 1.621c.651 0 1.445-.36 2.154-1.035.485-.465.855-1.012 1.036-1.54.228-.648.158-1.214-.188-1.597-.351-.383-.898-.492-1.545-.308-.528.152-1.087.488-1.572.953-.49.465-.856 1.012-1.04 1.535-.228.648-.159 1.219.192 1.601.239.266.578.391.963.391" data-color="1"/>
        <path fill="#00ADEF" d="M19.595 24.098H18.52c0 3.754-2.894 6.808-6.454 6.808v1.102c4.154 0 7.529-3.547 7.529-7.91" data-color="1"/>
        <path fill="#00ADEF" d="M21.162 5.035c1.684 2.434 2.759 4.516 2.759 5.356 0 1.465-1.291 2.66-2.882 2.66s-2.882-1.195-2.882-2.66c0-.836 1.171-2.918 3.005-5.356m-.123 9.114c2.18 0 3.957-1.684 3.957-3.758 0-1.563-1.992-4.625-3.179-6.313a.79.79 0 0 0-.628-.336.78.78 0 0 0-.64.313c-1.294 1.687-3.467 4.762-3.467 6.336 0 2.074 1.772 3.758 3.957 3.758" data-color="1"/>
    </g>
</svg>
