<?xml version="1.0" encoding="UTF-8"?>
<svg data-bbox="0.695 0.03 58.61 41.949" xmlns="http://www.w3.org/2000/svg" viewBox="0 0 60 42" height="42" width="60" data-type="color">
    <g>
        <g clip-path="url(#639898ca-8ab0-49e8-b59a-7ef5922dc87a)">
            <path fill="#00ADEF" d="M14.342 3.695a11.8 11.8 0 0 0-4.895 2.224c-1.589 1.218-2.855 2.828-3.771 4.776a.963.963 0 0 0 .88 1.37.96.96 0 0 0 .88-.558C8.217 9.84 9.29 8.476 10.634 7.44a9.9 9.9 0 0 1 4.089-1.854.97.97 0 0 0 .765-1.135.977.977 0 0 0-1.146-.755" data-color="1"/>
            <path fill="#00ADEF" d="M50.256 5.919a11.8 11.8 0 0 0-4.901-2.224.97.97 0 0 0-1.14.755.966.966 0 0 0 .76 1.135 9.95 9.95 0 0 1 4.093 1.854c1.339 1.037 2.417 2.401 3.193 4.068a.97.97 0 0 0 .88.557.96.96 0 0 0 .88-1.37c-.911-1.947-2.177-3.551-3.765-4.775" data-color="1"/>
            <mask height="42" width="60" y="0" x="0" maskUnits="userSpaceOnUse" style="mask-type:luminance" id="c60d4119-e702-4ad1-9e0c-1967a14d8801" fill="none">
                <path fill="#ffffff" d="M.7 0h58.603v42H.7z"/>
            </mask>
            <g mask="url(#c60d4119-e702-4ad1-9e0c-1967a14d8801)">
                <path fill="#00ADEF" d="M44.591.031c-5.547 0-10.536 3.453-10.536 8.985a8.6 8.6 0 0 0 2.692 6.25c.297.28.553.599.771.937-2.745.12-5.291 1.23-7.208 3.14a6 6 0 0 0-.307.313 6 6 0 0 0-.302-.312c-1.917-1.912-4.464-3.021-7.214-3.14.214-.34.474-.657.77-.938a8.6 8.6 0 0 0 2.694-6.25C25.95 3.484 20.96.03 15.414.03v1.714c1.198 0 2.354.182 3.443.541a9 9 0 0 1 2.817 1.495c1.162.933 2.547 2.594 2.547 5.235a6.85 6.85 0 0 1-2.156 5.01 6.68 6.68 0 0 0-2.088 4.64l-.006.058.006.057a6.66 6.66 0 0 0 .78 2.922 6.6 6.6 0 0 0 1.308 1.724 6.84 6.84 0 0 1 2.156 5.01c0 2.636-1.385 4.297-2.547 5.23a8.9 8.9 0 0 1-2.817 1.5 11 11 0 0 1-3.443.541c-1.562 0-3.088-.307-4.531-.911a11.9 11.9 0 0 1-4.125-2.885c-1.313-1.407-2.35-3.157-3.078-5.204-.818-2.312-1.24-4.994-1.256-7.984.016-2.984.438-5.672 1.256-7.98.729-2.046 1.76-3.796 3.078-5.202a11.9 11.9 0 0 1 4.125-2.886 11.7 11.7 0 0 1 4.531-.911V.03C8.518.031.763 5.381.695 18.724c.068 13.349 7.823 18.698 14.72 18.698 5.54 0 10.536-3.458 10.536-8.984a8.6 8.6 0 0 0-2.693-6.25 5 5 0 0 1-.328-.344c2.468.427 4.286 2.49 4.27 5.031v15.104h5.61V26.875c-.016-2.542 1.797-4.604 4.265-5.031a5 5 0 0 1-.328.343 8.6 8.6 0 0 0-2.692 6.25c0 5.532 4.99 8.985 10.53 8.985 6.902 0 14.657-5.35 14.72-18.693C59.242 5.375 51.487.031 44.59.031m-13.51 26.85v13.385h-2.157v-13.38c.027-3.803-3-6.808-6.885-6.84h-.062a4.3 4.3 0 0 1-.276-1.322 4.3 4.3 0 0 1 .12-.818h.228c2.454.016 4.74.959 6.433 2.646.302.302.583.625.833.958l.693.922.693-.922c.25-.333.53-.656.833-.953 1.693-1.692 3.979-2.63 6.427-2.65h.234a4 4 0 0 1 .105.614q.009.1.01.208-.001.094-.01.188c-.037.385-.125.77-.26 1.13h-.063c-3.891.031-6.917 3.036-6.896 6.833m22.166 5.03a11.9 11.9 0 0 1-4.125 2.886 11.7 11.7 0 0 1-4.53.911c-1.199 0-2.355-.182-3.444-.541a8.9 8.9 0 0 1-2.817-1.5c-1.162-.927-2.547-2.594-2.547-5.23 0-1.911.766-3.692 2.156-5.01a6.8 6.8 0 0 0 1.313-1.724 6.8 6.8 0 0 0 .78-2.948v-.062l-.015-.287a6.7 6.7 0 0 0-.458-1.99 6.6 6.6 0 0 0-1.62-2.39 6.85 6.85 0 0 1-2.156-5.01c0-2.641 1.385-4.302 2.547-5.235a9.1 9.1 0 0 1 2.817-1.5 11.1 11.1 0 0 1 3.443-.536c1.563 0 3.084.307 4.531.906a12 12 0 0 1 4.125 2.885c1.313 1.407 2.35 3.162 3.078 5.209.818 2.307 1.24 4.995 1.256 7.979-.016 2.984-.438 5.672-1.256 7.98-.729 2.051-1.765 3.801-3.078 5.208" data-color="1"/>
            </g>
        </g>
        <defs fill="none">
            <clipPath id="639898ca-8ab0-49e8-b59a-7ef5922dc87a">
                <path fill="#ffffff" d="M60 0v42H0V0z"/>
            </clipPath>
        </defs>
    </g>
</svg>
