<?xml version="1.0" encoding="UTF-8"?>
<svg data-bbox="0.023 0.309 47.762 43.385" xmlns="http://www.w3.org/2000/svg" viewBox="0 0 48 44" height="44" width="48" data-type="color">
    <g>
        <mask height="44" width="48" y="0" x="0" maskUnits="userSpaceOnUse" style="mask-type:luminance" id="1d302030-66bc-4a8b-9484-b8ef3de66603" fill="none">
            <path fill="#ffffff" d="M0 0h47.797v44H0z"/>
        </mask>
        <g mask="url(#1d302030-66bc-4a8b-9484-b8ef3de66603)">
            <path fill="#00ADEF" d="M4.038 31.623a6 6 0 0 0-.133 1.217c0 3.85 3.17 6.984 7.064 6.984q1.1-.002 2.146-.341a7 7 0 0 0 6.453 4.21 7.05 7.05 0 0 0 4.336-1.478 7.03 7.03 0 0 0 4.332 1.479c2.849 0 5.34-1.66 6.453-4.211a7 7 0 0 0 2.15.341c3.894 0 7.06-3.134 7.06-6.983 0-.434-.056-.848-.133-1.218 2.431-1.153 4.019-3.592 4.019-6.28 0-2.468-1.35-4.758-3.484-6 .06-.374.088-.715.088-1.049 0-2.99-1.933-5.613-4.721-6.582.337-.847.51-1.723.51-2.615 0-4.079-3.363-7.402-7.498-7.402q-.773 0-1.571.189A5.93 5.93 0 0 0 27.066.309a5.93 5.93 0 0 0-3.162.908 5.94 5.94 0 0 0-3.162-.908 5.94 5.94 0 0 0-4.047 1.575 7 7 0 0 0-1.57-.19c-4.136 0-7.499 3.324-7.499 7.403 0 .892.173 1.768.51 2.615-2.788.969-4.721 3.593-4.721 6.582 0 .334.028.675.092 1.05C1.37 20.583.023 22.874.023 25.341c0 2.689 1.588 5.128 4.015 6.28m18.279-10.207-3.484-1.342 8.591-8.305-2.435 9.889a.806.806 0 0 0 .607.98l3.138.731-9.451 8.33 3.504-9.246a.806.806 0 0 0-.47-1.037m7.948-18.078a.83.83 0 0 0 .844.225 5.4 5.4 0 0 1 1.57-.249c3.232 0 5.86 2.596 5.86 5.783 0 .94-.25 1.864-.744 2.752a.81.81 0 0 0 .563 1.185c2.547.49 4.396 2.7 4.396 5.26 0 .386-.057.8-.173 1.302-.085.37.1.752.45.912 1.892.88 3.114 2.781 3.114 4.834 0 2.25-1.45 4.276-3.612 5.035a.81.81 0 0 0-.515.977c.113.41.245.944.245 1.486 0 2.958-2.435 5.365-5.424 5.365a5.34 5.34 0 0 1-2.283-.514.81.81 0 0 0-.683-.009.79.79 0 0 0-.45.51c-.69 2.323-2.772 3.882-5.187 3.882a5.4 5.4 0 0 1-3.516-1.293V29.075l6.276-5.529a.8.8 0 0 0 .25-.803.82.82 0 0 0-.607-.591l-3.866-.904L29.69 9.406a.804.804 0 0 0-.39-.896.82.82 0 0 0-.976.124l-3.604 3.484V2.615a4.33 4.33 0 0 1 2.346-.687c1.214 0 2.351.498 3.199 1.41M4.773 20.508a.806.806 0 0 0 .45-.912 5.7 5.7 0 0 1-.169-1.302c0-2.56 1.849-4.77 4.392-5.26a.81.81 0 0 0 .563-1.185c-.494-.888-.744-1.812-.744-2.752 0-3.187 2.628-5.783 5.86-5.783.505 0 1.036.085 1.57.25a.84.84 0 0 0 .844-.226 4.33 4.33 0 0 1 5.545-.723v11.087l-6.304 6.095a.805.805 0 0 0 .277 1.33l3.914 1.507-4.384 11.569a.8.8 0 0 0 .305.952c.137.092.302.14.462.14a.82.82 0 0 0 .543-.204l5.187-4.573V40.78a5.4 5.4 0 0 1-3.516 1.293 5.375 5.375 0 0 1-5.183-3.881.8.8 0 0 0-.454-.51.81.81 0 0 0-.683.008 5.3 5.3 0 0 1-2.279.514c-2.993 0-5.424-2.407-5.424-5.364 0-.543.128-1.077.24-1.487a.805.805 0 0 0-.514-.977c-2.162-.76-3.612-2.784-3.612-5.035 0-2.053 1.221-3.954 3.114-4.834" data-color="1"/>
        </g>
    </g>
</svg>
