<?xml version="1.0" encoding="UTF-8"?>
<svg data-bbox="4.687 0.504 57.621 72.727" height="101" viewBox="0 0 74.25 75.75" width="99" xmlns="http://www.w3.org/2000/svg" data-type="color">
    <g>
        <defs>
            <clipPath id="6f543dcf-a7d4-4469-ba58-c13b8c068624">
                <path d="M4 .254h59V73.02H4Zm0 0"/>
            </clipPath>
        </defs>
        <path fill-rule="evenodd" d="M42.727 42.684a4 4 0 0 1-4.004-4.004v-4.301a6.47 6.47 0 0 1-1.832-2.813c-1.02.766-2.258 1.149-3.578 1.149-.938 0-1.833-.168-2.641-.594-.809.426-1.703.594-2.598.594a6.09 6.09 0 0 1-6.094-6.09v-.172c-3.449.086-6.304-2.683-6.304-6.09a6.12 6.12 0 0 1 5.539-6.093c.808-2.47 3.152-4.215 5.793-4.215.297 0 .64.039.937.082a6.04 6.04 0 0 1 5.368-3.235c1.109 0 2.214.34 3.152.895 1.066-1.832 3.066-2.984 5.242-2.984 3.066 0 5.621 2.3 6.004 5.242 3.453-.13 6.348 2.64 6.348 6.09 0 1.066-.254 2.085-.766 2.98 1.148 1.152 1.832 2.688 1.832 4.348 0 3.363-2.727 6.132-6.094 6.132-.082 0-.125-.043-.21-.043v.215a6.07 6.07 0 0 1-2.09 4.602v4.3a4 4 0 0 1-4.004 4.005m-5.239-13.758a.8.8 0 0 1 .297.043.87.87 0 0 1 .555.808c0 1.407.64 2.684 1.746 3.535.215.13.34.383.34.684v4.684c0 1.277 1.066 2.3 2.3 2.3a2.29 2.29 0 0 0 2.301-2.3v-4.684c0-.3.13-.555.34-.684a4.41 4.41 0 0 0 1.75-3.535c0-.34-.043-.683-.086-.98a.81.81 0 0 1 .211-.809.81.81 0 0 1 .813-.215c.297.086.636.13.976.13 2.43 0 4.39-2.005 4.39-4.43 0-1.364-.64-2.641-1.75-3.493-.382-.3-.464-.812-.167-1.195.555-.765.851-1.66.851-2.64a4.38 4.38 0 0 0-4.386-4.387c-.301 0-.598.043-.852.086a.89.89 0 0 1-.726-.172c-.211-.172-.297-.383-.297-.684v-.082c0-2.43-2.004-4.39-4.387-4.39a4.43 4.43 0 0 0-4.133 2.855.87.87 0 0 1-.597.555c-.254.043-.555 0-.766-.215-.809-.68-1.832-1.106-2.898-1.106-1.833 0-3.45 1.106-4.09 2.813-.168.426-.594.637-1.02.508a4 4 0 0 0-1.195-.168c-2.086 0-3.875 1.488-4.301 3.535a.87.87 0 0 1-.852.68h-.085a4.384 4.384 0 0 0-4.391 4.39c0 2.383 1.96 4.387 4.39 4.387.34 0 .68-.043.981-.129.297-.043.594.043.809.215.21.21.296.512.21.809-.042.34-.081.64-.081.98a4.38 4.38 0 0 0 4.386 4.387c.766 0 1.531-.168 2.172-.555a.78.78 0 0 1 .852 0c.683.387 1.449.555 2.215.555 1.363 0 2.64-.637 3.492-1.746a.89.89 0 0 1 .683-.34m0 0" fill="#00adef" data-color="1"/>
        <path fill-rule="evenodd" d="M42.387 28.156c-1.875 0-4.004-1.66-4.473-2.043-.383-.297-.426-.851-.129-1.234a.866.866 0 0 1 1.195-.086c1.063.852 2.98 2 3.79 1.617.382-.168.597-.894.597-1.914 0-1.578-1.875-3.07-5.113-4.133-.086 0-.168-.043-.254-.043v.13c.043.507-.129 1.277-1.023 1.827-2.43 1.664-6.688 1.407-8.989.172-1.277-.68-1.96-1.66-1.96-2.812 0-.469.214-1.32 1.706-1.79.766-.253 1.828-.382 3.11-.382.976 0 2.129.086 3.32.258a24.5 24.5 0 0 0-2.937-2.176c-.215-.125-.383-.426-.383-.723 0-1.277.636-1.875 1.148-2.172 2.813-1.664 10.223 2.512 11.715 3.364a.93.93 0 0 1 .297 1.195c-.254.383-.766.512-1.149.297-3.28-1.918-8.562-4.219-10.011-3.406-.043.043-.168.125-.254.296 1.062.723 3.238 2.258 4.472 3.875 4.133.98 8.008 2.985 8.008 6.223 0 1.79-.511 2.938-1.574 3.45-.344.171-.726.21-1.11.21m0 0" fill="#00adef" data-color="1"/>
        <g clip-path="url(#6f543dcf-a7d4-4469-ba58-c13b8c068624)">
            <path fill-rule="evenodd" d="M60.535 73.23H28.16a.86.86 0 0 1-.855-.855v-10.86c-6.473 2.81-11.246 3.024-13.844.68-1.957-1.703-1.918-2.898-1.703-4.343.086-.47.172-.938.129-1.493-.13-1.449-.77-2.898-.77-2.941-.125-.297-.043-.68.215-.934.555-.554.555-.812.555-.812-.043-.168-.727-.55-1.024-.723-.683-.34-1.406-.765-1.746-1.492-.172-.297-.086-.723.168-.937.684-.68.856-1.79.856-2.555a15 15 0 0 1-1.793.129c-1.871 0-3.067-.555-3.493-1.664-.851-2.13 1.493-5.621 7.84-11.63a.5.5 0 0 0 .168-.128c-3.152-5.707-2.937-12.48.555-18.7C18.105 5.75 27.305.255 36.297.513c12.012 0 17.336 6.73 17.848 7.41 14.824 15.848 5.113 31.95 4.175 33.398-5.324 15.211 1.489 28.075 2.895 30.504.086.168.344.551.086.98a.9.9 0 0 1-.766.426m-31.523-1.707h30.117c-2.258-4.3-7.414-16.613-2.387-30.882.043-.086.086-.13.13-.215.425-.637 10.566-15.848-4.005-31.352 0-.043-.043-.086-.043-.129-.086-.043-5.027-6.73-16.57-6.73h-.555c-8.18 0-16.527 5.07-20.789 12.61-3.367 5.921-3.45 12.183-.254 17.55.211.34.168.766-.086 1.023-.129.13-.343.34-.683.637-7.41 7.031-7.668 9.16-7.453 9.758.253.594 1.875.766 4.343.34.47-.086.895.254.98.683 0 .125.384 2.512-.722 4.258.168.13.426.258.637.383.765.426 1.746.938 1.918 1.961.086.598-.172 1.191-.684 1.875.215.637.555 1.746.684 2.937.043.77-.043 1.364-.13 1.875-.167 1.067-.253 1.579 1.11 2.813 2.215 1.96 6.899 1.45 13.203-1.492.258-.13.598-.13.813.043.254.172.426.426.426.722Zm0 0" fill="#00adef" data-color="1"/>
        </g>
    </g>
</svg>
