<?xml version="1.0" encoding="UTF-8"?>
<svg data-bbox="0.119 0.124 65.257 65.864" height="88" viewBox="0 0 66 66" width="88" xmlns="http://www.w3.org/2000/svg" data-type="color">
    <g>
        <defs>
            <clipPath id="8e79157d-4f1c-4ea4-b711-f5660ccb5ec7">
                <path d="M0 12h65.25v54H0Zm0 0"/>
            </clipPath>
        </defs>
        <g clip-path="url(#8e79157d-4f1c-4ea4-b711-f5660ccb5ec7)">
            <path d="M5.258 65.988a3.64 3.64 0 0 1-2.004-.617 3.54 3.54 0 0 1-1.508-2.367L.22 53.512A7.4 7.4 0 0 1 .4 50.27c1.554-5.622 4.37-9.313 8.347-10.973 6.856-2.867 14.574 1.34 14.906 1.52.04.023.078.038.106.062 0 0 .578.426 1.465.437h.039c1.195 0 2.457-.757 3.64-2.171l.118-.118c.011-.011 1.218-1.004 2.328-3.484 1.027-2.316 2.183-6.422 1.824-12.828v-.113c.012-.106.219-2.395 1.61-4.723 1.296-2.172 3.87-4.77 8.847-4.875.488-.102 2.871-.566 5.969-.23 4.527.488 8.441 2.468 11.297 5.738 2.968 3.394 4.566 7.843 4.476 12.527-.039 2.059-.437 9.379-4.055 16.785-1.644 3.383-3.714 6.239-6.16 8.504a23.15 23.15 0 0 1-10.058 5.465c-5.621 1.441-10.434 2.164-14.422 2.164-5.426 0-9.336-1.34-11.664-4-3.692-4.223-2.215-10.355-1.492-12.582-3.786-.809-6.497-.012-7.875 2.328-.618 1.043-.887 2.317-.758 3.59l.836 8.617a3.564 3.564 0 0 1-2.805 3.832l-.914.195c-.242.024-.5.051-.746.051m8.683-26.152c-1.53 0-3.097.246-4.605.875-3.524 1.48-6.031 4.824-7.461 9.969a6.1 6.1 0 0 0-.14 2.586l1.53 9.492c.09.554.387 1.031.848 1.351a1.96 1.96 0 0 0 1.559.309l.914-.191a2.02 2.02 0 0 0 1.582-2.176l-.836-8.617c-.156-1.621.18-3.192.965-4.528 1.297-2.21 4.164-4.488 10.418-2.843a.73.73 0 0 1 .488.398.8.8 0 0 1 .027.633c-.027.074-2.933 7.422.938 11.832 1.594 1.828 4.168 2.945 7.629 3.32 4.297.461 9.98-.195 16.902-1.969 6.676-1.71 11.793-6.136 15.215-13.16 3.473-7.125 3.86-14.148 3.898-16.129.079-4.297-1.374-8.375-4.101-11.476-2.625-2.996-6.074-4.746-10.254-5.207-3.152-.348-5.555.203-5.582.218a1 1 0 0 1-.168.024c-3.445.055-5.992 1.43-7.602 4.078a10.8 10.8 0 0 0-1.414 4.066c.696 12.438-4.015 16.926-4.671 17.493-3.512 4.144-6.637 2.316-7.165 1.957-.359-.207-4.398-2.305-8.914-2.305m0 0" fill="#00adef" data-color="1"/>
        </g>
        <path d="M25.184 49.664c-2.29 0-4.657-.73-7.047-2.2a.77.77 0 0 1-.258-1.054.77.77 0 0 1 1.055-.258c6.972 4.258 11.628.45 12.875-.824.285-.281.593-.578.914-.898 8.476-8.067 5.12-16.504 5.082-16.582a.76.76 0 0 1 .41-1.004.76.76 0 0 1 1.004.426c.039.101.988 2.43.785 5.867-.195 3.136-1.43 7.843-6.227 12.426-.32.308-.617.59-.886.874a11.25 11.25 0 0 1-4.914 2.868c-.903.23-1.84.36-2.793.36m0 0" fill="#00adef" data-color="1"/>
        <path d="M34.008 24.902h-.063c-.156-.011-3.87-.332-7.511-3.136-2.137-1.649-3.797-3.797-4.954-6.407-1.414-3.214-2.03-7.14-1.84-11.656a3.45 3.45 0 0 1 .837-2.094l.23-.273a3.47 3.47 0 0 1 3.102-1.18l2.097.282a3.49 3.49 0 0 1 2.946 2.792c.062.36.074.73.023 1.106-.281 2.133-.64 9.441 6.82 13.453a.769.769 0 1 1-.734 1.352c-3.602-1.93-5.98-4.797-7.09-8.489-.871-2.933-.652-5.547-.527-6.535a2 2 0 0 0-.012-.617 1.94 1.94 0 0 0-1.633-1.559l-2.097-.28a1.92 1.92 0 0 0-1.723.655l-.23.27a1.92 1.92 0 0 0-.465 1.156c-.336 7.68 1.738 13.313 6.125 16.735 3.277 2.546 6.726 2.87 6.75 2.87.425.04.746.41.707.837a.76.76 0 0 1-.758.718m0 0" fill="#00adef" data-color="1"/>
        <path d="M41.379 57.473c-.461 0-.914-.078-1.352-.246-.062-.024-.14-.051-.203-.075-1.289-.554-2.199-1.789-2.383-3.254-.152-1.261-.718-2.035-1.722-2.343a2.97 2.97 0 0 0-2.043.117l-6.395 2.664a.766.766 0 0 1-1.004-.414.763.763 0 0 1 .414-1.004l6.391-2.66a4.56 4.56 0 0 1 3.113-.168c1.106.36 2.496 1.273 2.778 3.625.117.914.672 1.687 1.453 2.02.054.027.105.038.144.066.86.32 1.864.101 2.559-.578l5.066-4.965c.465-.465.492-1.2.067-1.688l-.813-.925a1.2 1.2 0 0 0-.847-.41 1.23 1.23 0 0 0-.887.308c-1.121 1.004-2.871.926-3.887-.18l-.86-.925a2.78 2.78 0 0 1-.734-1.997 2.75 2.75 0 0 1 .903-1.93l1.144-1.038c.293-.274.45-.684.383-1.082l-.293-2.07a.767.767 0 0 1 .656-.876.77.77 0 0 1 .875.657l.293 2.07a2.75 2.75 0 0 1-.875 2.43l-1.144 1.043a1.2 1.2 0 0 0-.399.847c-.011.336.106.645.32.89l.864.927c.45.488 1.223.527 1.723.074a2.76 2.76 0 0 1 2.007-.707c.746.039 1.43.375 1.918.926l.809.93a2.76 2.76 0 0 1-.14 3.804L44.21 56.3a4 4 0 0 1-2.832 1.172m0 0" fill="#00adef" data-color="1"/>
    </g>
</svg>
