<?xml version="1.0" encoding="UTF-8"?>
<svg data-bbox="0.698 1.125 68.002 76.938" height="105" viewBox="0 0 69.75 78.75" width="93" xmlns="http://www.w3.org/2000/svg" data-type="color">
    <g>
        <defs>
            <clipPath id="c1f75b4b-74d6-4432-88ba-2adca40f4acb">
                <path d="M12 54h21v24.484H12Zm0 0"/>
            </clipPath>
            <clipPath id="869ee6e2-933b-4b13-b6db-f0a20d29593e">
                <path d="M37 54h21v24.484H37Zm0 0"/>
            </clipPath>
        </defs>
        <g clip-path="url(#c1f75b4b-74d6-4432-88ba-2adca40f4acb)">
            <path d="M32.14 71.375s2.27 7.063-6.206 6.672c-4.825 0-9.93-5.106-11.914-9.36-1.985-4.253-1.614-14.468-1.614-14.468s7.914 4.12 14.27 2.629c.394 10.136 5.465 14.527 5.465 14.527m0 0" fill="#00adef" data-color="1"/>
        </g>
        <g clip-path="url(#869ee6e2-933b-4b13-b6db-f0a20d29593e)">
            <path d="M37.375 71.375s-2.273 7.063 6.203 6.672c4.824 0 9.93-5.106 11.914-9.36 1.988-4.253 1.613-14.468 1.613-14.468s-7.914 4.12-14.265 2.629c-.395 10.136-5.465 14.527-5.465 14.527m0 0" fill="#00adef" data-color="1"/>
        </g>
        <path d="M65.79 31.238 49.96 23.75a21 21 0 0 0-3.39-1.3 22 22 0 0 0-2.03-1.243q.73-.902 1.28-1.922a12.4 12.4 0 0 0 1.387-4.387q.136-1.148.055-2.308-.076-1.153-.375-2.277a12.3 12.3 0 0 0-1.977-4.149q-.686-.937-1.535-1.726a12 12 0 0 0-1.828-1.41 12.3 12.3 0 0 0-2.059-1.048 12.4 12.4 0 0 0-2.218-.64 12 12 0 0 0-2.297-.215 12.3 12.3 0 0 0-4.52.855 12.4 12.4 0 0 0-3.887 2.457 12 12 0 0 0-1.53 1.727 12 12 0 0 0-1.184 1.98 12.3 12.3 0 0 0-.797 2.169q-.293 1.124-.375 2.277-.077 1.16.058 2.308.137 1.153.485 2.258a12.4 12.4 0 0 0 2.18 4.051L3.831 29.285a5.2 5.2 0 0 0-1.652 1.113 5 5 0 0 0-.63.778 5.2 5.2 0 0 0-.758 1.84 5 5 0 0 0-.093.996q-.001.504.098.996.1.493.289.957l.09.207q.194.467.476.883a5 5 0 0 0 1.414 1.398q.419.282.883.469.465.194.957.289a5 5 0 0 0 1.992-.004q.494-.094.957-.289l5.708-2.39a29.4 29.4 0 0 0-1.145 8.183c-.582 6.95 22.555 7.8 22.555 7.8s23.949 0 22.558-7.8c0-2.148-.226-4.27-.687-6.371l4.476 2.328c.305.145.617.254.946.336q.485.122.988.144.503.025 1-.05a5.2 5.2 0 0 0 1.875-.668 5.2 5.2 0 0 0 1.476-1.336q.3-.405.516-.856l.098-.207c.14-.3.254-.617.332-.941q.122-.486.144-.988a5 5 0 0 0-.05-.997 5.2 5.2 0 0 0-.668-1.875 5.2 5.2 0 0 0-1.332-1.476q-.405-.3-.856-.516m0 0" fill="#00adef" data-color="1"/>
    </g>
</svg>
