<?xml version="1.0" encoding="UTF-8"?>
<svg data-bbox="0 9.156 63.778 72.527" height="110" viewBox="0 0 65.25 82.5" width="87" xmlns="http://www.w3.org/2000/svg" data-type="color">
    <g>
        <defs>
            <clipPath id="53b492c2-42ac-4e84-93cd-8bc9f6c911f1">
                <path d="M0 9h63.766v72.652H0Zm0 0"/>
            </clipPath>
        </defs>
        <g clip-path="url(#53b492c2-42ac-4e84-93cd-8bc9f6c911f1)">
            <path d="m32.988 81.563-31.11.007C.548 81.582.009 81.188 0 79.715l.031-3.953c.16-2.64.633-5.274 1.32-7.828C3.646 59.41 7.954 55.418 16.427 52.87l3.105-.867c.742-.195 1.512-.363 2.23-.637 1.036-.394 1.415-2.328.817-3.031l-.613-.734c-.883-1.133-1.707-2.454-2.219-3.797l-.273-.797c-.223-.715-.512-.649-1.04-1.125-2.109-1.914-4.242-8.625-.726-9.973-.035-.34-.2-.715-.277-1.055-.317-1.347-.383-2.648-.438-4.023l-.527-8.707c-.14-2.793.187-3.457 2.476-4.871 3.664-2.262 7.778-3.844 12.098-4.082 4.785-.188 9.422 1.441 13.496 3.879 2.942 1.758 3.035 2.504 2.75 5.61l-.195 2.487-.168 4.891-.281 2.965c-.082.594-.2 1.183-.38 1.758-.304.968-.585.742.141 1.164 3.133 1.804.961 8.316-1.406 10.215l-.453.343c-.328.243-.305.48-.414.868-.387 1.41-1.168 2.753-2.016 3.93-.75 1.046-1.191.906-1.09 2.171.141 1.719.649 1.906 2.196 2.274l1.68.41c4.37 1.144 9.023 2.699 12.292 5.976 5.2 5.211 6.582 13.809 6.586 20.926 0 2.16.016 2.523-2.222 2.523l-13.668.012c-.575.012-1.13.11-1.707.11l-2.235-.02c-.367-.016-.722-.09-1.093-.094ZM31.645 11.52c-3.766.035-9.852 2.16-12.844 4.699 0 1.523.176 3.039.277 4.558l.363 7.668c.008.43.02.934.149 1.34.25-.437.465-.89.75-1.308 1.418-2.11 4.086-3.149 6.57-2.676l1.332.203c1.473.266 2.371.422 3.863.437 3.942-.074 7.098-2.277 10.735 1.262a8.1 8.1 0 0 1 1.46 1.977l.708-13.426c-.547-.586-1.403-1.02-2.102-1.406-2.785-1.547-6.773-3.192-10.035-3.313Zm5.914 16.496c-2.38.25-4.797 1.238-7.29.718l-1.792-.308c-1.09-.211-2.348-.512-3.457-.32-2.25.39-3.602 2.484-4.051 4.585-.16.75.215 1.54-.543 2.07-.965.676-1.469-.445-1.996-.671-1 .754.734 4.969 1.328 5.71.441.552 1.222.755 1.617 1.348.21.32.29.805.406 1.168.88 2.723 3.215 5.5 5.461 7.293 4.055 3.082 7.418 2.16 10.801-1.277 1.625-1.648 3.105-3.527 3.848-5.746.144-.434.199-.945.41-1.344.488-.933 1.55-.836 2.273-2.418.45-.988 1.516-3.82.676-4.722-.242.23-.52.605-.816.738l-.047.023c-.438.18-1.18-.02-1.367-.492-.16-.414-.02-.965-.083-1.402-.242-1.754-1.57-3.692-3.148-4.477-.594-.297-1.559-.625-2.23-.476M24.89 50.66l.007.035c.106.438.102.934.141 1.387.293 3.223 1.035 3.766 3.84 5.023 2.664 1.2 3.953 1.024 6.476-.078 1.715-.746 2.204-.84 2.774-2.613.312-.992.71-2.453.644-3.516-4.28 3.954-9.668 3.97-13.882-.238m15.914 2.938c-.145 1.21-.551 2.28-.97 3.418l-.784 2.316-5.715 19.184c-.047.203-.05.492-.156.664h28.218c-.003-.961.036-1.946-.02-2.903-.28-4.78-1.55-10.629-4.284-14.566-2.14-2.938-5.133-4.82-8.559-6l-2.015-.633c-.45-.137-.922-.266-1.352-.46 1.8 2.694 1.781 4.96 2.187 8.073l.68 4.528c.106.773-.2.84.418 1.062 3.48 1.258 3.332 6.965-.808 7.469l-.075.008c-4.84.597-5.886-6.172-1.777-7.406-.168-.801-.266-1.63-.39-2.442l-.926-6.836c-.106-.629-.23-1.277-.493-1.863-.414-.922-2.289-2.98-3.18-3.613m-17.957.218c-.61.836-1.387 1.547-2.008 2.383-1.809 2.426-1.953 5.305-1.98 8.196 2.902.668 5.07 2.937 5.038 6.03-.07 7.438-10.34 8.302-11.93 1.477-.718-3.066 1.083-6.394 4.13-7.312l.332-.125c.078-3.39.265-7.008 2.472-9.817-3.582.97-7.41 2.204-10.195 4.766-4.016 3.492-5.613 9.941-6.11 15.008l-.202 4.754 28.265-.047c-.094-.176-.101-.45-.148-.649l-4.614-15.43-2.73-8.144c-.11-.36-.184-.742-.32-1.09m4.265 4.98 4.528 14.743c.078.254.152.676.308.89l1.363-4.495 3.329-10.86c-2.426 1.074-4.793 1.739-7.34.746Zm-9.715 8.009c-4.558.648-4.054 7.73.887 7.347 3.219-.515 4.387-4.742 1.613-6.699-.675-.476-1.671-.781-2.5-.648m29.465 3.77c-1.867.417-1.625 2.91.43 2.82 1.988-.407 1.457-2.918-.43-2.82m0 0" fill="#00adef" data-color="1"/>
        </g>
        <path d="M31.922 23.844c-1.238.015-1.238-1.102-1.238-2.016v-1.723l-1.536-.007c-.425 0-.882.039-1.285-.118l-.066-.027c-.754-.289-1.277-1.055-.613-1.777.523-.57 1.414-.512 2.117-.516l1.387-.008-.008-1.41c0-1.008-.07-2.113 1.148-2.355 1.297.039 1.285 1.363 1.29 2.343v1.426l1.55-.008c.395 0 .914-.058 1.273.122l.051.027c1.004.512 1.176 1.851-.05 2.265l-.063.02c-.344.113-.793.035-1.152.031l-1.614-.004c-.082 1.395.516 3.403-1.191 3.735m0 0" fill="#00adef" data-color="1"/>
    </g>
</svg>
