<?xml version="1.0" encoding="UTF-8"?>
<svg data-bbox="0.331 0.889 75.494 74.763" height="102" viewBox="0 0 77.25 76.5" width="103" xmlns="http://www.w3.org/2000/svg" data-type="color">
    <g>
        <defs>
            <clipPath id="6af02562-32ed-4b3f-a023-1867437fc5b6">
                <path d="M0 .121h76v75.762H0Zm0 0"/>
            </clipPath>
            <clipPath id="d06762ff-bf92-4d60-bc2b-eaf3f923d99f">
                <path d="M55 58h11v17.883H55Zm0 0"/>
            </clipPath>
        </defs>
        <path d="M35.887 64.645h-7.024a.887.887 0 0 1-.883-.883v-8.348c0-.867.016-1.766.06-2.766.046-1.238.116-2.488.19-3.707.133-2.238.25-4.566.239-6.816a22.2 22.2 0 0 0-1.473-7.684c-1.371-3.62-2.738-7.902-3.652-10.859-.633-2.047-1.707-4.004-3.207-5.828q-1.324-1.634-1.059-3.227c.383-2.191 2.988-3.957 7.977-5.386a40.15 40.15 0 0 1 21.972 0c4.989 1.43 7.61 3.18 7.977 5.386v.032c.18 1.043-.176 2.132-1.059 3.207-1.5 1.828-2.574 3.785-3.207 5.828-.547 1.754-1.074 3.46-1.605 5.035a.875.875 0 0 1-1.117.558.88.88 0 0 1-.563-1.117 218 218 0 0 0 1.59-5.004c.707-2.265 1.887-4.43 3.52-6.433.542-.66.78-1.281.69-1.809v-.015c-.148-.809-1.237-2.399-6.726-3.973a38.3 38.3 0 0 0-21.004 0c-5.53 1.574-6.593 3.164-6.722 3.988-.09.528.129 1.149.691 1.809 1.633 2.004 2.824 4.168 3.516 6.433.898 2.93 2.265 7.18 3.62 10.758a23.5 23.5 0 0 1 1.575 8.301c.016 2.313-.117 4.664-.234 6.934-.074 1.207-.133 2.457-.192 3.68a60 60 0 0 0-.058 2.69v7.462h6.136c.485 0 .883.398.883.882 0 .489-.367.872-.851.872m0 0" fill="#00adef" data-color="1"/>
        <path d="M47.246 64.645h-7.02a.887.887 0 0 1-.882-.883c0-.489.398-.883.883-.883h6.136v-7.465c0-.836-.015-1.719-.058-2.691v-.075c-.235-5.886.222-11.671 1.324-17.207.547-2.734 1.121-5.074 1.723-6.96a.86.86 0 0 1 .117-.41l.09-.176a.89.89 0 0 1 1.132-.383c.41.175.633.644.485 1.086-.633 1.886-1.235 4.3-1.809 7.183-1.074 5.387-1.515 11.04-1.297 16.778v.09c.047.984.059 1.898.059 2.753v8.344a.88.88 0 0 1-.883.899m0 0" fill="#00adef" data-color="1"/>
        <g clip-path="url(#6af02562-32ed-4b3f-a023-1867437fc5b6)">
            <path d="M38.063 75.652A3.06 3.06 0 0 1 35 72.59V31.367a6.5 6.5 0 0 0-1-3.504c-.367-.558-.691-1.25-.969-2.031a7.6 7.6 0 0 1-.37-1.633c0-.043-.013-.09-.013-.117v-.016a6.38 6.38 0 0 0-3.976-5.152l-.617-.25c-1.09-.426-2.18-.676-3.223-.734-.074 0-.164-.016-.234-.016-2.02-.176-3.887-1.117-5.285-2.648a8.3 8.3 0 0 1-.973-1.282c-1.59-2.574-2.559-4.578-2.883-5.976-.223-.926-.605-1.75-1.121-2.426a9 9 0 0 0-.719-.84c-1.855-1.87-4.137-2.515-6.46-1.812-2.313.707-4.18 2.605-4.813 4.828L10.91 13c.012.012.027.012.043.027a3.89 3.89 0 0 1 1.676 3.196 3.9 3.9 0 0 1-.586 2.043 3.87 3.87 0 0 1-3.094 1.812 3.85 3.85 0 0 1-3.25-1.515l-.176-.223a37 37 0 0 0-2.605-3c-.148-.149-.281-.297-.414-.442C.738 12.878.016 10.453.457 8.055c0-.016 0-.032.016-.047.59-3.09 3.062-5.813 6.183-6.754 2.942-.899 5.946-.059 8.227 2.266.308.308.601.648.867.988.68.883 1.164 1.926 1.441 3.105.282 1.16 1.223 3.106 2.68 5.446.223.351.488.707.766 1.015a6.43 6.43 0 0 0 4.136 2.074c.059 0 .133.016.192.016 1.234.07 2.5.367 3.765.867l.622.25a8.12 8.12 0 0 1 5.078 6.594v.031c0 .028 0 .059.011.086v.031c.047.454.149.868.282 1.25.16.442.41 1.09.78 1.649.852 1.293 1.294 2.84 1.294 4.46v41.24a1.295 1.295 0 0 0 2.59 0V31.366c0-1.633.441-3.18 1.297-4.46.367-.56.617-1.208.78-1.65a6.5 6.5 0 0 0 .278-1.25v-.03c0-.028.016-.059.016-.102a8.13 8.13 0 0 1 5.078-6.61l.617-.25c1.266-.5 2.531-.792 3.77-.867.058 0 .129-.015.191-.015 1.559-.149 3.016-.883 4.121-2.074.278-.309.543-.649.762-1.016 1.445-2.355 2.402-4.285 2.68-5.445.28-1.18.765-2.223 1.441-3.106.266-.34.562-.68.871-.988C63.996.738 67.734.12 71.047 1.87c3.43 1.813 5.328 5.52 4.637 9.04-.282 1.41-.973 2.75-2.032 3.972a10 10 0 0 1-.414.441 37 37 0 0 0-2.605 3.004l-.176.219a3.85 3.85 0 0 1-3.062 1.515 3.82 3.82 0 0 1-3.266-1.808 3.843 3.843 0 0 1 1.09-5.227c.074-.043.144-.086.219-.101l8.582-2.84c.277-2.606-1.223-5.27-3.797-6.64-2.637-1.4-5.504-.91-7.684 1.312-.266.262-.5.543-.723.836-.515.68-.894 1.504-1.117 2.43-.324 1.382-1.297 3.386-2.883 5.976a8.6 8.6 0 0 1-.972 1.281c-1.399 1.516-3.27 2.457-5.27 2.633-.09 0-.16.016-.25.016-1.047.058-2.133.308-3.222.734l-.618.25a6.42 6.42 0 0 0-3.992 5.168c0 .027-.012.074-.012.133a7 7 0 0 1-.367 1.633c-.281.78-.605 1.472-.972 2.03-.664 1-1 2.208-1 3.505V72.62c-.016 1.664-1.387 3.031-3.078 3.031m28.023-61.109a2.09 2.09 0 0 0-.5 2.77 2.07 2.07 0 0 0 1.781.984c.66 0 1.266-.293 1.664-.824l.176-.223a35 35 0 0 1 2.738-3.148 7 7 0 0 0 .352-.383c.441-.5.808-1.031 1.09-1.574ZM2.094 9.688c.058 1.414.644 2.796 1.734 4.03.106.118.223.25.356.384 1.074 1.105 1.972 2.132 2.738 3.148l.176.223a2.06 2.06 0 0 0 1.765.824 2.08 2.08 0 0 0 1.676-.985c.207-.34.324-.722.324-1.105 0-.691-.336-1.324-.898-1.723Zm0 0" fill="#00adef" data-color="1"/>
        </g>
        <path d="M40.242 71.074h-4.355a.885.885 0 0 1-.887-.883c0-.484.398-.882.887-.882h4.355c.485 0 .883.398.883.882a.884.884 0 0 1-.883.883m0 0" fill="#00adef" data-color="1"/>
        <path d="M40.242 62.082h-4.355a.89.89 0 0 1-.887-.883c0-.484.398-.883.887-.883h4.355c.485 0 .883.399.883.883a.887.887 0 0 1-.883.883m0 0" fill="#00adef" data-color="1"/>
        <path d="M40.242 53.09h-4.355a.89.89 0 0 1-.887-.883c0-.484.398-.883.887-.883h4.355c.485 0 .883.399.883.883a.887.887 0 0 1-.883.883m0 0" fill="#00adef" data-color="1"/>
        <path d="M40.242 44.098h-4.355a.89.89 0 0 1-.887-.883c0-.485.398-.883.887-.883h4.355c.485 0 .883.398.883.883a.887.887 0 0 1-.883.883m0 0" fill="#00adef" data-color="1"/>
        <path d="M29.352 44.098h-.059a.89.89 0 0 1-.887-.883c0-.485.399-.883.887-.883h.059c.484 0 .882.398.882.883a.887.887 0 0 1-.882.883m0 0" fill="#00adef" data-color="1"/>
        <path d="M14.027 18.93c-1.601 0-2.867-.282-2.925-.293a.876.876 0 0 1-.665-1.063.873.873 0 0 1 1.06-.66c.058.016 6.491 1.398 7.64-2.504a.87.87 0 0 1 1.101-.586.87.87 0 0 1 .59 1.102c-.691 2.312-2.633 3.695-5.637 3.96-.41.028-.793.044-1.164.044m0 0" fill="#00adef" data-color="1"/>
        <path d="M63.055 18.754c-2.563 0-6.903-.516-7.758-3.871a.88.88 0 0 1 .648-1.074.88.88 0 0 1 1.075.648c.796 3.164 7.652 2.457 7.71 2.441a.891.891 0 0 1 .223 1.766c-.101 0-.855.09-1.898.09m0 0" fill="#00adef" data-color="1"/>
        <path d="M63.395 41.094h-5.786a.89.89 0 0 1-.87-.735l-1.485-8.949c-.016-.043-.016-.101-.016-.148 0-2.899 2.371-5.266 5.27-5.266s5.27 2.367 5.27 5.266c0 .047 0 .105-.016.148l-1.485 8.95a.89.89 0 0 1-.882.734m-5.036-1.766h4.297l1.356-8.125a3.51 3.51 0 0 0-3.504-3.43 3.51 3.51 0 0 0-3.504 3.43Zm0 0" fill="#00adef" data-color="1"/>
        <path d="M60.508 60.215a.887.887 0 0 1-.883-.883V40.211c0-.484.398-.883.883-.883.484 0 .883.399.883.883v19.121a.887.887 0 0 1-.883.883m0 0" fill="#00adef" data-color="1"/>
        <g clip-path="url(#d06762ff-bf92-4d60-bc2b-eaf3f923d99f)">
            <path d="M60.508 75.652c-2.574 0-4.664-2.09-4.664-4.652V59.332c0-.488.394-.887.883-.887h7.535c.484 0 .883.399.883.887V71c.015 2.563-2.075 4.652-4.637 4.652m-2.899-15.437V71a2.89 2.89 0 0 0 2.883 2.887h.016A2.89 2.89 0 0 0 63.395 71V60.215Zm0 0" fill="#00adef" data-color="1"/>
        </g>
    </g>
</svg>
