<?xml version="1.0" encoding="UTF-8"?>
<svg data-bbox="0.958 1.73 80.746 78.484" height="113" viewBox="0 0 83.25 84.75" width="111" xmlns="http://www.w3.org/2000/svg" data-type="color">
    <g>
        <defs>
            <clipPath id="8acc3c10-f130-4bba-9b24-482acd2b45ed">
                <path d="M0 1h81.762v80H0Zm0 0"/>
            </clipPath>
        </defs>
        <g clip-path="url(#8acc3c10-f130-4bba-9b24-482acd2b45ed)">
            <path d="M16.727 12.238a6.168 6.168 0 1 1 0 12.336 6.167 6.167 0 1 1 0-12.336m2.773 3.39c-2.46-2.46-6.695-.706-6.695 2.782 0 3.48 4.234 5.238 6.695 2.774a3.925 3.925 0 0 0 0-5.555m-2.773-9.413c6.734 0 12.199 5.46 12.199 12.195 0 6.727-5.461 12.192-12.2 12.192-1.66 0-3.242-.332-4.687-.934a30.17 30.17 0 0 0-4.535 20.68c.191 1.328.45 2.597.754 3.812a6.9 6.9 0 0 1 4.203-2.012c-3.145-4.808.305-11.265 6.105-11.265s9.254 6.457 6.102 11.265c.766.079 1.5.282 2.172.586-.723-4.437 2.7-8.468 7.195-8.468 4.496 0 7.914 4.03 7.188 8.468a7 7 0 0 1 2.175-.586c-3.148-4.808.305-11.265 6.102-11.265 5.8 0 9.254 6.457 6.102 11.27a6.9 6.9 0 0 1 4.84 2.742 29.7 29.7 0 0 0 1.374-6.77 1.12 1.12 0 0 1-.843-.93l-1.356-5.64c-6.84-2.332-11.453-8.887-11.277-16.176.027-1 .613-1.875 1.496-2.274l-1.324-12.27c-.102-.972.304-1.858 1.058-2.452l3.325-2.707a4.38 4.38 0 0 1 1.265-2.653c2.77-2.765 7.516-.796 7.516 3.114 0 3.039-3.004 5.156-5.852 4.164l-1.746 1.422 1.274 11.773a2.54 2.54 0 0 1 1.613 2.36c.043 4.335 3.59 7.917 7.965 7.956a8.045 8.045 0 0 0 8.132-7.8 2.55 2.55 0 0 1 1.649-2.325l1.254-11.964L74.21 10.3c-2.844.992-5.844-1.125-5.844-4.164 0-3.91 4.746-5.88 7.516-3.114a4.4 4.4 0 0 1 1.265 2.653l3.32 2.707c.759.594 1.169 1.48 1.063 2.453l-1.31 12.56a2.55 2.55 0 0 1 1.484 2.324c.027 7.176-4.578 13.539-11.277 15.836l-1.383 5.738c-.11.473-.508.805-.965.852-.894 12.199-7.457 22.164-17.797 27.738C36 83.582 17.266 81.176 7.477 67.387c-3.032-4.27-5.215-9.637-6.149-16.16a36.4 36.4 0 0 1 5.746-25.372c-3.754-4.851-3.3-11.738 1.031-16.074a12.17 12.17 0 0 1 8.622-3.566m-6.672 22.398q-.739-.487-1.403-1.074A34.05 34.05 0 0 0 3.547 50.91c1.625 11.317 7.469 20.31 17.413 24.606 9.016 3.89 19.68 3.02 28.262-1.606 9.617-5.183 15.722-14.418 16.609-25.754h-1.77C63.196 58.75 57.466 67.47 48.392 72.36c-.672.36-2.121 1.079-2.813 1.34a33 33 0 0 1-4.86 1.598 1 1 0 0 1-.195.047c-1.824.43-3.687.707-5.558.812-9.524.555-18.676-3.215-24.297-11.219C7.727 60.75 6.031 55.84 5.285 50.66a32.32 32.32 0 0 1 4.77-22.047m13.707-17.238c-3.883-3.89-10.18-3.89-14.067 0-3.886 3.883-3.886 10.18 0 14.066s10.184 3.887 14.067 0 3.883-10.183 0-14.066M9.05 56.809a28 28 0 0 0 2.074 4.644 1.117 1.117 0 0 1 1.121-1.023c.617 0 1.117.5 1.117 1.12v3.255a23.6 23.6 0 0 0 8.356 6.656v-9.074a6.896 6.896 0 0 1 5.48-6.735 4.6 4.6 0 0 0-3.195-1.289h-1.602a7.25 7.25 0 0 1-3.836 1.09 7.25 7.25 0 0 1-3.836-1.09H13.13a4.64 4.64 0 0 0-4.078 2.446m14.914 15.59q1.29.462 2.62.788v-8.246a1.122 1.122 0 1 1 2.247 0v8.7c3.441.535 6.988.414 10.402-.301v-8.4a1.122 1.122 0 1 1 2.246 0v7.832a30 30 0 0 0 2.622-.89v-9.5a4.65 4.65 0 0 0-4.633-4.633h-1.602a7.25 7.25 0 0 1-3.836 1.09 7.24 7.24 0 0 1-3.836-1.09h-1.597c-2.543 0-4.633 2.086-4.633 4.633Zm22.383-1.512q.494-.236.976-.5a28.1 28.1 0 0 0 7.38-5.711v-3.121a1.122 1.122 0 1 1 2.245 0v.328c.266-.383.528-.774.77-1.176.61-.973 1.16-1.992 1.648-3.066a4.65 4.65 0 0 0-1.543-2.262 4.6 4.6 0 0 0-2.886-1.012h-1.602a7.25 7.25 0 0 1-3.836 1.09 7.26 7.26 0 0 1-3.836-1.09h-1.602a4.62 4.62 0 0 0-3.195 1.285c3.149.657 5.48 3.457 5.48 6.735ZM72.766 3.984c-1.918 0-2.88 2.325-1.524 3.684 1.36 1.355 3.688.39 3.688-1.527a2.165 2.165 0 0 0-2.164-2.157m3.902 4.204a4.7 4.7 0 0 1-.531.789l1.71 1.39c.305.25.446.625.407.985L77 23.367l.977-.101L79.3 10.602a.47.47 0 0 0-.192-.438c-.816-.64-1.629-1.309-2.441-1.976m-.79 17.546c-.206.024-.57 0-.577.344-.164 5.582-4.762 10.027-10.387 9.973-5.61-.051-10.129-4.617-10.184-10.176a.33.33 0 0 0-.285-.316l-3.535-.446a.326.326 0 0 0-.332.317c-.156 6.504 4.102 12.328 10.297 14.175v.004c.371.11.676.41.77.809l1.316 5.492h4.113l1.301-5.406c.07-.41.363-.77.793-.899a14.5 14.5 0 0 0 7.457-5.242 14.37 14.37 0 0 0 2.84-8.64c-.008-.192-.16-.328-.32-.317ZM53.907 8.977a4.4 4.4 0 0 1-.531-.79c-.812.668-1.625 1.34-2.45 1.977a.46.46 0 0 0-.183.438l1.336 12.406.98.12-1.273-11.773a1.13 1.13 0 0 1 .41-.984Zm4.89-4.364c-1.355-1.355-3.679-.39-3.679 1.528s2.324 2.882 3.68 1.527a2.16 2.16 0 0 0 0-3.055M37.599 47.988a5.04 5.04 0 0 0-7.13 0c-2.234 2.23-1.882 5.93.696 7.711 3.336 2.305 7.914-.074 7.914-4.144a5.02 5.02 0 0 0-1.48-3.567M49.5 43.121a5.04 5.04 0 0 0-5.04 5.043c0 4.066 4.575 6.457 7.911 4.148 2.574-1.78 2.926-5.484.691-7.71a5.03 5.03 0 0 0-3.562-1.48m-27.371 1.48a5.04 5.04 0 0 0-7.129 0c-2.234 2.235-1.879 5.93.695 7.712 3.336 2.312 7.91-.086 7.91-4.145a5.02 5.02 0 0 0-1.476-3.566m8.996-20.496h6.16c.621 0 1.121.508 1.121 1.125v3.782h3.79c.62 0 1.124.504 1.124 1.125V36.3c0 .62-.508 1.125-1.125 1.125h-3.789v3.781c0 .621-.5 1.121-1.12 1.121h-6.161A1.12 1.12 0 0 1 30 41.207v-3.781h-3.785A1.125 1.125 0 0 1 25.09 36.3v-6.164c0-.621.508-1.125 1.125-1.125H30V25.23c0-.62.5-1.125 1.125-1.125m5.04 2.247h-3.923v3.785c0 .62-.5 1.12-1.117 1.12h-3.79v3.919h3.79c.621 0 1.117.508 1.117 1.125v3.785h3.922V36.3c0-.617.504-1.125 1.121-1.125h3.79v-3.918h-3.79c-.617 0-1.12-.5-1.12-1.121Zm0 0" fill="#00adef" data-color="1"/>
        </g>
    </g>
</svg>
