<svg width="48" height="48" viewBox="0 0 48 48" fill="none" xmlns="http://www.w3.org/2000/svg">
<path fill-rule="evenodd" clip-rule="evenodd" d="M23.9963 5.61328C34.1319 5.61328 42.3792 13.8573 42.3792 23.9931C42.3792 34.1283 34.1325 42.3792 23.9963 42.3792C13.86 42.3792 5.61328 34.129 5.61328 23.9931C5.61328 13.8566 13.8606 5.61328 23.9963 5.61328ZM29.2542 11.6467C29.2542 10.4856 28.3098 9.54028 27.1486 9.54028H20.8433C19.6821 9.54028 18.7383 10.4856 18.7383 11.6467V18.7365H11.6502C10.489 18.7365 9.54396 19.6812 9.54396 20.8429V27.1433C9.54396 28.3044 10.489 29.2497 11.6502 29.2497H18.7383V36.3395C18.7383 37.5006 19.6821 38.4459 20.8433 38.4459H27.1486C28.3098 38.4459 29.2542 37.5006 29.2542 36.3395V29.2497H36.3423C37.5035 29.2497 38.4473 28.3044 38.4473 27.1433V20.8429C38.4473 19.6818 37.5035 18.7365 36.3423 18.7365H29.2542V11.6467Z" fill="white"/>
<path fill-rule="evenodd" clip-rule="evenodd" d="M37.2859 27.1607C37.2859 27.6366 36.9012 28.0242 36.4275 28.0242H28.7592C28.358 28.0242 28.0324 28.3496 28.0324 28.7499V36.4208C28.0324 36.8961 27.6464 37.278 27.1733 37.278H20.8264C20.3527 37.278 19.9679 36.8961 19.9679 36.4208V28.7499C19.9679 28.3496 19.6424 28.0242 19.2405 28.0242H11.5728C11.0991 28.0242 10.7131 27.6366 10.7131 27.1607V20.8166C10.7131 20.3413 11.0991 19.953 11.5728 19.953H19.2405C19.6424 19.953 19.9679 19.6277 19.9679 19.2274V11.5565C19.9679 11.0812 20.3527 10.6993 20.8264 10.6993H27.1733C27.6464 10.6993 28.0324 11.0812 28.0324 11.5565V19.2274C28.0324 19.6277 28.358 19.953 28.7592 19.953H36.4275C36.9012 19.953 37.2859 20.3413 37.2859 20.8166V27.1607ZM24.7709 0H23.2301C17.1089 0.191899 11.3827 2.66625 7.03317 7.01384C-2.34693 16.3953 -2.34185 31.5801 7.03317 40.9634C16.4069 50.3449 31.5934 50.3462 40.9678 40.9634C50.3415 31.5807 50.3466 16.3953 40.9678 7.01384C36.617 2.66625 30.8907 0.191899 24.7709 0ZM36.4275 18.5017H29.4867V11.5565C29.4867 10.2799 28.4489 9.24165 27.1733 9.24165H20.8264C19.5508 9.24165 18.5136 10.2799 18.5136 11.5565V18.5017H11.5728C10.2972 18.5017 9.25881 19.54 9.25881 20.8166V27.1607C9.25881 28.4373 10.2972 29.4756 11.5728 29.4756H18.5136V36.4208C18.5136 37.6973 19.5508 38.7356 20.8264 38.7356H27.1733C28.4489 38.7356 29.4867 37.6973 29.4867 36.4208V29.4756H36.4275C37.7031 29.4756 38.7402 28.4373 38.7402 27.1607V20.8166C38.7402 19.54 37.7031 18.5017 36.4275 18.5017ZM24.0002 42.3086C34.0963 42.3086 42.3102 34.0868 42.3102 23.9886C42.3102 13.8904 34.0963 5.675 24.0002 5.675C13.9034 5.675 5.69016 13.8904 5.69016 23.9886C5.69016 34.0868 13.9034 42.3086 24.0002 42.3086ZM24.0002 4.21733C13.1015 4.21733 4.23586 13.0892 4.23586 23.9886C4.23586 34.8945 13.1015 43.76 24.0002 43.76C34.8982 43.76 43.7645 34.8945 43.7645 23.9886C43.7645 13.0892 34.8982 4.21733 24.0002 4.21733ZM24.0002 46.538C36.4294 46.538 46.5408 36.4208 46.5408 23.9886C46.5408 11.5565 36.4294 1.43924 24.0002 1.43924C11.5716 1.43924 1.45891 11.5565 1.45891 23.9886C1.45891 36.4208 11.5709 46.538 24.0002 46.538Z" fill="#10B2F0"/>
</svg>
