<svg width="32" height="52" viewBox="0 0 32 52" fill="none" xmlns="http://www.w3.org/2000/svg">
<mask id="mask0_1509_79035" style="mask-type:luminance" maskUnits="userSpaceOnUse" x="0" y="0" width="32" height="43">
<path d="M0 0H32V42.56H0V0Z" fill="white"/>
</mask>
<g mask="url(#mask0_1509_79035)">
<path d="M19.0156 42.4034C18.9623 42.4028 18.9091 42.3984 18.8564 42.3884C18.8044 42.3784 18.7531 42.3639 18.7029 42.3445C18.6528 42.3251 18.6052 42.3019 18.5601 42.2737C18.5143 42.2456 18.4717 42.2136 18.4323 42.1779C18.3928 42.1416 18.3565 42.1027 18.3239 42.0601C18.2919 42.0175 18.2637 41.9724 18.2393 41.9248C18.2155 41.8772 18.1961 41.8277 18.181 41.7764C18.166 41.725 18.156 41.673 18.1503 41.6198C18.1453 41.5665 18.1447 41.5133 18.1491 41.46C18.1534 41.4068 18.1628 41.3541 18.1773 41.3028C18.1917 41.2514 18.2105 41.2013 18.2336 41.1531C18.2568 41.1055 18.2844 41.0597 18.3164 41.0165C18.3477 40.9739 18.3834 40.9338 18.4222 40.8975C18.4617 40.8611 18.5037 40.8286 18.5488 40.7998C18.5939 40.7709 18.6409 40.7465 18.691 40.7265C18.7405 40.7064 18.7913 40.6914 18.8439 40.6807C25.4459 39.3421 30.2372 33.4781 30.2372 26.7377V6.90885C30.2372 6.73972 30.2284 6.57058 30.2121 6.40208C30.1952 6.23357 30.1701 6.06631 30.1369 5.90093C30.1037 5.73493 30.0624 5.57081 30.0135 5.40856C29.964 5.24695 29.907 5.08783 29.8418 4.93123C29.7773 4.77525 29.7046 4.6224 29.625 4.47331C29.5448 4.32422 29.4577 4.17889 29.3638 4.03857C29.2691 3.89762 29.1689 3.76169 29.0611 3.63077C28.9534 3.50047 28.84 3.37518 28.7203 3.25554C28.6006 3.13589 28.4747 3.02188 28.3437 2.91476C28.2128 2.80764 28.0768 2.70679 27.9365 2.61282C27.7955 2.51823 27.6501 2.43179 27.501 2.3516C27.3513 2.27205 27.1984 2.19938 27.0424 2.13486C26.8857 2.06971 26.726 2.01271 26.5643 1.96385C26.402 1.91436 26.2379 1.87301 26.0718 1.83981C25.9058 1.80661 25.7385 1.78218 25.57 1.76527C25.4008 1.74836 25.2323 1.74021 25.0625 1.73959H6.92434C6.75517 1.74021 6.586 1.74836 6.41746 1.76527C6.24892 1.78218 6.08163 1.80661 5.91496 1.83981C5.74893 1.87301 5.58477 1.91436 5.42312 1.96385C5.26084 2.01271 5.1017 2.06971 4.94506 2.13486C4.78842 2.19938 4.63554 2.27205 4.48642 2.3516C4.33668 2.43179 4.19131 2.51823 4.05097 2.61282C3.90999 2.70679 3.77403 2.80764 3.64308 2.91476C3.51213 3.02188 3.38682 3.13589 3.26715 3.25554C3.14685 3.37518 3.03344 3.50047 2.92568 3.63077C2.81853 3.76169 2.71766 3.89762 2.62368 4.03857C2.52907 4.17889 2.44198 4.32422 2.3624 4.47331C2.2822 4.6224 2.21015 4.77525 2.14499 4.93123C2.07983 5.08783 2.02281 5.24695 1.97394 5.40856C1.92444 5.57081 1.88309 5.73493 1.84988 5.90093C1.81667 6.06631 1.79161 6.23357 1.77532 6.40208C1.7584 6.57058 1.74963 6.73972 1.74963 6.90885V26.7377C1.74963 33.4806 6.54027 39.3421 13.1435 40.6807C13.1987 40.6926 13.2525 40.7096 13.3052 40.7321C13.3572 40.754 13.4067 40.7816 13.4537 40.8135C13.5007 40.8455 13.5439 40.8818 13.5834 40.9225C13.6235 40.9633 13.6585 41.0071 13.6899 41.0547C13.7212 41.1017 13.7475 41.1518 13.7688 41.2044C13.7901 41.2571 13.8064 41.3116 13.8171 41.3673C13.8277 41.4231 13.8327 41.4788 13.8327 41.5358C13.8321 41.5928 13.8265 41.6486 13.8152 41.7043C13.8039 41.7601 13.7876 41.8139 13.7657 41.8666C13.7438 41.9186 13.7168 41.9687 13.6855 42.0157C13.6535 42.0626 13.6178 42.1065 13.5777 42.1466C13.537 42.1867 13.4938 42.2224 13.4461 42.2543C13.3992 42.2856 13.3497 42.3126 13.297 42.3345C13.2444 42.3564 13.1905 42.3727 13.1347 42.384C13.079 42.3953 13.0226 42.4009 12.9662 42.4015C12.9092 42.4015 12.8528 42.3965 12.797 42.3859C12.3497 42.2944 11.9073 42.1842 11.47 42.0551C11.032 41.9261 10.6003 41.7782 10.1755 41.6122C9.75073 41.4462 9.33344 41.2627 8.9243 41.061C8.51454 40.8593 8.1148 40.6406 7.72445 40.4045C7.33348 40.1689 6.95379 39.9165 6.58538 39.6484C6.21634 39.3797 5.8592 39.0959 5.5146 38.7971C5.16999 38.4983 4.83917 38.1851 4.52088 37.8581C4.20322 37.5311 3.89997 37.1909 3.61175 36.8376C3.32291 36.4843 3.04973 36.1197 2.79285 35.7432C2.53533 35.3668 2.29411 34.9796 2.07043 34.5831C1.84612 34.186 1.63936 33.78 1.44951 33.3653C1.26029 32.9506 1.08924 32.5284 0.935739 32.0987C0.78286 31.6696 0.648151 31.2342 0.532238 30.7932C0.416326 30.3522 0.31921 29.9075 0.241517 29.4583C0.163825 29.0092 0.105555 28.5575 0.0660821 28.1027C0.0272356 27.6486 0.0078125 27.1938 0.0078125 26.7377V6.90885C0.0078125 6.68271 0.0190905 6.45657 0.0416464 6.23169C0.0642024 6.0068 0.0974097 5.78317 0.141895 5.56141C0.18638 5.33966 0.241517 5.12041 0.307305 4.90366C0.373094 4.68755 0.449533 4.47519 0.535998 4.26596C0.623089 4.05674 0.719578 3.85252 0.826719 3.65332C0.933233 3.45411 1.04977 3.25992 1.17571 3.07199C1.30165 2.88407 1.43636 2.7024 1.57984 2.52763C1.72394 2.35286 1.87557 2.1856 2.03597 2.02586C2.19574 1.8655 2.36366 1.7139 2.53846 1.57045C2.71327 1.427 2.89497 1.29232 3.08357 1.16641C3.27153 1.04049 3.46576 0.924605 3.66564 0.818112C3.86488 0.710993 4.06976 0.614524 4.27841 0.528077C4.48767 0.441004 4.7007 0.36458 4.91749 0.298805C5.13428 0.233031 5.35357 0.177905 5.57537 0.134055C5.7978 0.0895788 6.02148 0.0563783 6.24641 0.0338269C6.47197 0.0112756 6.69816 0 6.92434 0H25.0625C25.2893 0 25.5148 0.0112756 25.7404 0.0338269C25.966 0.0563783 26.1896 0.0895788 26.4114 0.134055C26.6339 0.177905 26.8532 0.233031 27.0693 0.298805C27.2861 0.36458 27.4991 0.441004 27.7084 0.528077C27.9177 0.614524 28.1219 0.710993 28.3218 0.818112C28.521 0.924605 28.7153 1.04049 28.9032 1.16641C29.0918 1.29232 29.2735 1.427 29.4483 1.57045C29.6238 1.7139 29.7911 1.8655 29.9515 2.02586C30.1112 2.1856 30.2635 2.35286 30.407 2.52763C30.5504 2.7024 30.6852 2.88407 30.8111 3.07199C30.937 3.25992 31.0536 3.45411 31.1601 3.65332C31.2672 3.85252 31.3637 4.05674 31.4508 4.26596C31.5373 4.47519 31.6137 4.68755 31.6795 4.90366C31.7459 5.12041 31.801 5.33966 31.8449 5.56141C31.8894 5.78317 31.9226 6.0068 31.9452 6.23169C31.9677 6.45657 31.979 6.68271 31.9796 6.90885V26.7377C31.979 27.1938 31.9596 27.6486 31.9207 28.1027C31.8819 28.5575 31.823 29.0092 31.7453 29.4583C31.6676 29.9075 31.5711 30.3522 31.4552 30.7932C31.3387 31.2342 31.2046 31.6696 31.0511 32.0987C30.8982 32.5284 30.7265 32.9506 30.5373 33.3653C30.3481 33.78 30.1413 34.186 29.917 34.5831C29.6927 34.9796 29.4521 35.3668 29.1946 35.7432C28.9371 36.1197 28.6639 36.4843 28.3757 36.8376C28.0868 37.1909 27.7836 37.5311 27.4659 37.8581C27.1483 38.1851 26.8168 38.4983 26.4722 38.7971C26.1276 39.0959 25.7711 39.3797 25.4021 39.6484C25.033 39.9165 24.6533 40.1689 24.263 40.4045C23.872 40.6406 23.4723 40.8593 23.0631 41.061C22.654 41.2627 22.2367 41.4462 21.8113 41.6122C21.3865 41.7782 20.9548 41.9261 20.5174 42.0551C20.0795 42.1842 19.6371 42.2944 19.1898 42.3859C19.1328 42.3971 19.0745 42.4034 19.0156 42.4034Z" fill="#00ADEF"/>
</g>
<path d="M9.95106 38.0612C9.79505 38.0618 9.65031 38.023 9.51498 37.9453C9.02564 37.6609 8.55698 37.3464 8.10899 37.0013C7.66038 36.6567 7.2362 36.284 6.83646 35.8837C6.43734 35.4834 6.06517 35.0587 5.72057 34.6102C5.37659 34.1611 5.06269 33.6919 4.78011 33.2026C4.49691 32.7128 4.24691 32.2072 4.03012 31.6848C3.81271 31.163 3.63101 30.6286 3.48377 30.083C3.33653 29.5374 3.225 28.9843 3.14982 28.4236C3.07526 27.8636 3.03704 27.3004 3.03516 26.7354V6.90839C3.03516 6.78059 3.04205 6.65406 3.05458 6.52752C3.06711 6.40035 3.08591 6.27507 3.11097 6.14978C3.13603 6.02512 3.16673 5.90172 3.2037 5.78019C3.24129 5.65804 3.2839 5.53839 3.33277 5.42125C3.38164 5.30348 3.43615 5.18885 3.4963 5.07609C3.55645 4.96396 3.62161 4.85496 3.69304 4.74909C3.76384 4.64323 3.83965 4.54112 3.92048 4.44277C4.0013 4.34442 4.08651 4.25046 4.17674 4.16025C4.26696 4.07005 4.36094 3.98485 4.45931 3.90405C4.55831 3.82324 4.66044 3.74744 4.76633 3.67665C4.87221 3.60587 4.98123 3.54072 5.09339 3.48058C5.20617 3.42044 5.32083 3.36594 5.43862 3.31708C5.55641 3.26822 5.67608 3.22563 5.79826 3.18804C5.91981 3.15108 6.04324 3.12039 6.16855 3.09533C6.29324 3.07027 6.41917 3.05148 6.54574 3.03895C6.67293 3.0258 6.80012 3.01953 6.92731 3.01953H25.0654C25.1932 3.01953 25.3204 3.0258 25.447 3.03832C25.5742 3.05085 25.7001 3.06965 25.8248 3.0947C25.9501 3.11976 26.0735 3.15045 26.1951 3.18804C26.3173 3.225 26.437 3.2676 26.5547 3.31646C26.6725 3.36532 26.7878 3.41982 26.9 3.47995C27.0128 3.54009 27.1218 3.60524 27.2277 3.67603C27.3335 3.74681 27.4363 3.82261 27.5347 3.90342C27.633 3.98423 27.7277 4.06942 27.8179 4.15963C27.9081 4.24983 27.9933 4.3438 28.0741 4.44215C28.155 4.54049 28.2308 4.6426 28.3022 4.74847C28.373 4.85433 28.4382 4.96333 28.4983 5.07546C28.5585 5.18822 28.613 5.30285 28.6618 5.42062C28.7107 5.53839 28.7539 5.65804 28.7909 5.77957C28.8279 5.90172 28.8592 6.02512 28.8843 6.14978C28.9093 6.27444 28.9281 6.40035 28.9407 6.52689C28.9532 6.65406 28.9601 6.78059 28.9601 6.90839V26.7373C28.9588 27.3029 28.9206 27.8661 28.8454 28.4268C28.7709 28.9874 28.66 29.5405 28.5127 30.0868C28.3655 30.633 28.1832 31.1674 27.9664 31.6892C27.7496 32.2116 27.4996 32.7178 27.2164 33.2076C26.9338 33.6975 26.6199 34.1673 26.2753 34.6158C25.9313 35.065 25.5591 35.4897 25.1594 35.89C24.7597 36.2909 24.3355 36.6636 23.8869 37.0088C23.4383 37.354 22.9696 37.6684 22.4796 37.9528C22.3449 38.0305 22.2002 38.0693 22.0442 38.0693C21.8888 38.0693 21.7434 38.0305 21.6087 37.9528C21.474 37.8751 21.3675 37.7686 21.2898 37.634C21.2121 37.4993 21.1733 37.3546 21.1733 37.1992V35.796C21.1733 35.6551 21.1595 35.5154 21.1319 35.3769C21.1037 35.2385 21.063 35.1045 21.0091 34.9742C20.9552 34.8439 20.8888 34.7198 20.8105 34.6027C20.7316 34.4855 20.6426 34.3765 20.543 34.2769C20.4427 34.1773 20.3343 34.0878 20.2165 34.0095C20.0994 33.9312 19.9753 33.8648 19.845 33.8109C19.7147 33.7564 19.5799 33.7157 19.4415 33.6881C19.303 33.6605 19.1633 33.6468 19.0223 33.6461H12.9729C12.832 33.6468 12.6922 33.6605 12.5538 33.6881C12.4147 33.7157 12.2806 33.7564 12.1503 33.8109C12.0193 33.8648 11.8959 33.9312 11.7781 34.0095C11.6609 34.0878 11.5525 34.1773 11.4523 34.2769C11.3527 34.3765 11.2637 34.4855 11.1847 34.6027C11.1064 34.7198 11.04 34.8439 10.9861 34.9742C10.9322 35.1045 10.8909 35.2385 10.8633 35.3769C10.8358 35.5154 10.822 35.6551 10.822 35.796V37.1917C10.822 37.2487 10.8163 37.3051 10.8051 37.3615C10.7938 37.4172 10.7775 37.4717 10.7556 37.5243C10.7336 37.577 10.7067 37.6271 10.6747 37.6747C10.6434 37.7223 10.6071 37.7661 10.5663 37.8069C10.5262 37.8469 10.4824 37.8833 10.4348 37.9146C10.3871 37.9465 10.337 37.9735 10.2838 37.9954C10.2311 38.0173 10.1766 38.0336 10.1209 38.0449C10.0645 38.0562 10.0081 38.0612 9.95106 38.0612ZM12.9729 31.904H19.0198C19.1426 31.904 19.2648 31.9103 19.387 31.9222C19.5091 31.9335 19.6301 31.951 19.7504 31.9742C19.8707 31.9974 19.9897 32.0262 20.1075 32.06C20.2253 32.0945 20.3412 32.1346 20.4552 32.1797C20.5686 32.2248 20.6802 32.2755 20.7898 32.3313C20.8988 32.387 21.0054 32.4478 21.1087 32.5136C21.2121 32.5793 21.3117 32.6495 21.4089 32.7247C21.5053 32.7998 21.5987 32.8794 21.6877 32.9633C21.7773 33.0479 21.8625 33.1356 21.9433 33.2277C22.0241 33.3198 22.1006 33.415 22.1726 33.514C22.2441 33.6136 22.3117 33.7157 22.3737 33.8215C22.4358 33.9268 22.4934 34.0351 22.5454 34.146C22.5974 34.2569 22.6438 34.3697 22.6851 34.4849C22.7265 34.6002 22.7622 34.7173 22.7929 34.8357C22.823 34.9547 22.848 35.0744 22.8668 35.1953C22.8856 35.3162 22.8988 35.4377 22.9069 35.5605C23.2403 35.2986 23.5586 35.0193 23.8606 34.7217C24.1626 34.4242 24.447 34.1103 24.7139 33.7808C24.9802 33.4513 25.2277 33.1074 25.4558 32.7503C25.6832 32.3927 25.8906 32.0237 26.0767 31.6428C26.2628 31.262 26.4263 30.8717 26.5685 30.472C26.7101 30.073 26.8292 29.6671 26.9257 29.2543C27.0215 28.8414 27.0942 28.4242 27.1431 28.0033C27.1919 27.5823 27.217 27.1601 27.2183 26.7367V6.90839C27.2176 6.76681 27.2039 6.62712 27.1763 6.48931C27.1481 6.35087 27.1074 6.21618 27.0535 6.08589C26.999 5.95559 26.9326 5.83218 26.8542 5.71504C26.7759 5.59728 26.6863 5.4889 26.5867 5.3893C26.4864 5.2897 26.3781 5.20075 26.2603 5.12182C26.1431 5.04351 26.019 4.97774 25.8887 4.92324C25.7584 4.86937 25.6237 4.82865 25.4852 4.80109C25.3467 4.77352 25.207 4.75974 25.0654 4.75912H6.92731C6.78634 4.75974 6.64599 4.77352 6.50752 4.80109C6.36905 4.82865 6.23497 4.86937 6.10402 4.92324C5.97369 4.97774 5.84964 5.04351 5.73247 5.12182C5.61468 5.20075 5.50629 5.2897 5.40666 5.3893C5.30641 5.4889 5.21744 5.59728 5.1385 5.71504C5.06018 5.83218 4.99376 5.95559 4.93988 6.08589C4.88537 6.21618 4.84464 6.35087 4.81708 6.48931C4.78888 6.62712 4.7751 6.76681 4.7751 6.90839V26.7373C4.77635 27.1614 4.80141 27.5836 4.85028 28.0045C4.89915 28.4255 4.97183 28.8421 5.0677 29.2549C5.16356 29.6677 5.28261 30.0736 5.42483 30.4727C5.56643 30.8723 5.73059 31.2626 5.91668 31.6428C6.10276 32.0237 6.31015 32.3933 6.53759 32.7503C6.76566 33.108 7.01252 33.4513 7.27943 33.7808C7.54635 34.1103 7.83017 34.4242 8.1328 34.7217C8.4348 35.0193 8.75246 35.2986 9.08642 35.5605C9.09393 35.4383 9.10709 35.3162 9.12651 35.1953C9.14531 35.0744 9.17037 34.9547 9.20045 34.8363C9.23115 34.7179 9.26686 34.6008 9.30822 34.4855C9.34957 34.3703 9.39656 34.2575 9.44856 34.1466C9.50057 34.0358 9.55758 33.9274 9.61961 33.8222C9.68227 33.7169 9.74931 33.6142 9.82136 33.5152C9.89342 33.4162 9.96986 33.3204 10.0507 33.2289C10.1315 33.1369 10.2167 33.0492 10.3057 32.9652C10.3953 32.8813 10.488 32.8017 10.5851 32.7265C10.6816 32.6514 10.7819 32.5806 10.8853 32.5154C10.9886 32.4497 11.0945 32.3889 11.2042 32.3331C11.3132 32.2774 11.4247 32.2267 11.5381 32.1815C11.6522 32.1364 11.7681 32.097 11.8859 32.0625C12.0037 32.0281 12.1221 31.9993 12.243 31.9761C12.3633 31.9529 12.4842 31.936 12.6064 31.9241C12.7279 31.9122 12.8508 31.9065 12.9729 31.9065V31.904Z" fill="#00ADEF"/>
<mask id="mask1_1509_79035" style="mask-type:luminance" maskUnits="userSpaceOnUse" x="12" y="34" width="8" height="18">
<path d="M12.0312 34.8633H19.8907V51.7649H12.0312V34.8633Z" fill="white"/>
</mask>
<g mask="url(#mask1_1509_79035)">
<path d="M15.9962 51.7635C15.8684 51.7635 15.7412 51.7572 15.6147 51.7447C15.4875 51.7322 15.3615 51.7134 15.2368 51.6883C15.1115 51.6633 14.9881 51.6319 14.8659 51.595C14.7437 51.558 14.6241 51.5154 14.5063 51.4666C14.3885 51.4177 14.2732 51.3632 14.161 51.3031C14.0489 51.2429 13.9392 51.1778 13.8334 51.107C13.7275 51.0362 13.6253 50.9604 13.5263 50.8796C13.428 50.7988 13.334 50.713 13.2438 50.6228C13.1535 50.5332 13.0677 50.4386 12.9869 50.3403C12.9061 50.2419 12.8302 50.1398 12.7594 50.0339C12.6886 49.9281 12.6229 49.8191 12.5627 49.7063C12.5026 49.5942 12.448 49.4795 12.3992 49.3618C12.3503 49.244 12.3077 49.1244 12.2701 49.0022C12.2331 48.8807 12.2024 48.7573 12.1774 48.632C12.1523 48.5073 12.1335 48.3814 12.121 48.2549C12.1085 48.1283 12.1016 48.0012 12.1016 47.874V35.7959C12.1016 35.7389 12.1072 35.6825 12.1185 35.6261C12.1298 35.5704 12.146 35.5159 12.168 35.4633C12.1899 35.4106 12.2168 35.3605 12.2482 35.3129C12.2801 35.2653 12.3165 35.2215 12.3566 35.1807C12.3973 35.1406 12.4412 35.1043 12.4888 35.073C12.5364 35.041 12.5865 35.0141 12.6391 34.9922C12.6924 34.9703 12.7469 34.954 12.8027 34.9427C12.8591 34.9314 12.9155 34.9258 12.9725 34.9258H19.0193C19.0764 34.9258 19.1334 34.9314 19.1891 34.9427C19.2455 34.954 19.3 34.9703 19.3527 34.9922C19.4053 35.0141 19.4561 35.041 19.503 35.073C19.5507 35.1043 19.5951 35.1406 19.6352 35.1807C19.676 35.2215 19.7117 35.2653 19.7436 35.3129C19.7756 35.3605 19.8019 35.4106 19.8238 35.4633C19.8458 35.5159 19.8627 35.5704 19.874 35.6261C19.8846 35.6825 19.8903 35.7389 19.8903 35.7959V47.874C19.8903 48.0012 19.884 48.1283 19.8715 48.2549C19.8589 48.3814 19.8401 48.5073 19.8151 48.632C19.79 48.7573 19.7587 48.8807 19.7217 49.0022C19.6847 49.1244 19.6415 49.244 19.5926 49.3618C19.5438 49.4795 19.4893 49.5942 19.4291 49.7063C19.369 49.8191 19.3038 49.9281 19.233 50.0339C19.1616 50.1398 19.0858 50.2419 19.0049 50.3403C18.9241 50.4386 18.8389 50.5332 18.7487 50.6228C18.6585 50.713 18.5638 50.7988 18.4655 50.8796C18.3671 50.9604 18.2643 51.0362 18.1585 51.107C18.0526 51.1778 17.9436 51.2429 17.8308 51.3031C17.7186 51.3632 17.6033 51.4177 17.4855 51.4666C17.3678 51.5154 17.2481 51.558 17.1259 51.595C17.0037 51.6319 16.8803 51.6633 16.7556 51.6883C16.6303 51.7134 16.5044 51.7322 16.3778 51.7447C16.2506 51.7572 16.1234 51.7635 15.9962 51.7635ZM13.8434 36.666V47.874C13.8434 48.015 13.8572 48.1546 13.8847 48.2937C13.9123 48.4322 13.953 48.5668 14.0069 48.6971C14.0608 48.8274 14.1272 48.9515 14.2055 49.0692C14.2839 49.1864 14.3734 49.2954 14.4731 49.3956C14.5733 49.4952 14.6817 49.5848 14.7995 49.6631C14.9173 49.7414 15.0414 49.8078 15.1717 49.8617C15.3026 49.9162 15.4373 49.9569 15.5758 49.9844C15.7143 50.012 15.8546 50.0258 15.9962 50.0258C16.1372 50.0258 16.2775 50.012 16.416 49.9844C16.5551 49.9569 16.6898 49.9162 16.8201 49.8617C16.9511 49.8078 17.0751 49.7414 17.1923 49.6631C17.3101 49.5848 17.4185 49.4952 17.5187 49.3956C17.619 49.2954 17.708 49.1864 17.7863 49.0692C17.8646 48.9515 17.931 48.8274 17.9849 48.6971C18.0394 48.5668 18.0801 48.4322 18.1077 48.2937C18.1347 48.1546 18.1484 48.015 18.1484 47.874V36.666H13.8434Z" fill="#00ADEF"/>
</g>
<path d="M19.0193 45.724H12.9725C12.9155 45.724 12.8591 45.7183 12.8027 45.707C12.7469 45.6964 12.6924 45.6795 12.6391 45.6576C12.5865 45.6363 12.5364 45.6093 12.4888 45.5774C12.4412 45.5454 12.3973 45.5097 12.3566 45.469C12.3165 45.4289 12.2801 45.3851 12.2482 45.3375C12.2168 45.2898 12.1899 45.2397 12.168 45.1871C12.146 45.1345 12.1298 45.08 12.1185 45.0236C12.1072 44.9679 12.1016 44.9115 12.1016 44.8539C12.1016 44.7968 12.1072 44.7405 12.1185 44.6841C12.1298 44.6283 12.146 44.5738 12.168 44.5212C12.1899 44.4686 12.2168 44.4185 12.2482 44.3709C12.2801 44.3233 12.3165 44.2794 12.3566 44.2387C12.3973 44.1986 12.4412 44.1623 12.4888 44.131C12.5364 44.099 12.5865 44.0721 12.6391 44.0501C12.6924 44.0282 12.7463 44.0119 12.8027 44.0007C12.8591 43.9894 12.9155 43.9844 12.9725 43.9844H19.0193C19.0764 43.9844 19.1334 43.9894 19.1891 44.0007C19.2455 44.0119 19.3 44.0282 19.3527 44.0501C19.4053 44.0721 19.4561 44.099 19.503 44.131C19.5507 44.1623 19.5951 44.1986 19.6352 44.2387C19.676 44.2794 19.7117 44.3233 19.7436 44.3709C19.7756 44.4185 19.8019 44.4686 19.8238 44.5212C19.8458 44.5738 19.8627 44.6283 19.874 44.6841C19.8846 44.7405 19.8903 44.7968 19.8903 44.8539C19.8903 44.9115 19.8846 44.9679 19.874 45.0236C19.8627 45.08 19.8458 45.1345 19.8238 45.1871C19.8019 45.2397 19.7756 45.2898 19.7436 45.3375C19.7117 45.3851 19.676 45.4289 19.6352 45.469C19.5951 45.5097 19.5507 45.5454 19.503 45.5774C19.4561 45.6093 19.4053 45.6363 19.3527 45.6576C19.3 45.6795 19.2455 45.6964 19.1891 45.707C19.1334 45.7183 19.0764 45.724 19.0193 45.724Z" fill="#00ADEF"/>
<path d="M15.9931 27.6974C15.6685 27.6974 15.3465 27.6755 15.0251 27.6322C14.7043 27.589 14.3872 27.5239 14.0746 27.438C13.7626 27.3516 13.4574 27.2451 13.1592 27.1179C12.8616 26.9908 12.5734 26.8442 12.2952 26.6782C12.017 26.5122 11.7507 26.3286 11.4976 26.1263C11.2444 25.9246 11.0057 25.7072 10.7814 25.4729C10.5577 25.2393 10.3504 24.9912 10.1599 24.7294C9.96941 24.4675 9.7971 24.1944 9.6436 23.9094C9.49009 23.6244 9.35601 23.3299 9.24198 23.0274C9.12794 22.7242 9.03521 22.4147 8.96253 22.099C8.89048 21.7839 8.83973 21.4644 8.81091 21.1425C8.78146 20.8199 8.77394 20.4972 8.78835 20.174C8.80276 19.8501 8.8391 19.5294 8.89675 19.2112C8.95439 18.8923 9.03334 18.5791 9.13358 18.2716C9.23321 17.9634 9.3535 17.6639 9.49385 17.372C9.6342 17.0801 9.79397 16.7995 9.97191 16.5288L15.2657 8.5087C15.2851 8.47864 15.307 8.45045 15.3302 8.42288C15.3534 8.39532 15.3784 8.36964 15.4048 8.34583C15.4311 8.3214 15.4593 8.29885 15.4887 8.27818C15.5175 8.25751 15.5482 8.23871 15.5796 8.2218C15.6115 8.20426 15.6441 8.18923 15.6773 8.1767C15.7111 8.16354 15.745 8.15289 15.7801 8.14412C15.8145 8.13535 15.8502 8.12846 15.8853 8.12408C15.921 8.11969 15.9568 8.11719 15.9931 8.11719C16.0288 8.11719 16.0645 8.11969 16.1002 8.12408C16.136 8.12846 16.171 8.13535 16.2061 8.14412C16.2406 8.15289 16.275 8.16354 16.3083 8.1767C16.3415 8.18923 16.374 8.20426 16.406 8.2218C16.4373 8.23871 16.468 8.25751 16.4975 8.27818C16.5263 8.29885 16.5545 8.3214 16.5808 8.34583C16.6071 8.36964 16.6322 8.39532 16.6554 8.42288C16.6792 8.45045 16.7005 8.47864 16.7199 8.5087L22.0149 16.5288C22.1929 16.7995 22.352 17.0801 22.4923 17.372C22.6333 17.6639 22.753 17.9634 22.8532 18.2716C22.9529 18.5791 23.0318 18.8923 23.0895 19.2112C23.1471 19.5294 23.1828 19.8508 23.1972 20.174C23.2116 20.4972 23.2041 20.8199 23.1753 21.1425C23.1458 21.4651 23.0951 21.7839 23.023 22.099C22.9504 22.4147 22.8576 22.7242 22.7436 23.0274C22.6296 23.3299 22.4955 23.6244 22.342 23.9088C22.1885 24.1938 22.0162 24.4675 21.8257 24.7294C21.6352 24.9912 21.4278 25.2387 21.2041 25.4729C20.9798 25.7066 20.7411 25.9246 20.488 26.1263C20.2349 26.328 19.9686 26.5122 19.6904 26.6782C19.4122 26.8442 19.1246 26.9908 18.8264 27.1179C18.5281 27.2451 18.223 27.3516 17.911 27.438C17.5983 27.5239 17.2819 27.5884 16.9605 27.6322C16.6397 27.6755 16.317 27.6974 15.9931 27.6974ZM15.9931 10.5665L11.4255 17.4848C11.3353 17.6213 11.252 17.7616 11.1743 17.9057C11.0966 18.0498 11.0258 18.197 10.9612 18.3474C10.8973 18.4983 10.8397 18.6512 10.7889 18.8065C10.7388 18.9625 10.695 19.1197 10.6586 19.2795C10.6223 19.4386 10.5935 19.5996 10.5715 19.7618C10.5496 19.9241 10.5346 20.0863 10.5277 20.2498C10.5201 20.4133 10.5201 20.5768 10.5277 20.7403C10.5352 20.9038 10.5496 21.066 10.5715 21.2283C10.5941 21.3905 10.6229 21.5515 10.6592 21.7106C10.6962 21.8704 10.7394 22.0276 10.7902 22.1836C10.8409 22.3389 10.8986 22.4918 10.9631 22.6421C11.027 22.7925 11.0985 22.9397 11.1762 23.0838C11.2532 23.2278 11.3372 23.3682 11.4274 23.5047C11.5176 23.6413 11.6141 23.7735 11.7162 23.9012C11.8184 24.029 11.9261 24.1518 12.0395 24.2702C12.1523 24.3886 12.2707 24.5014 12.3942 24.6091C12.5176 24.7169 12.6454 24.8183 12.7776 24.9148C12.9105 25.0106 13.047 25.1009 13.1874 25.1848C13.3277 25.2687 13.4718 25.3458 13.6197 25.4172C13.767 25.488 13.9173 25.5519 14.0708 25.6095C14.2243 25.6671 14.3797 25.7173 14.5376 25.7611C14.6955 25.8043 14.8553 25.8407 15.0163 25.8701C15.1773 25.8995 15.3396 25.9215 15.5025 25.9359C15.6654 25.9503 15.8289 25.9578 15.9931 25.9578C16.1566 25.9578 16.3202 25.9503 16.4831 25.9359C16.6466 25.9215 16.8082 25.8995 16.9693 25.8701C17.1309 25.8407 17.2901 25.8043 17.448 25.7611C17.6058 25.7173 17.7612 25.6671 17.9147 25.6095C18.0682 25.5519 18.2186 25.488 18.3659 25.4172C18.5137 25.3458 18.6578 25.2687 18.7982 25.1848C18.9392 25.1009 19.0757 25.0106 19.2079 24.9148C19.3408 24.8183 19.4686 24.7169 19.592 24.6091C19.7148 24.5014 19.8332 24.3886 19.9467 24.2702C20.0594 24.1518 20.1672 24.029 20.2693 23.9012C20.3715 23.7735 20.4679 23.6413 20.5582 23.5047C20.6484 23.3682 20.7324 23.2278 20.81 23.0838C20.8877 22.9397 20.9585 22.7925 21.0231 22.6421C21.0876 22.4918 21.1446 22.3389 21.1954 22.1836C21.2461 22.0276 21.29 21.8704 21.3263 21.7106C21.3627 21.5515 21.3921 21.3905 21.414 21.2283C21.436 21.066 21.451 20.9038 21.4579 20.7403C21.4654 20.5768 21.4654 20.4133 21.4585 20.2498C21.451 20.0863 21.4366 19.9241 21.4147 19.7618C21.3927 19.5996 21.3633 19.4386 21.327 19.2795C21.2906 19.1197 21.2474 18.9625 21.1966 18.8065C21.1459 18.6512 21.0889 18.4983 21.0243 18.3474C20.9598 18.197 20.889 18.0498 20.8119 17.9057C20.7342 17.7616 20.6503 17.6213 20.5601 17.4848L15.9931 10.5665Z" fill="#00ADEF"/>
<path d="M15.9932 24.772C15.8021 24.772 15.6123 24.7595 15.4231 24.7338C15.2338 24.7081 15.0471 24.6699 14.8635 24.6191C14.6793 24.5684 14.4995 24.5058 14.3241 24.4312C14.1487 24.356 13.9789 24.2696 13.8153 24.1719C13.6512 24.0742 13.4945 23.9658 13.3454 23.8474C13.1963 23.7284 13.0553 23.5999 12.9237 23.4621C12.7915 23.3243 12.6694 23.1784 12.5572 23.0243C12.445 22.8702 12.3442 22.7092 12.2533 22.5413C12.1631 22.3734 12.0842 22.2005 12.0171 22.022C11.9501 21.8434 11.8949 21.6612 11.853 21.4751C11.8104 21.2897 11.7803 21.1018 11.7634 20.912C11.7458 20.7215 11.7421 20.5317 11.7502 20.3413C11.759 20.1508 11.7803 19.9617 11.8141 19.7744C11.8479 19.5864 11.8949 19.4023 11.9538 19.2206C12.0127 19.0396 12.0835 18.8629 12.1662 18.6913C12.2489 18.5196 12.3429 18.3543 12.4482 18.1951L15.2658 13.9267C15.2852 13.8966 15.3071 13.8678 15.3303 13.8409C15.3535 13.8133 15.3786 13.7876 15.4049 13.7632C15.4312 13.7394 15.4594 13.7168 15.4888 13.6961C15.5177 13.6748 15.5484 13.6561 15.5797 13.6391C15.6117 13.6222 15.6442 13.6072 15.6774 13.594C15.7113 13.5815 15.7451 13.5702 15.7802 13.5615C15.8147 13.5527 15.8504 13.5464 15.8855 13.542C15.9212 13.5377 15.9569 13.5352 15.9932 13.5352C16.0289 13.5352 16.0647 13.5377 16.1004 13.542C16.1361 13.5464 16.1712 13.5527 16.2063 13.5615C16.2407 13.5702 16.2752 13.5815 16.3084 13.594C16.3416 13.6072 16.3742 13.6222 16.4061 13.6391C16.4375 13.6561 16.4682 13.6748 16.4976 13.6961C16.5264 13.7168 16.5546 13.7394 16.5809 13.7632C16.6072 13.7876 16.6323 13.8133 16.6555 13.8409C16.6793 13.8678 16.7006 13.8966 16.72 13.9267L19.5376 18.1951C19.6429 18.3543 19.7369 18.5196 19.8196 18.6913C19.9023 18.8629 19.9737 19.0396 20.0326 19.2206C20.0915 19.4023 20.1379 19.5864 20.1717 19.7744C20.2062 19.9617 20.2275 20.1508 20.2356 20.3413C20.2444 20.5317 20.24 20.7215 20.2231 20.912C20.2055 21.1018 20.1761 21.2897 20.1335 21.4751C20.0909 21.6612 20.0358 21.8434 19.9687 22.022C19.9017 22.2005 19.8233 22.3734 19.7325 22.5413C19.6423 22.7092 19.5408 22.8702 19.4286 23.0243C19.3165 23.1784 19.1943 23.3243 19.0621 23.4621C18.9305 23.5999 18.7902 23.7284 18.6404 23.8474C18.4913 23.9658 18.3347 24.0742 18.1711 24.1719C18.007 24.2696 17.8372 24.356 17.6617 24.4312C17.4863 24.5058 17.3065 24.5684 17.1229 24.6191C16.9387 24.6699 16.752 24.7081 16.5628 24.7338C16.3742 24.7595 16.1837 24.772 15.9932 24.772ZM15.9932 15.9851L13.9018 19.1529C13.8191 19.2782 13.7483 19.4098 13.6894 19.5476C13.6305 19.686 13.5848 19.8282 13.5509 19.9742C13.5177 20.1208 13.4977 20.2686 13.4914 20.4183C13.4845 20.568 13.4914 20.7178 13.5121 20.8662C13.5321 21.0147 13.5653 21.1606 13.6123 21.3028C13.6587 21.4457 13.7176 21.5829 13.7884 21.715C13.8598 21.8472 13.9425 21.9719 14.0359 22.089C14.1299 22.2061 14.2332 22.3139 14.346 22.4129C14.4594 22.5112 14.5803 22.5989 14.7094 22.676C14.8385 22.753 14.9732 22.8175 15.1135 22.8702C15.2545 22.9228 15.3986 22.9629 15.5459 22.9892C15.6937 23.0161 15.8429 23.0299 15.9932 23.0299C16.143 23.0299 16.2921 23.0161 16.44 22.9892C16.5878 22.9629 16.7319 22.9228 16.8723 22.8702C17.0133 22.8175 17.148 22.753 17.277 22.676C17.4055 22.5989 17.5264 22.5112 17.6398 22.4129C17.7532 22.3139 17.8566 22.2061 17.95 22.089C18.0439 21.9719 18.126 21.8472 18.1974 21.715C18.2689 21.5829 18.3278 21.4457 18.3741 21.3028C18.4205 21.1606 18.4537 21.0147 18.4744 20.8662C18.4944 20.7178 18.5013 20.568 18.4944 20.4183C18.4882 20.2686 18.4681 20.1208 18.4349 19.9742C18.4017 19.8282 18.3553 19.686 18.2964 19.5476C18.2375 19.4098 18.1667 19.2782 18.0847 19.1529L15.9932 15.9851Z" fill="#00ADEF"/>
</svg>
