<svg width="48" height="44" viewBox="0 0 48 44" fill="none" xmlns="http://www.w3.org/2000/svg">
<path d="M40.0715 34.5719C37.0398 34.5719 34.5718 31.2234 34.5718 27.107C34.5718 22.9915 37.0398 19.643 40.0715 19.643C43.1041 19.643 45.5721 22.9915 45.5721 27.107C45.5721 31.2234 43.1041 34.5719 40.0715 34.5719ZM39.2857 16.5H40.8573V18.1298C40.5997 18.0927 40.3386 18.0719 40.0715 18.0719C39.8044 18.0719 39.5442 18.0927 39.2857 18.1298V16.5ZM28.2862 31.4289H22.7856V22.2608L29.072 13.8787V30.643C29.072 31.0757 28.7185 31.4289 28.2862 31.4289ZM18.0717 30.643V13.357C18.0717 12.9243 18.4244 12.5719 18.8575 12.5719H28.09L21.2149 21.7392V31.4289H18.8575C18.4244 31.4289 18.0717 31.0757 18.0717 30.643ZM1.5716 19.643C1.5716 16.6106 4.03966 14.143 7.07134 14.143C10.1039 14.143 12.5719 16.6106 12.5719 19.643C12.5719 22.6754 10.1039 25.143 7.07134 25.143C4.03966 25.143 1.5716 22.6754 1.5716 19.643ZM42.4289 18.5996V16.5C42.4289 15.6346 41.7226 14.9289 40.8573 14.9289V9.03596C40.8573 4.05418 36.803 0 31.8219 0C26.8408 0 22.7856 4.05418 22.7856 9.03596V11H18.8575C17.5565 11 16.5001 12.0563 16.5001 13.357V30.643C16.5001 31.9446 17.5565 33 18.8575 33H22.7856V34.9649C22.7856 39.0804 19.4375 42.4289 15.3218 42.4289C11.2061 42.4289 7.85714 39.0804 7.85714 34.9649V26.6683C11.3868 26.2753 14.1435 23.2765 14.1435 19.643C14.1435 15.7417 10.9692 12.5719 7.07134 12.5719C3.17346 12.5719 0 15.7417 0 19.643C0 23.2765 2.75679 26.2753 6.28641 26.6683V34.9649C6.28641 39.9458 10.3408 44 15.3218 44C20.3029 44 24.3572 39.9458 24.3572 34.9649V33H28.2862C29.5873 33 30.6436 31.9446 30.6436 30.643V13.357C30.6436 12.0563 29.5873 11 28.2862 11H24.3572V9.03596C24.3572 4.9196 27.7062 1.57106 31.8219 1.57106C35.9376 1.57106 39.2857 4.9196 39.2857 9.03596V14.9289C38.4204 14.9289 37.715 15.6346 37.715 16.5V18.5996C34.9738 19.8425 33.0002 23.1815 33.0002 27.107C33.0002 32.0888 36.1736 36.143 40.0715 36.143C43.9694 36.143 47.1429 32.0888 47.1429 27.107C47.1429 23.1815 45.1701 19.8425 42.4289 18.5996Z" fill="#00ADEF"/>
<path d="M7.85658 15.7148H6.28516V19.6434H7.85658V15.7148Z" fill="#00ADEF"/>
</svg>
