<svg width="46" height="41" viewBox="0 0 46 41" fill="none" xmlns="http://www.w3.org/2000/svg">
<path d="M35.4324 9.23138C34.0674 8.1649 32.4248 7.5525 30.9291 7.5525C29.9659 7.5525 27.2047 7.87281 26.2714 11.3877V2.51832C26.2714 1.26652 25.139 0 22.9738 0C20.8186 0 19.6899 1.26652 19.6899 2.51832V11.2465C18.7218 7.86422 16.0215 7.5525 15.0721 7.5525C13.5751 7.5525 11.9338 8.1649 10.5687 9.23138C2.8026 15.2989 0.265337 27.8267 0.00775296 33.6034C-0.162725 37.4594 2.49773 40.703 6.06534 40.9877C6.16738 40.9951 6.27439 41 6.3839 41C7.47521 41 8.95103 40.5692 9.89301 39.9777L15.041 36.7451C18.1656 34.8576 20.0408 31.5796 20.0408 27.9862V23.508C20.6916 23.2024 21.3088 22.925 21.8302 22.6894C22.3417 22.4587 22.7187 22.2893 23.0037 22.1531C23.3621 22.3188 23.764 22.5016 24.1821 22.6919C24.7483 22.9496 25.3692 23.2319 25.9591 23.508V27.9862C25.9591 31.5796 27.8343 34.8576 30.9776 36.7562L36.1069 39.9777C37.0501 40.5692 38.5247 41 39.616 41C39.7255 41 39.8325 40.9951 39.9346 40.9877C43.5034 40.703 46.1639 37.4594 45.9921 33.6034C45.7358 27.8267 43.1973 15.2989 35.4324 9.23138ZM23.2302 20.4472C23.1916 20.4251 23.1518 20.408 23.1082 20.3969C23.0933 20.3895 23.0771 20.3834 23.0609 20.3773C23.0037 20.3773 22.9452 20.3773 22.888 20.3773C22.8643 20.3846 22.8419 20.3932 22.8195 20.4043C22.7859 20.4141 22.7536 20.4276 22.7237 20.4448C22.5457 20.5638 21.9049 20.8522 21.162 21.186C19.4 21.9776 16.7209 23.1852 14.7983 24.4959C14.6851 24.5168 14.5893 24.5683 14.5121 24.6506C14.5046 24.6579 14.4698 24.7009 14.4238 24.7598C14.0467 25.0286 13.6933 25.3256 13.3623 25.6483C10.784 28.228 10.7392 32.8866 10.7591 33.7715C10.728 34.0893 10.6695 34.2833 10.6222 34.39C10.5388 34.2698 10.4791 34.1372 10.443 33.9949C10.3833 33.6721 10.1991 31.6152 10.5712 29.5154C10.6434 29.3583 10.7006 29.1951 10.7442 29.0282C10.7616 28.941 10.7566 28.8551 10.7292 28.7717C10.8238 28.3753 10.9457 27.9875 11.0938 27.607C11.1523 27.4597 11.1361 27.3211 11.0453 27.191C10.952 27.0572 10.8226 26.9922 10.6583 26.9958C8.91743 26.9958 7.04714 26.3785 6.09769 25.7661C5.86002 25.614 5.72438 25.4581 5.68207 25.3795C5.77789 25.2863 5.87619 25.2666 6.28559 25.463C8.30893 26.4276 11.2295 26.5368 12.0719 25.6802C12.0881 25.6643 12.103 25.6471 12.1167 25.6287C12.3681 25.2801 12.714 24.9328 13.0462 24.6076C13.88 23.7915 14.435 23.2908 15.1554 22.8232C15.2077 22.7888 15.25 22.7471 15.2849 22.6956C15.3185 22.644 15.3421 22.5888 15.3533 22.5286C15.3633 22.4685 15.362 22.4084 15.3483 22.3495C15.3346 22.2893 15.3097 22.2341 15.2737 22.185C14.9937 21.807 14.3479 21.3051 13.4233 20.9492C13.3499 20.8866 13.2665 20.8461 13.1707 20.8301C13.1284 20.824 13.0823 20.8203 13.035 20.8154C11.8653 20.4521 10.3298 20.3368 8.5603 20.9087C8.47817 20.9344 8.40102 20.9639 8.3276 20.9921C8.26538 21.0154 8.1845 21.0474 8.13472 21.0596C8.14219 21.0154 8.23676 20.8743 8.48563 20.7074C9.74991 19.8618 12.3631 19.6237 13.6635 20.2361C13.7381 20.2717 13.8165 20.2852 13.8999 20.2779C13.982 20.2705 14.0567 20.2423 14.1239 20.1944C14.1911 20.1466 14.2408 20.0852 14.2744 20.0091C14.3068 19.9342 14.318 19.8557 14.308 19.7747C14.0442 17.751 14.2184 15.0056 14.6876 13.7808C14.8966 13.2347 15.2077 12.9438 15.3483 12.8763C15.4504 13.0714 15.3657 13.4617 15.3023 13.7526C15.2836 13.8348 15.2662 13.9146 15.2538 13.9882C14.7548 16.6624 14.8232 21.0056 16.5529 21.8352C16.7034 21.9089 16.8503 21.9003 16.9921 21.8119C17.2323 21.6634 17.4799 21.5174 17.7263 21.3713C19.4261 20.3675 21.3524 19.2286 21.3524 16.8354V12.9819C21.549 12.5818 22.1575 12.3118 22.9514 12.3118C23.7652 12.3118 24.4061 12.5916 24.6102 12.9929V16.8342C24.6102 16.9029 24.6263 16.968 24.6587 17.0281C24.7607 19.2887 26.6223 20.3945 28.2748 21.3713C28.5212 21.5174 28.7688 21.6634 29.009 21.8119C29.1509 21.8991 29.2977 21.9064 29.4483 21.8352C31.1779 21.0044 31.2464 16.6612 30.7474 13.9882C30.7337 13.9133 30.7163 13.8348 30.6989 13.7501C30.6354 13.4605 30.5495 13.0702 30.6516 12.8751C30.7934 12.9426 31.1045 13.2334 31.3136 13.7796C31.7827 15.0044 31.9569 17.7497 31.6931 19.7747C31.6831 19.8557 31.6931 19.9342 31.7267 20.0091C31.7591 20.084 31.8101 20.1453 31.8773 20.1944C31.9445 20.2423 32.0191 20.2693 32.1013 20.2766C32.1834 20.284 32.263 20.2705 32.3377 20.2349C33.6393 19.625 36.2512 19.8618 37.5155 20.7074C37.7644 20.8743 37.8589 21.0167 37.8577 21.0559C37.8079 21.0424 37.732 21.0142 37.6723 20.9909C37.5989 20.9627 37.5217 20.9332 37.4408 20.9074C35.6713 20.3368 34.137 20.4509 32.9686 20.8154C32.92 20.8191 32.8728 20.8228 32.8292 20.8301C32.7346 20.8461 32.65 20.8866 32.5778 20.9492C31.652 21.3051 31.0062 21.807 30.7275 22.185C30.6914 22.2341 30.6653 22.2893 30.6516 22.3482C30.6379 22.4084 30.6366 22.4685 30.6478 22.5286C30.659 22.5888 30.6814 22.6452 30.715 22.6956C30.7499 22.7471 30.7922 22.7888 30.8444 22.8232C31.5662 23.292 32.1212 23.7915 32.9536 24.6076C33.2859 24.9328 33.6318 25.2801 33.8844 25.6287C33.8969 25.6471 33.9118 25.6643 33.928 25.6802C34.7704 26.5368 37.691 26.4276 39.7143 25.463C40.1237 25.2679 40.2208 25.2875 40.3178 25.3795C40.2755 25.4581 40.1399 25.614 39.9022 25.7661C38.9527 26.3785 37.0825 26.9958 35.3291 26.9958C35.2918 26.9958 35.2557 27.0007 35.2196 27.0093C35.1836 27.0179 35.15 27.0314 35.1164 27.0486C35.084 27.0658 35.0541 27.0854 35.0268 27.11C34.9994 27.1345 34.9745 27.1615 34.9546 27.1922C34.9334 27.2217 34.9173 27.2536 34.9036 27.2879C34.8911 27.3223 34.8824 27.3579 34.8787 27.3935C34.8737 27.4303 34.875 27.4659 34.8799 27.5027C34.8837 27.5383 34.8936 27.5739 34.9073 27.607C35.0554 27.9875 35.1761 28.3753 35.2719 28.7717C35.2433 28.8563 35.2383 28.941 35.2557 29.0282C35.3005 29.1963 35.3578 29.3583 35.4287 29.5154C35.8008 31.6152 35.6191 33.6672 35.5618 33.9728C35.5258 34.1225 35.4635 34.2612 35.3764 34.39C35.3018 34.1986 35.257 34.001 35.2433 33.796C35.2607 32.8879 35.2184 28.2305 32.6376 25.6483C32.3078 25.3268 31.9557 25.0322 31.5799 24.7635C31.5326 24.7033 31.4952 24.6592 31.489 24.6506C31.4094 24.5659 31.3123 24.5143 31.1966 24.4947C29.2678 23.1852 26.5725 21.9801 24.8005 21.1885C24.0502 20.8534 23.4019 20.5638 23.2302 20.4472ZM18.2776 19.9833C17.9515 20.1944 17.6081 20.3969 17.2609 20.6031C17.0942 20.7013 16.9274 20.7994 16.7632 20.8989C15.9332 20.1134 15.6208 16.9582 16.1435 14.1502C16.1559 14.0852 16.1721 14.014 16.1883 13.9403C16.2953 13.4507 16.4409 12.7794 16.0253 12.2713C15.9332 12.1559 15.8175 12.0712 15.6781 12.0185C15.54 11.9657 15.3969 11.9522 15.25 11.9767C14.7062 12.0626 14.1525 12.6468 13.8389 13.4629C13.646 13.9686 13.5004 14.6902 13.4046 15.5014C13.3598 15.4474 13.3237 15.391 13.274 15.3382C12.6505 14.6841 11.7459 14.3515 10.5861 14.3515C10.5227 14.3502 10.4629 14.3613 10.4044 14.3846C10.346 14.4079 10.2937 14.4411 10.2489 14.4852C10.2041 14.5282 10.1705 14.5785 10.1456 14.6362C10.122 14.6939 10.1095 14.7528 10.1095 14.8154C10.1095 14.8767 10.122 14.9369 10.1456 14.9946C10.1705 15.051 10.2041 15.1025 10.2489 15.1455C10.2937 15.1897 10.346 15.2228 10.4044 15.2461C10.4629 15.2682 10.5227 15.2793 10.5861 15.2793C11.4721 15.2793 12.1441 15.5112 12.5833 15.9678C13.2341 16.6427 13.1906 17.6209 13.1906 17.6307C13.1856 17.7387 13.2167 17.8356 13.2827 17.9215C13.2864 18.3462 13.3013 18.7696 13.3337 19.1782C12.7289 19.0261 12.0246 18.9758 11.3103 19.0126C11.1411 19.0089 9.90172 18.9856 9.70885 17.3165C9.70263 17.2674 9.68769 17.2208 9.66281 17.1778C9.63916 17.1349 9.60681 17.0981 9.56823 17.0674C9.52841 17.0367 9.48486 17.0146 9.43633 17.0011C9.38904 16.9876 9.33927 16.9827 9.2895 16.9888C9.23972 16.995 9.19368 17.0097 9.14888 17.033C9.10533 17.0576 9.068 17.0882 9.03689 17.1263C9.00578 17.1656 8.98338 17.2085 8.96845 17.2564C8.95476 17.303 8.94978 17.3521 8.956 17.4012C9.05804 18.2836 9.41393 18.8555 9.83702 19.2163C9.13022 19.3795 8.47817 19.6311 7.97793 19.9661C7.14172 20.5245 7.11807 21.1406 7.37441 21.5309C7.78754 22.1592 8.35124 21.942 8.65611 21.8267C8.7146 21.8033 8.77682 21.78 8.84152 21.7592C9.57943 21.5162 10.3373 21.402 11.1137 21.4155C10.7006 21.7542 10.3422 22.2611 10.1419 23.0036C10.1232 23.0699 10.1195 23.1374 10.1282 23.2061C10.1382 23.2748 10.1593 23.3399 10.1954 23.4C10.2302 23.4589 10.275 23.5104 10.331 23.5522C10.387 23.5939 10.448 23.6246 10.5164 23.6418C10.5612 23.654 10.606 23.6602 10.6521 23.6602C10.7728 23.6602 10.8798 23.6234 10.9744 23.5522C11.0689 23.4798 11.1324 23.3865 11.1635 23.2724C11.5804 21.726 12.872 21.8475 13.0201 21.8635C13.0923 21.8745 13.1632 21.8696 13.2329 21.85C13.5801 21.9887 13.9024 22.1678 14.2023 22.3887C13.6236 22.8121 13.1072 23.2871 12.4079 23.9719C12.0582 24.3143 11.6936 24.6812 11.4049 25.0727C10.9781 25.4397 8.66856 25.6041 6.6813 24.6567C6.33163 24.4898 5.60741 24.1437 4.98896 24.8003C4.81101 24.9856 4.7376 25.2041 4.76995 25.4569C4.83092 25.9514 5.31872 26.3319 5.60368 26.516C6.04045 26.7872 6.50211 27.0118 6.98617 27.1897C6.24826 27.4904 5.59497 28.0341 5.40707 28.9643C5.39711 29.0134 5.39711 29.0613 5.40707 29.1104C5.41702 29.1595 5.43569 29.2049 5.46306 29.2454C5.49168 29.2871 5.52653 29.3215 5.56759 29.3497C5.6099 29.3767 5.6547 29.3951 5.70447 29.4049C5.72936 29.4098 5.75425 29.4123 5.77913 29.4123C5.86997 29.4123 5.94961 29.3841 6.0193 29.3276C6.08898 29.2712 6.13253 29.1988 6.1512 29.1116C6.38763 27.9384 7.71786 27.6819 8.46448 27.6303C8.98338 27.7506 9.5085 27.8304 10.0398 27.8696C9.96643 28.0991 9.90297 28.3323 9.84573 28.5667C9.77978 28.6318 9.73498 28.7103 9.71258 28.8011C9.70636 28.8281 9.02818 31.5993 4.47006 31.5993C4.39913 31.598 4.33069 31.6103 4.26598 31.6373C4.20003 31.6631 4.14279 31.7011 4.09177 31.7502C4.04199 31.7993 4.00342 31.8558 3.97604 31.9196C3.94867 31.9846 3.93498 32.0509 3.93498 32.1208C3.93498 32.1908 3.94867 32.2571 3.97604 32.3221C4.00342 32.3859 4.04199 32.4424 4.09177 32.4915C4.14279 32.5406 4.20003 32.5786 4.26598 32.6044C4.33069 32.6314 4.39913 32.6436 4.47006 32.6424C5.44564 32.6424 6.26941 32.5271 6.96999 32.3405C6.50709 33.0965 6.0504 34.2182 6.30426 35.4725C6.32168 35.5596 6.36647 35.632 6.43616 35.6885C6.50584 35.7449 6.58548 35.7731 6.67632 35.7744C6.70121 35.7744 6.7261 35.7719 6.75098 35.767C6.79951 35.7572 6.84556 35.7375 6.88787 35.7105C6.92893 35.6823 6.96377 35.648 6.99239 35.6075C7.01977 35.5657 7.03843 35.5203 7.04839 35.4725C7.05834 35.4234 7.05834 35.3743 7.04839 35.3252C6.67632 33.4855 8.25418 31.8913 8.27036 31.8742C8.27907 31.8643 8.28529 31.8533 8.29276 31.8423C8.7258 31.6213 9.12026 31.3477 9.4774 31.0188C9.36416 32.7026 9.52219 34.0562 9.5645 34.2084C9.76236 34.9263 10.173 35.3596 10.6483 35.3596C10.6695 35.3596 10.6919 35.3583 10.7131 35.3571C11.0814 35.3264 11.5443 35.0417 11.6613 33.8611C11.6625 33.8427 11.6625 33.7948 11.6625 33.7764C11.6476 32.9787 11.6837 29.0723 13.6448 26.6829C13.6211 26.8989 13.6187 27.1161 13.6398 27.3333C13.6771 27.6659 13.7642 27.985 13.8999 28.2918C13.9994 29.4135 13.9745 31.3035 13.1271 32.0141C13.0886 32.046 13.0574 32.084 13.0338 32.1282C13.0102 32.1724 12.9965 32.2202 12.9915 32.2693C12.9878 32.3197 12.9927 32.3687 13.0077 32.4154C13.0238 32.4632 13.0475 32.5062 13.0811 32.5442C13.1134 32.5823 13.152 32.613 13.1968 32.6363C13.2429 32.6584 13.2901 32.6719 13.3412 32.6756C13.3909 32.6792 13.4407 32.6731 13.4892 32.6571C13.5365 32.6412 13.5801 32.6179 13.6187 32.5847C14.4399 31.895 14.6639 30.5757 14.6938 29.47C14.9613 29.7535 15.2525 30.01 15.5698 30.2395C15.6258 30.2812 15.688 30.3094 15.7565 30.3266C15.8237 30.3426 15.8921 30.3462 15.9618 30.3352C16.0315 30.3254 16.0962 30.3021 16.1559 30.2665C16.2156 30.2309 16.2667 30.1855 16.309 30.1302C16.35 30.0738 16.3799 30.0124 16.3961 29.9461C16.4135 29.8787 16.416 29.8112 16.406 29.7424C16.3961 29.6737 16.3724 29.6099 16.3364 29.551C16.3003 29.4908 16.2542 29.4405 16.1982 29.4C15.2849 28.7336 14.7784 28.0046 14.6925 27.2364C14.5768 26.1834 15.2936 25.3538 15.3035 25.3427C15.3496 25.2912 15.3844 25.2323 15.4068 25.166C16.2567 24.5953 17.2647 24.0406 18.2751 23.5313V27.9862C18.2751 30.966 16.7146 33.6893 14.0928 35.2736L8.94605 38.5062C8.22183 38.9603 6.94013 39.3076 6.2072 39.2487C3.54798 39.0364 1.64161 36.642 1.77351 33.6794C2.33223 21.1001 8.48688 13.0825 11.6637 10.5998C12.9604 9.58728 14.919 8.87793 16.3749 9.57378C17.6181 10.1678 18.2751 11.7202 18.2751 14.0643C18.2751 14.0643 18.2751 19.9833 18.2776 19.9833ZM21.3524 5.03787C21.549 4.63778 22.1575 4.36779 22.9514 4.36779C23.7652 4.36779 24.4061 4.6476 24.6089 5.04768V6.67625C24.1771 6.42098 23.6097 6.26634 22.9514 6.26634C22.3131 6.26634 21.768 6.41116 21.3524 6.65415V5.03787ZM21.3524 7.68505C21.549 7.28619 22.1575 7.01619 22.9514 7.01619C23.7652 7.01619 24.4061 7.29478 24.6089 7.69609V9.32343C24.1771 9.06938 23.6097 8.91475 22.9514 8.91475C22.3131 8.91475 21.768 9.05957 21.3524 9.30256V7.68505ZM21.3524 10.3335C21.549 9.9346 22.1575 9.6646 22.9514 9.6646C23.7652 9.6646 24.4061 9.94319 24.6089 10.3445V11.9718C24.1771 11.7166 23.6097 11.5632 22.9514 11.5632C22.3131 11.5632 21.768 11.708 21.3524 11.9497V10.3335ZM24.6089 2.51832V4.02784C24.1771 3.77257 23.6097 3.61916 22.9514 3.61916C22.3131 3.61916 21.768 3.76398 21.3524 4.00575V2.51832C21.3524 2.0176 22.0492 1.64083 22.9738 1.64083C23.9058 1.64083 24.6089 2.0176 24.6089 2.51832ZM27.7261 23.5424C28.7377 24.0492 29.7469 24.6027 30.5956 25.1709C30.618 25.236 30.6528 25.2936 30.6976 25.344C30.7051 25.3525 31.4193 26.1785 31.3086 27.2253C31.2265 27.9985 30.72 28.7299 29.8029 29.4C29.7469 29.4405 29.6996 29.4908 29.6635 29.551C29.6274 29.6099 29.6051 29.6737 29.5939 29.7424C29.5839 29.8112 29.5864 29.8787 29.6038 29.9461C29.6212 30.0124 29.6498 30.075 29.6922 30.1302C29.7332 30.1855 29.7842 30.2321 29.844 30.2677C29.9049 30.3033 29.9697 30.3254 30.0381 30.3364C30.1078 30.3462 30.1762 30.3426 30.2447 30.3266C30.3131 30.3094 30.3753 30.2812 30.4313 30.2395C30.7474 30.01 31.0398 29.7535 31.3073 29.47C31.336 30.5757 31.5612 31.8963 32.3825 32.5847C32.4211 32.6179 32.4634 32.6412 32.5119 32.6571C32.5604 32.6731 32.609 32.6792 32.66 32.6756C32.7098 32.6719 32.7583 32.6584 32.8031 32.6351C32.8479 32.613 32.8877 32.5823 32.92 32.5442C32.9524 32.5062 32.9773 32.4632 32.9922 32.4154C33.0072 32.3687 33.0134 32.3197 33.0084 32.2693C33.0047 32.2202 32.991 32.1724 32.9673 32.1282C32.9437 32.084 32.9126 32.046 32.874 32.0141C32.0266 31.3035 32.0005 29.4147 32.1 28.2918C32.2356 27.985 32.3228 27.6659 32.3601 27.3333C32.3812 27.1161 32.38 26.8989 32.3551 26.6817C34.3187 29.0736 34.3536 32.9799 34.3374 33.7776C34.3374 33.7948 34.3374 33.8414 34.3386 33.8586C34.4556 35.0405 34.9185 35.3264 35.2868 35.3571C35.3092 35.3583 35.3304 35.3596 35.3528 35.3596C35.8269 35.3596 36.2388 34.9251 36.4366 34.2084C36.4789 34.0562 36.637 32.7026 36.5237 31.0188C36.8796 31.3464 37.2753 31.6213 37.7084 31.8423C37.7158 31.8533 37.7221 31.8643 37.7308 31.8754C37.747 31.8913 39.3261 33.4769 38.9527 35.3252C38.9428 35.3743 38.9428 35.4234 38.9515 35.4725C38.9615 35.5203 38.9801 35.5657 39.0087 35.6075C39.0361 35.648 39.071 35.6823 39.1133 35.7105C39.1543 35.7375 39.2004 35.7572 39.2501 35.767C39.275 35.7719 39.2999 35.7744 39.3248 35.7744C39.4144 35.7744 39.4953 35.7449 39.565 35.6885C39.6347 35.632 39.6782 35.5608 39.6956 35.4725C39.9507 34.2182 39.494 33.0965 39.0311 32.3405C39.7305 32.5271 40.5542 32.6424 41.5311 32.6424C41.6008 32.6424 41.668 32.6289 41.7314 32.6019C41.7961 32.5749 41.8521 32.5369 41.9019 32.4878C41.9504 32.4399 41.989 32.3835 42.0151 32.3197C42.0413 32.2558 42.055 32.1896 42.055 32.1208C42.055 32.0521 42.0413 31.9858 42.0151 31.922C41.989 31.8582 41.9504 31.803 41.9019 31.7539C41.8521 31.7048 41.7961 31.6668 41.7314 31.6398C41.668 31.6128 41.6008 31.5993 41.5311 31.5993C37.0227 31.5993 36.3159 28.9177 36.2873 28.7974C36.2637 28.7091 36.2201 28.6318 36.1542 28.5655C36.0969 28.3323 36.0347 28.0991 35.9613 27.8696C36.4926 27.8291 37.019 27.7494 37.5379 27.6291C38.2845 27.6806 39.6123 27.9384 39.8499 29.1116C39.8674 29.1988 39.9109 29.2712 39.9818 29.3276C40.0515 29.3841 40.1312 29.4123 40.222 29.4123C40.2469 29.4123 40.2718 29.4098 40.2967 29.4049C40.3452 29.3951 40.3912 29.3767 40.4335 29.3485C40.4746 29.3215 40.5094 29.2871 40.5381 29.2454C40.5654 29.2037 40.5841 29.1595 40.5941 29.1104C40.604 29.0613 40.604 29.0134 40.5941 28.9643C40.4049 28.0341 39.7541 27.4892 39.015 27.1885C39.499 27.0118 39.9594 26.7872 40.3975 26.516C40.6824 26.3319 41.169 25.9514 41.2312 25.4569C41.2623 25.2041 41.1901 24.9844 41.0109 24.8003C40.3937 24.1437 39.6695 24.4898 39.3198 24.6567C37.3326 25.6041 35.0218 25.4385 34.5962 25.0727C34.3063 24.6812 33.9417 24.3143 33.592 23.9719C32.8939 23.2871 32.3775 22.8121 31.7989 22.3887C32.0988 22.1678 32.4223 21.9874 32.7707 21.8487C32.8392 21.8672 32.9088 21.8721 32.9798 21.8635C33.1279 21.8451 34.4195 21.7236 34.8376 23.2724C34.8687 23.3865 34.9309 23.4798 35.0268 23.5522C35.1213 23.6234 35.2284 23.6602 35.3478 23.6602C35.3939 23.6602 35.4399 23.654 35.4847 23.6418C35.5519 23.6246 35.6141 23.5939 35.6701 23.5522C35.7261 23.5104 35.7709 23.4589 35.8057 23.4C35.8418 23.3399 35.863 23.2748 35.8729 23.2061C35.8816 23.1374 35.8779 23.0699 35.8592 23.0036C35.6589 22.2611 35.2993 21.7542 34.8862 21.4155C35.6639 21.402 36.4205 21.5162 37.1584 21.7579C37.2243 21.78 37.2865 21.8033 37.345 21.8267C37.6486 21.942 38.2136 22.1592 38.6267 21.5309C38.8831 21.1406 38.8594 20.5258 38.0232 19.9661C37.523 19.6323 36.8697 19.3795 36.1641 19.2163C36.5872 18.8555 36.9431 18.2836 37.0451 17.4012C37.0513 17.3521 37.0464 17.303 37.0327 17.2551C37.019 17.2085 36.9966 17.1643 36.9655 17.1263C36.9331 17.087 36.8958 17.0563 36.8522 17.0318C36.8087 17.0072 36.7614 16.9925 36.7116 16.9876C36.6619 16.9815 36.6121 16.9852 36.5648 16.9999C36.5163 17.0134 36.4727 17.0355 36.4329 17.0662C36.3931 17.0968 36.362 17.1336 36.3371 17.1766C36.3122 17.2208 36.2973 17.2662 36.2923 17.3153C36.0982 18.9856 34.8538 19.004 34.7144 19.0077C34.702 19.0089 34.6908 19.0101 34.6783 19.0113C33.9678 18.9758 33.2685 19.0273 32.6662 19.1782C32.6998 18.7683 32.7135 18.3425 32.7185 17.9154C32.7832 17.8307 32.8143 17.7362 32.8105 17.6307C32.8093 17.6209 32.7657 16.6427 33.4153 15.9678C33.8558 15.51 34.5278 15.2793 35.4138 15.2793C35.476 15.278 35.5345 15.2658 35.5917 15.2412C35.6489 15.2179 35.6987 15.1835 35.7423 15.1406C35.7846 15.0976 35.8182 15.0473 35.8418 14.9909C35.8655 14.9344 35.8767 14.8755 35.8767 14.8154C35.8767 14.754 35.8655 14.6951 35.8418 14.6386C35.8182 14.5822 35.7846 14.5331 35.7423 14.4902C35.6987 14.446 35.6489 14.4128 35.5917 14.3883C35.5345 14.365 35.476 14.3527 35.4138 14.3515C34.254 14.3515 33.3506 14.6828 32.7259 15.3382C32.6762 15.391 32.6401 15.4474 32.5953 15.5014C32.4995 14.6902 32.3539 13.9686 32.161 13.4629C31.8474 12.6468 31.2949 12.0626 30.7511 11.9767C30.6043 11.951 30.4612 11.9645 30.3218 12.0172C30.1824 12.07 30.0667 12.1547 29.9746 12.2713C29.559 12.7794 29.7046 13.4494 29.8116 13.9391C29.8278 14.014 29.844 14.0839 29.8564 14.1502C30.3803 16.9582 30.068 20.1134 29.2367 20.8989C29.0725 20.7994 28.9057 20.7013 28.739 20.6031C28.3918 20.3969 28.0483 20.1944 27.7236 19.9833C27.7261 19.9833 27.7261 14.0643 27.7261 14.0643C27.7261 11.7202 28.3831 10.1678 29.625 9.57256C31.0821 8.87671 33.0408 9.58728 34.3361 10.5998C37.513 13.0813 43.6677 21.0989 44.2264 33.6794C44.3583 36.642 42.4532 39.0364 39.7927 39.2475C39.0548 39.3076 37.7781 38.9591 37.0551 38.505L31.8997 35.2675C29.2865 33.6893 27.7261 30.9672 27.7261 27.9862V23.5424Z" fill="#00ADEF"/>
</svg>
