<svg width="46" height="43" viewBox="0 0 46 43" fill="none" xmlns="http://www.w3.org/2000/svg">
<path d="M45.507 30.6561C44.9954 26.9071 44.0535 23.413 42.705 20.2708C40.8292 15.9051 38.7847 12.8794 36.2644 10.747C34.3251 9.10474 32.0367 8.16403 29.9863 8.16403C29.1456 8.1581 28.3405 8.32016 27.5691 8.65217C26.3635 9.17589 26.064 10.2688 25.9193 11.3715C25.8063 12.2589 25.7606 13.1502 25.7805 14.0435C25.5802 13.3597 25.4473 12.6621 25.3819 11.9526C25.1201 9.70158 24.9932 7.44466 25.0032 5.17984C25.0388 5.09091 25.0388 5.00198 25.0032 4.91304C25.0032 3.27668 25.0488 1.6581 25.0884 0.43083C25.1003 0.294466 25.0527 0.185771 24.9417 0.104743L24.902 0.0632411H24.8862C24.8168 0.0197628 24.7414 0 24.6601 0H21.3049C21.184 0.00197628 21.0809 0.0454546 20.9976 0.132411C20.9143 0.215415 20.8746 0.314229 20.8786 0.43083C20.9976 4.13439 21.0432 8.09289 20.5851 11.9526C20.5217 12.6206 20.3987 13.2767 20.2183 13.9209C20.2599 12.666 20.1965 11.2154 19.7186 9.96443C19.322 8.93083 18.1857 8.31818 16.4308 8.19368C16.2662 8.18182 16.1016 8.17589 15.939 8.17589C13.5674 8.17589 11.5051 9.36166 10.1924 10.3557C6.9245 12.832 4.89395 16.6937 3.65261 19.3814C1.19969 24.6957 0.00396567 30.8221 0 38.1126C0 39.3498 0.113029 40.3281 0.349001 41.1067C0.727746 42.3617 1.4079 42.998 2.36765 42.998C2.53026 42.996 2.69088 42.9802 2.84951 42.9466C3.78547 42.7609 4.5033 42.1028 5.19536 41.4644C5.35796 41.3162 5.51858 41.168 5.6792 41.0296C6.80354 40.0593 8.28878 39.3241 10.2202 38.7806C11.2593 38.4822 12.3182 38.3123 13.3989 38.2668L13.6388 38.2589C14.3031 38.2372 14.9297 38.2194 15.5762 37.8656C17.3172 36.919 17.8229 34.4447 18.0509 32.666C18.0906 32.3577 18.1262 32.0514 18.16 31.747C18.2928 30.6047 18.4177 29.5237 18.7251 28.4308C18.9333 27.6976 19.2189 26.9743 19.4945 26.2767C19.5778 26.0652 19.6591 25.8538 19.7424 25.6423C20.486 23.7036 20.3829 21.6186 20.2837 19.6028C20.2718 19.3617 20.2599 19.1225 20.248 18.8854C21.408 17.8083 22.3182 16.5534 22.9825 15.1206C23.6508 16.5494 24.5629 17.8063 25.717 18.8854C25.7051 19.1759 25.6873 19.4704 25.6714 19.7668C25.598 21.1245 25.5207 22.5277 25.723 23.8557C25.8578 24.749 26.1949 25.5909 26.5221 26.4071C26.6193 26.6542 26.7184 26.8992 26.8116 27.1482C27.4025 28.7174 27.6583 30.3083 27.8606 32.2134C27.9915 33.4545 28.2433 35.0593 29.0365 36.4565C29.5759 37.4071 30.3988 38.0316 31.3526 38.2134C31.6203 38.2589 31.89 38.2787 32.1616 38.2727H32.5007C32.6177 38.2727 32.7327 38.2727 32.8477 38.2787C35.2789 38.4466 37.5196 39.1838 39.5739 40.4921C39.9805 40.7787 40.3671 41.0929 40.728 41.4348C41.317 41.9644 41.9238 42.5138 42.6951 42.8142C42.9827 42.9308 43.2841 42.9941 43.5954 43C45.4891 43 45.8679 40.2213 45.9432 39.0277C46.0919 36.6403 45.9492 33.9012 45.507 30.6561ZM40.2739 40.0909C39.5739 39.5791 38.8264 39.1542 38.0312 38.8142C36.6709 38.2134 35.2531 37.8202 33.7778 37.6344C32.707 37.5 31.5013 37.7293 30.5634 37.1067C29.4073 36.3419 29.0187 34.6739 28.7747 33.4111C28.4019 31.5 28.3901 29.5988 27.7912 27.7253C27.4105 26.5316 26.8275 25.4032 26.53 24.1818C26.3575 23.4842 26.3754 22.751 26.3734 22.0356C26.3694 21.1423 26.3972 20.251 26.4329 19.3597C28.2037 20.8597 30.145 22.0929 32.2568 23.0613C31.9217 23.998 31.5192 24.9051 31.0492 25.7826C30.9699 25.7826 30.9124 25.8182 30.8767 25.8893C30.7993 26.0316 30.3968 26.087 30.1807 26.1186C30.1351 26.1245 30.0954 26.1304 30.0657 26.1344C29.7226 26.1937 29.3895 26.2372 29.0722 26.2609C29.0127 26.2668 28.9631 26.2905 28.9235 26.336C28.8838 26.3814 28.866 26.4348 28.8699 26.4941C28.8679 26.5474 28.8878 26.5929 28.9235 26.6304C28.9611 26.668 29.0068 26.6858 29.0603 26.6858C29.0603 26.6858 29.0722 26.6838 29.0781 26.6838C29.5084 26.6542 29.9328 26.5968 30.3532 26.5099L30.4444 26.4921C30.5158 26.4763 30.5931 26.4625 30.6705 26.4427C30.4087 26.8755 30.1212 27.2925 29.8118 27.6917C29.7543 27.7668 29.7464 27.8458 29.788 27.9308C29.8257 28.0119 29.8872 28.0534 29.9764 28.0593C30.0359 28.0593 30.0835 28.0336 30.1192 27.9842C31.0928 26.7312 31.9058 25.2154 32.5979 23.3617C32.9945 23.9348 33.284 24.6047 33.5636 25.2569C33.6489 25.4585 33.7361 25.6581 33.8234 25.8518C33.9622 26.1581 34.1228 26.5099 34.2993 26.8834C34.2913 26.8972 34.2854 26.9111 34.2794 26.9269C33.865 28.2352 33.3633 29.5455 32.8815 30.8103C32.701 31.2826 32.5186 31.7628 32.3381 32.2451C32.3223 32.249 32.3064 32.2549 32.2905 32.2628L32.2767 32.2688C32.1914 32.3083 32.1121 32.3577 32.0367 32.413C31.9296 32.4625 31.8166 32.4881 31.6996 32.4862C31.6481 32.4901 31.6005 32.4941 31.5668 32.5C31.2316 32.5514 30.9064 32.6364 30.5892 32.7549C30.5376 32.7767 30.4999 32.8103 30.4741 32.8597C30.4484 32.9071 30.4404 32.9585 30.4543 33.0119C30.4662 33.1186 30.5257 33.1719 30.6328 33.1759C30.6605 33.1759 30.6863 33.1719 30.7101 33.1601C31.0631 33.0316 31.424 32.9407 31.7948 32.8893C31.8285 32.8834 31.8662 32.8794 31.9058 32.8755C31.9792 32.8696 32.0486 32.8577 32.118 32.8419C31.9673 33.2589 31.8186 33.6759 31.6778 34.0949C31.654 34.1581 31.6619 34.2154 31.6996 34.2708C31.7472 34.33 31.8067 34.3597 31.882 34.3577C31.9871 34.3597 32.0546 34.3103 32.0863 34.2115C32.4135 33.2372 32.7803 32.2609 33.1432 31.3083C33.2086 31.5494 33.278 31.7885 33.3494 32.0237C33.397 32.1818 33.4446 32.3419 33.4922 32.502C33.518 32.6047 33.5834 32.6561 33.6885 32.6522C33.7639 32.6542 33.8253 32.6245 33.871 32.5672C33.9106 32.5119 33.9205 32.4545 33.9007 32.3893C33.8551 32.2293 33.8075 32.0692 33.7579 31.9091C33.6211 31.4862 33.5101 31.0553 33.4228 30.6186C33.4208 30.6107 33.4169 30.6047 33.4149 30.5968C33.8115 29.5593 34.212 28.496 34.563 27.4269C34.7177 27.7411 34.8803 28.0652 35.0528 28.3874C35.3443 28.9605 35.6041 29.5474 35.8341 30.1482C35.9392 30.4091 36.0443 30.6719 36.1573 30.9328C36.1335 30.9664 36.1216 31.004 36.1196 31.0455C36.0978 31.5316 36.0423 32.0237 35.9868 32.5C35.8995 33.1621 35.8519 33.8281 35.846 34.4941C35.846 34.5534 35.8658 34.6028 35.9094 34.6443C35.9511 34.6838 36.0007 34.7036 36.0601 34.7016C36.1196 34.7016 36.1712 34.6818 36.2148 34.6403C36.2525 34.5988 36.2723 34.5514 36.2703 34.4941C36.2763 33.83 36.3239 33.168 36.4111 32.5099C36.4429 32.2372 36.4726 31.9585 36.4984 31.6779C36.6828 32.0573 36.8989 32.419 37.1428 32.7609C37.1865 32.8221 37.246 32.8538 37.3213 32.8518C37.3312 32.8518 37.3431 32.8498 37.355 32.8478C37.7258 33.1067 38.1145 33.3399 38.517 33.5455C38.8383 33.7154 39.1674 33.8933 39.4748 34.0968C39.5085 34.1186 39.5442 34.1304 39.5858 34.1324C39.689 34.1225 39.7544 34.0692 39.7802 33.9704C39.8079 33.8696 39.7782 33.7905 39.6929 33.7332C39.3915 33.5336 39.0663 33.3617 38.751 33.1957C38.3267 32.9862 37.9221 32.7431 37.5394 32.4644C37.5037 32.4368 37.4661 32.4229 37.4224 32.419C36.8157 31.5455 36.3913 30.5277 35.9848 29.5395C35.7349 28.9328 35.4752 28.3043 35.1777 27.7213C34.8287 27.0415 34.5075 26.334 34.1981 25.6522C34.0911 25.417 33.984 25.1818 33.8769 24.9466C33.8333 24.8518 33.7897 24.7569 33.746 24.6621C33.5339 24.1621 33.286 23.6779 33.0024 23.2134C33.4367 23.3874 33.8412 23.6166 34.212 23.9012C34.4044 24.0474 34.5928 24.1976 34.7811 24.3478C35.1559 24.6462 35.5426 24.9545 35.9491 25.2194C36.6293 25.664 37.357 26.1225 38.174 26.6225C38.1561 26.6818 38.166 26.7372 38.2037 26.7866C38.64 27.3913 38.7332 28.1897 38.8224 28.9605C38.8621 29.3043 38.9017 29.6304 38.9672 29.9407C38.985 30.0455 39.0485 30.0988 39.1555 30.0949C39.2309 30.0949 39.2904 30.0672 39.338 30.0099C39.3796 29.9565 39.3935 29.8972 39.3776 29.832C39.3102 29.5198 39.2706 29.1917 39.2289 28.8459C39.1536 28.2174 39.0742 27.5751 38.8224 27.0158C39.0881 27.1759 39.3598 27.3379 39.6473 27.5079C39.681 27.5296 39.7167 27.5395 39.7544 27.5395C39.8635 27.5356 39.9309 27.4802 39.9567 27.3755C39.9864 27.2727 39.9547 27.1957 39.8615 27.1443C39.5878 26.9802 39.3122 26.8202 39.0346 26.6581C38.4456 26.3142 37.8468 25.9625 37.2618 25.5929C37.6227 25.4802 37.9717 25.33 38.3029 25.1462C38.4337 25.0791 38.5646 25.0119 38.6935 24.9506C38.7907 24.9091 38.8264 24.8399 38.8006 24.7391C38.7748 24.6225 38.7014 24.5632 38.5825 24.5593C38.5488 24.5593 38.517 24.5672 38.4873 24.581C38.3604 24.6403 38.2374 24.7055 38.1125 24.7688C37.7318 24.9901 37.3253 25.1482 36.895 25.2431C36.8573 25.249 36.8236 25.2668 36.7938 25.2945C36.4468 25.0652 36.1058 24.83 35.7766 24.583C35.5684 24.4249 35.3602 24.2589 35.1579 24.0968C34.8029 23.8123 34.4361 23.5178 34.0494 23.2648C33.6429 23.002 33.2106 22.8043 32.7486 22.666C32.7308 22.6344 32.707 22.6087 32.6752 22.587C32.6594 22.5751 32.6395 22.5632 32.6197 22.5553C28.7668 20.7984 24.9476 18.0988 23.3137 14.0672C23.2879 14.002 23.2463 13.9506 23.1848 13.913C23.1253 13.8755 23.0599 13.8577 22.9904 13.8636H22.9766C22.8179 13.8518 22.7109 13.9209 22.6514 14.0672C21.0174 18.0988 17.1982 20.7984 13.3453 22.5553C13.3255 22.5632 13.3077 22.5751 13.2898 22.587C13.2601 22.6087 13.2363 22.6344 13.2184 22.666C12.7564 22.8043 12.3221 23.002 11.9176 23.2648C11.5309 23.5178 11.1621 23.8123 10.8071 24.0968C10.6069 24.2589 10.3986 24.4249 10.1885 24.583C9.86126 24.83 9.51821 25.0652 9.17119 25.2945C9.14343 25.2668 9.10972 25.249 9.07006 25.2431C8.64174 25.1482 8.23524 24.9901 7.85451 24.7688C7.72958 24.7055 7.60465 24.6403 7.47973 24.581C7.44998 24.5672 7.41826 24.5593 7.38455 24.5593C7.26359 24.5632 7.1922 24.6225 7.16444 24.7391C7.14064 24.8399 7.17634 24.9111 7.27152 24.9506C7.40239 25.0119 7.53129 25.0791 7.66216 25.1462C7.9953 25.33 8.34232 25.4802 8.7052 25.5929C8.11824 25.9625 7.51939 26.3142 6.93243 26.6581C6.65482 26.8202 6.37919 26.9822 6.10355 27.1443C6.01035 27.1957 5.97863 27.2727 6.01035 27.3755C6.03613 27.4802 6.10355 27.5356 6.21262 27.5395C6.25029 27.5395 6.28599 27.5296 6.3197 27.5079C6.60524 27.3379 6.87889 27.1759 7.14461 27.0138C6.89079 27.5751 6.81345 28.2194 6.73612 28.8459C6.69448 29.1917 6.65482 29.5198 6.58938 29.832C6.57352 29.8972 6.5874 29.9565 6.62904 30.0099C6.67663 30.0672 6.73612 30.0949 6.80949 30.0949C6.91855 30.0988 6.98201 30.0455 6.99985 29.9407C7.06529 29.6304 7.10297 29.3043 7.14461 28.9605C7.23384 28.1897 7.32704 27.3913 7.76131 26.7866C7.80097 26.7372 7.81088 26.6818 7.79105 26.6225C8.60803 26.1225 9.33578 25.664 10.0179 25.2194C10.4244 24.9545 10.8111 24.6462 11.1839 24.3478C11.3743 24.1976 11.5607 24.0474 11.753 23.9012C12.1258 23.6166 12.5283 23.3874 12.9646 23.2134C12.681 23.6779 12.4332 24.1621 12.219 24.6621C12.1774 24.7569 12.1337 24.8518 12.0901 24.9466C11.981 25.1818 11.876 25.417 11.7669 25.6522C11.4575 26.334 11.1363 27.0415 10.7893 27.7213C10.4899 28.3043 10.2321 28.9328 9.98024 29.5395C9.57374 30.5277 9.15136 31.5455 8.54458 32.419C8.50095 32.4229 8.46129 32.4368 8.42758 32.4644C8.04487 32.7431 7.64035 32.9881 7.21401 33.1957C6.89872 33.3617 6.5755 33.5336 6.27409 33.7332C6.18882 33.7905 6.15908 33.8696 6.18684 33.9704C6.21262 34.0692 6.27805 34.1225 6.38117 34.1324C6.42083 34.1304 6.4585 34.1186 6.49221 34.0949C6.79759 33.8933 7.12874 33.7154 7.448 33.5455C7.85252 33.3399 8.2392 33.1067 8.61002 32.8478C8.62191 32.8498 8.63381 32.8518 8.64571 32.8518C8.72106 32.8538 8.78055 32.8221 8.82219 32.7609C9.06808 32.417 9.28224 32.0573 9.46665 31.6779C9.49243 31.9585 9.52416 32.2372 9.55391 32.5099C9.64314 33.168 9.69073 33.83 9.69668 34.4941C9.6947 34.5514 9.71254 34.5988 9.7522 34.6403C9.79384 34.6818 9.8454 34.7016 9.90687 34.7016C9.96438 34.7036 10.0159 34.6838 10.0576 34.6443C10.0992 34.6028 10.121 34.5534 10.121 34.4941C10.1151 33.8281 10.0675 33.1621 9.97826 32.5C9.92472 32.0237 9.8692 31.5316 9.84738 31.0455C9.8454 31.004 9.8335 30.9664 9.80971 30.9328C9.92075 30.6719 10.0278 30.4091 10.1329 30.1482C10.361 29.5474 10.6227 28.9605 10.9142 28.3874C11.0848 28.0652 11.2493 27.7411 11.404 27.4269C11.755 28.496 12.1556 29.5593 12.5521 30.5968C12.5482 30.6047 12.5462 30.6107 12.5442 30.6186C12.457 31.0553 12.3439 31.4862 12.2071 31.9091C12.1595 32.0692 12.1119 32.2293 12.0663 32.3893C12.0445 32.4545 12.0544 32.5119 12.0941 32.5672C12.1417 32.6245 12.2031 32.6542 12.2765 32.6522C12.3836 32.6561 12.449 32.6047 12.4748 32.502C12.5204 32.3419 12.568 32.1818 12.6156 32.0237C12.687 31.7885 12.7584 31.5494 12.8218 31.3083C13.1847 32.2609 13.5535 33.2372 13.8807 34.2115C13.9125 34.3103 13.9799 34.3597 14.083 34.3577C14.1583 34.3597 14.2198 34.33 14.2654 34.2708C14.3031 34.2154 14.311 34.1581 14.2872 34.0949C14.1484 33.6759 13.9977 33.2589 13.847 32.8419C13.9164 32.8577 13.9878 32.8696 14.0592 32.8755C14.0989 32.8794 14.1365 32.8834 14.1702 32.8893C14.543 32.9407 14.9039 33.0316 15.2549 33.1601C15.2807 33.1719 15.3065 33.1759 15.3342 33.1759C15.4393 33.1719 15.4988 33.1186 15.5127 33.0119C15.5246 32.9585 15.5187 32.9071 15.4929 32.8597C15.4671 32.8103 15.4274 32.7767 15.3779 32.7549C15.0606 32.6364 14.7354 32.5514 14.4003 32.5C14.3646 32.4941 14.317 32.4901 14.2674 32.4862C14.1484 32.4881 14.0374 32.4625 13.9303 32.413C13.8549 32.3577 13.7736 32.3083 13.6884 32.2688L13.6745 32.2628C13.6606 32.2549 13.6448 32.249 13.6269 32.2451C13.4484 31.7628 13.266 31.2826 13.0856 30.8103C12.6017 29.5455 12.102 28.2352 11.6876 26.9269C11.6816 26.9111 11.6737 26.8972 11.6658 26.8834C11.8422 26.5099 12.0048 26.1581 12.1437 25.8518C12.2309 25.6581 12.3162 25.4585 12.4014 25.2569C12.683 24.6047 12.9725 23.9348 13.3691 23.3617C14.0592 25.2154 14.8722 26.7312 15.8478 27.9842C15.8815 28.0336 15.9291 28.0593 15.9906 28.0593C16.0778 28.0534 16.1413 28.0119 16.177 27.9308C16.2206 27.8458 16.2127 27.7668 16.1552 27.6917C15.8439 27.2925 15.5583 26.8755 15.2946 26.4427C15.3739 26.4625 15.4512 26.4763 15.5206 26.4921L15.6138 26.5099C16.0342 26.5968 16.4586 26.6542 16.8869 26.6838C16.8948 26.6838 16.9067 26.6858 16.9067 26.6858C16.9583 26.6858 17.0039 26.668 17.0416 26.6304C17.0792 26.5929 17.0971 26.5474 17.0951 26.4941C17.0991 26.4348 17.0832 26.3814 17.0435 26.336C17.0039 26.2905 16.9543 26.2648 16.8928 26.2609C16.5776 26.2372 16.2424 26.1937 15.9014 26.1344C15.8696 26.1304 15.832 26.1245 15.7864 26.1186C15.5702 26.087 15.1677 26.0316 15.0883 25.8893C15.0527 25.8182 14.9971 25.7826 14.9178 25.7826H14.9158C14.4479 24.9051 14.0453 23.998 13.7102 23.0613C15.8181 22.081 17.7614 20.8439 19.5381 19.3439C19.6174 20.8557 19.7503 22.4545 19.4905 23.9308C19.2883 25.0791 18.731 26.1561 18.3384 27.247C17.7554 28.8636 17.5512 30.502 17.3707 32.2016C17.2161 33.6798 16.9127 35.3794 15.9589 36.5771C15.1895 37.5435 14.2317 37.4881 13.1113 37.5474C11.6737 37.6383 10.2777 37.9289 8.92332 38.419C7.41429 38.9308 6.06389 39.7115 4.87015 40.7648C4.17017 41.3972 3.17075 42.4723 2.09996 42.2411C0.97165 42 0.840775 40.0949 0.771372 39.2293C0.666275 37.8953 0.737661 36.5277 0.795167 35.1897C0.920094 31.9269 1.396 28.7154 2.21893 25.5534C3.25602 21.6285 4.93559 17.8182 7.28143 14.4941C9.00264 12.0534 11.3901 9.82411 14.3685 9.10474C15.6832 8.78656 17.807 8.68972 18.8143 9.81818C19.1217 10.164 19.201 10.7431 19.2803 11.1779C19.3874 11.8617 19.4409 12.5514 19.4409 13.2431C19.4568 14.087 19.431 14.9308 19.3616 15.7708C18.7866 16.4625 18.1441 17.083 17.4302 17.6304C16.0223 18.749 14.5014 19.6858 12.8674 20.4387C12.8417 20.4506 12.8179 20.4664 12.796 20.4842C12.3162 20.5692 11.8343 20.6067 11.3465 20.5968C11.1998 20.5968 11.051 20.5949 10.9023 20.5949C10.7516 20.5929 10.6009 20.5909 10.4482 20.5909C10.3848 20.5909 10.3193 20.5909 10.2559 20.5909C10.2222 20.5929 10.1885 20.5929 10.1547 20.5929C10.1468 20.5791 10.1389 20.5672 10.127 20.5553C9.80177 20.1996 9.52614 19.8103 9.30207 19.3834C9.40717 18.9585 9.54796 18.5455 9.72047 18.1443C9.77203 18.0158 9.82359 17.8874 9.87118 17.7589C9.89894 17.6996 9.89299 17.6403 9.8573 17.587C9.81169 17.5257 9.75022 17.496 9.67288 17.498C9.57175 17.496 9.50037 17.5435 9.46467 17.6383C9.41708 17.7668 9.36552 17.8953 9.31397 18.0217C9.21085 18.2806 9.10774 18.5455 9.01851 18.8162C8.89556 18.5534 8.77857 18.2866 8.66554 18.0217C8.59415 17.8557 8.52277 17.6917 8.45138 17.5277C8.42163 17.4526 8.36611 17.415 8.28679 17.415C8.20351 17.417 8.14005 17.4545 8.09643 17.5237C8.0528 17.5909 8.04685 17.6601 8.08057 17.7332C8.14799 17.8854 8.21342 18.0375 8.28084 18.1917C8.64174 19.0277 9.01851 19.8874 9.60745 20.6028C9.50037 20.6047 9.39329 20.6067 9.28621 20.6067C8.72701 20.6245 8.17773 20.5553 7.64035 20.3972C7.61655 20.3893 7.59474 20.3854 7.57094 20.3854C7.52137 20.3874 7.47775 20.4051 7.44205 20.4387C7.40438 20.4723 7.38455 20.5138 7.3786 20.5652C7.36868 20.6166 7.37661 20.666 7.40438 20.7115C7.43214 20.7569 7.4718 20.7885 7.52335 20.8043C8.10238 20.9743 8.69528 21.0514 9.30009 21.0316C9.5202 21.0316 9.73832 21.0277 9.95843 21.0217C10.0576 21.0198 10.1567 21.0178 10.2559 21.0158C10.3709 21.0119 10.4859 21.0119 10.6009 21.0119C10.7219 21.0119 10.8448 21.0138 10.9658 21.0138C11.0867 21.0138 11.2057 21.0158 11.3267 21.0158C11.8284 21.0257 12.3261 20.9901 12.8218 20.9111C12.8357 20.9229 12.8496 20.9348 12.8674 20.9466C12.9666 21.0138 13.0717 21.0217 13.1788 20.9684C14.8028 20.2036 16.3218 19.2708 17.7376 18.168C18.7608 17.3735 19.7186 16.4506 20.3948 15.3419C20.9103 14.5 21.0987 13.5316 21.2395 12.5711C21.2653 12.3972 21.2871 12.2253 21.3109 12.0514C21.5687 12.1897 21.8423 12.2905 22.1298 12.3538C22.4174 12.417 22.7089 12.4387 23.0023 12.419C23.2958 12.4012 23.5814 12.3419 23.857 12.2431C24.1346 12.1443 24.3924 12.0099 24.6323 11.8399C24.6522 11.998 24.67 12.1561 24.6918 12.3142C24.8207 13.2708 24.9873 14.2194 25.4275 15.087C26.0065 16.2292 26.996 17.1621 27.9716 17.9605C29.449 19.1601 31.0512 20.1601 32.7764 20.9625C32.7803 20.9644 32.7823 20.9664 32.7863 20.9684C32.8953 21.0217 32.9985 21.0138 33.0996 20.9466C33.1154 20.9348 33.1313 20.9229 33.1452 20.9111C33.6389 20.9901 34.1387 21.0257 34.6403 21.0158C34.7593 21.0158 34.8803 21.0158 35.0012 21.0138C35.1222 21.0138 35.2432 21.0119 35.3661 21.0119C35.4811 21.0119 35.5941 21.0119 35.7092 21.0158C35.8083 21.0178 35.9075 21.0198 36.0086 21.0217C36.2267 21.0277 36.4468 21.0316 36.6649 21.0316C37.2697 21.0514 37.8627 20.9743 38.4437 20.8043C38.4952 20.7885 38.5329 20.7569 38.5607 20.7115C38.5884 20.666 38.5983 20.6166 38.5884 20.5652C38.5825 20.5138 38.5607 20.4723 38.525 20.4387C38.4893 20.4051 38.4456 20.3874 38.3961 20.3854C38.3723 20.3854 38.3485 20.3893 38.3267 20.3972C37.7893 20.5553 37.24 20.6245 36.6788 20.6067C36.5717 20.6067 36.4647 20.6047 36.3576 20.6028C36.9485 19.8874 37.3233 19.0277 37.6862 18.1917C37.7516 18.0395 37.819 17.8854 37.8865 17.7332C37.9202 17.6601 37.9142 17.5909 37.8686 17.5237C37.825 17.4526 37.7615 17.417 37.6802 17.415C37.5989 17.415 37.5434 17.4526 37.5156 17.5277C37.4423 17.6917 37.3709 17.8557 37.2995 18.0217C37.1865 18.2866 37.0695 18.5534 36.9465 18.8162C36.8593 18.5455 36.7562 18.2806 36.653 18.0217C36.6015 17.8953 36.5499 17.7668 36.5004 17.6383C36.4647 17.5435 36.3953 17.496 36.2921 17.498C36.2168 17.496 36.1553 17.5257 36.1097 17.587C36.072 17.6403 36.0681 17.6996 36.0939 17.7589C36.1434 17.8874 36.195 18.0158 36.2446 18.1443C36.4191 18.5455 36.5579 18.9585 36.663 19.3834C36.4409 19.8103 36.1652 20.2016 35.8381 20.5553C35.8281 20.5672 35.8182 20.5791 35.8103 20.5929C35.7766 20.5929 35.7449 20.5929 35.7111 20.5909C35.6457 20.5909 35.5822 20.5909 35.5168 20.5909C35.3661 20.5909 35.2154 20.5929 35.0647 20.5949C34.916 20.5949 34.7673 20.5968 34.6185 20.5968C34.1327 20.6067 33.6489 20.5692 33.171 20.4842C33.1492 20.4664 33.1254 20.4506 33.0996 20.4387C31.5211 19.7016 30.0419 18.8004 28.6657 17.7332C27.8963 17.1581 27.2082 16.496 26.6034 15.749V15.747C26.5439 15.0158 26.5241 14.2806 26.5241 13.5494C26.5241 12.3992 26.4943 10.9901 27.0634 9.95059C27.6841 8.81818 29.788 8.84585 30.845 8.9664C33.633 9.28656 35.9888 11.2154 37.7417 13.2747C40.4008 16.4012 42.1855 20.3775 43.3812 24.2708C44.3727 27.4921 44.9041 30.8399 45.1183 34.1976C45.1996 35.4565 45.2274 36.7194 45.2313 37.9822C45.2333 39.2213 45.2789 41.0059 44.341 41.9723C43.6132 42.7253 42.4453 41.9229 41.8306 41.4289C41.2952 41.002 40.8232 40.5059 40.2739 40.0909ZM21.7035 5.65217C22.114 5.83004 22.5423 5.91502 22.9904 5.90711C23.4366 5.89921 23.863 5.8004 24.2675 5.61067C24.2714 6.07312 24.2794 6.53557 24.2913 6.99605C23.9165 7.57312 22.2151 7.74901 21.8126 7.13241C21.7789 7.08103 21.7352 7.04348 21.6817 7.01976C21.6936 6.56324 21.6995 6.1087 21.7035 5.65217ZM21.6876 3.25692C22.3856 3.66206 23.5239 3.6166 24.2814 3.24506C24.2714 3.79644 24.2675 4.3498 24.2655 4.90316C23.5417 5.43874 22.4729 5.39723 21.7035 4.97629C21.7035 4.40119 21.6976 3.82806 21.6876 3.25692ZM21.7967 2.56324C21.763 2.52569 21.7194 2.49605 21.6698 2.48024C21.6579 1.89723 21.642 1.31423 21.6242 0.733202H24.3428C24.325 1.32016 24.3091 1.91107 24.2952 2.50198C23.7579 2.99209 22.2964 3.11462 21.7967 2.56324ZM21.6559 7.81028C22.3618 8.27273 23.5635 8.21937 24.317 7.77273C24.3349 8.26087 24.3587 8.74704 24.3904 9.23123C23.7539 9.78261 22.2805 10.0237 21.7432 9.28261C21.7035 9.22727 21.6519 9.18775 21.5885 9.16601C21.6163 8.71542 21.6401 8.26285 21.6559 7.81028ZM21.533 9.92292C22.3043 10.5198 23.5834 10.4545 24.442 9.95059C24.4717 10.332 24.5074 10.7154 24.5471 11.0968L24.5451 11.0988C23.7935 11.9012 22.2667 12.0988 21.3922 11.3755C21.4477 10.8933 21.4953 10.4091 21.533 9.92292Z" fill="#00ADEF"/>
</svg>
