<?xml version="1.0" encoding="UTF-8"?>
<svg data-bbox="0.012 0 51.988 44.346" xmlns="http://www.w3.org/2000/svg" viewBox="0 0 52 45" height="45" width="52" data-type="color">
    <g>
        <path fill="#00ADEF" d="M29.029 44.345a.8.8 0 0 1-.758-.546c-2.798-8.306-8.21-12.888-12.987-16.934-1.8-1.525-3.497-2.964-4.946-4.502a.8.8 0 1 1 1.168-1.095c1.383 1.472 3.05 2.881 4.813 4.376 4.539 3.844 9.634 8.158 12.71 15.615 3.08-7.457 8.174-11.77 12.713-15.615 4.84-4.098 8.657-7.334 8.657-13.076C50.4 6.315 45.98 1.6 40.114 1.6c-6.791 0-10.357 5.955-10.394 6.014-.287.493-1.095.493-1.38 0-.035-.06-3.602-6.014-10.393-6.014-5.574 0-9.785 4.092-10.245 9.948a.802.802 0 0 1-1.598-.126C6.627 4.803 11.605 0 17.947 0c5.968 0 9.643 3.894 11.082 5.796C30.471 3.894 34.147 0 40.114 0 46.89 0 52 5.402 52 12.568c0 6.487-4.274 10.106-9.222 14.297C38 30.911 32.588 35.493 29.79 43.8a.81.81 0 0 1-.761.546" data-color="1"/>
        <mask height="23" width="43" y="5" x="0" maskUnits="userSpaceOnUse" style="mask-type:luminance" id="c0dee646-1b64-4234-8eab-6786e74941f3" fill="none">
            <path fill="#ffffff" d="M0 5.922h42.78V27.94H0z"/>
        </mask>
        <g mask="url(#c0dee646-1b64-4234-8eab-6786e74941f3)">
            <path fill="#00ADEF" d="M24.482 27.148a.8.8 0 0 1-.768-.572l-4.882-16.518-2.637 7.47a.8.8 0 0 1-.754.533H.812a.8.8 0 0 1-.8-.8.8.8 0 0 1 .8-.802h14.063l3.268-9.262a.83.83 0 0 1 .774-.533c.348.01.649.242.748.573l4.813 16.275 1.896-6.477a.8.8 0 0 1 .767-.576h14.364a.8.8 0 0 1 .8.801.8.8 0 0 1-.8.8H27.743l-2.494 8.516a.795.795 0 0 1-.767.572" data-color="1"/>
        </g>
    </g>
</svg>
