<?xml version="1.0" encoding="UTF-8"?>
<svg data-bbox="0.141 0 48.574 43.022" xmlns="http://www.w3.org/2000/svg" viewBox="0 0 49 44" height="44" width="49" data-type="color">
    <g>
        <mask height="44" width="49" y="0" x="0" maskUnits="userSpaceOnUse" style="mask-type:luminance" id="42273035-ae8f-41f8-af09-646d71e916ec" fill="none">
            <path fill="#ffffff" d="M0 0h49v43.025H0z"/>
        </mask>
        <g mask="url(#42273035-ae8f-41f8-af09-646d71e916ec)">
            <path fill="#00ADEF" d="M44.146 24.557q.09-.095.175-.19l.165-.187.076-.086q.3-.346.58-.697c2.669-3.37 3.851-7.234 3.518-11.523C48.232 6.4 43.224 1.04 37.72.168A13.6 13.6 0 0 0 35.62 0c-2.518 0-4.85.726-6.93 2.159-1.693 1.166-3.157 2.777-4.264 4.688-1.106-1.912-2.57-3.522-4.26-4.688A12 12 0 0 0 13.236 0c-.69 0-1.397.054-2.104.168C5.632 1.04.621 6.4.196 11.874c-.19 2.438.11 4.74.894 6.888h2.577c-.916-2.073-1.284-4.314-1.097-6.704.34-4.384 4.517-8.844 8.936-9.544.583-.092 1.167-.14 1.73-.14 3.9 0 7.32 2.229 9.377 6.112.159.295.324.57.485.833q.101.166.194.327c.33.666.903.735 1.134.735.232 0 .802-.07 1.135-.735l.197-.327c.158-.263.326-.535.482-.833 2.06-3.883 5.477-6.112 9.38-6.112.564 0 1.147.048 1.727.14 4.422.7 8.597 5.16 8.939 9.544.336 4.295-1.119 8.106-4.32 11.339H30.57c-.463 0-.821.307-.964.732l-.802 2.406q-.123-.737-.24-1.474l-1.532-9.357-.593-3.633c-.158-.957-1.765-.954-1.927 0l-.903 5.344-1.316 7.801-.37-1.829q-.39-1.92-.777-3.841c-.178-.866-1.417-.951-1.826-.241q-1.184 2.048-2.362 4.092H3.711c.54.678 1.138 1.34 1.798 1.978 2.222 2.155 4.682 4.095 7.062 5.972q.733.575 1.461 1.157c.412.326.828.653 1.233.97 3.278 2.568 6.372 4.993 7.976 8.67.32.814.992.878 1.192.878.206 0 .89-.067 1.189-.898 1.607-3.664 4.697-6.086 7.965-8.65.406-.317.825-.644 1.237-.97q.727-.58 1.458-1.154.834-.659 1.677-1.328h-3.833q-.395.31-.789.624c-.403.32-.818.647-1.22.96-2.828 2.217-5.741 4.499-7.69 7.682-1.95-3.183-4.86-5.465-7.69-7.681-.403-.314-.815-.64-1.221-.96q-.734-.584-1.468-1.164c-1.673-1.319-3.388-2.672-5.011-4.095h8.495c.352 0 .688-.187.865-.492l1.329-2.304.913 4.501q.385 1.92.776 3.842c.086.431.542.732.964.732.409 0 .89-.301.963-.732q.448-2.672.9-5.345l1.218-7.192 1.455 8.904.593 3.633c.07.431.554.732.963.732.463 0 .821-.307.964-.732l1.851-5.544h12.046l.015-.016.314-.314c.032-.032.067-.063.095-.095q.119-.121.232-.24.082-.085.158-.169" data-color="1"/>
        </g>
    </g>
</svg>
