<?xml version="1.0" encoding="UTF-8"?>
<svg data-bbox="0.106 0 52.911 46.899" xmlns="http://www.w3.org/2000/svg" viewBox="0 0 54 47" height="47" width="54" data-type="color">
    <g>
        <path fill="#00ADEF" d="m10.947 28.27 7.968 7.89 15.472-15.324-7.968-7.89zm7.224 10.038-9.393-9.303v-.032a1.015 1.015 0 0 1 0-1.443l16.898-16.733.029-.03a1.04 1.04 0 0 1 1.458 0l9.394 9.333h.03a1.01 1.01 0 0 1 0 1.443L19.658 38.308a1.075 1.075 0 0 1-1.488 0" data-color="1"/>
        <path fill="#00ADEF" d="M3.694 38.25a1.01 1.01 0 0 0 0 1.442 1.035 1.035 0 0 0 1.455 0l7.939-7.86a1.015 1.015 0 0 0 0-1.443 1.04 1.04 0 0 0-1.459 0zm13.084-2.765a1.015 1.015 0 0 0 0-1.443 1.04 1.04 0 0 0-1.459 0l-7.967 7.861a1.015 1.015 0 0 0 0 1.443 1.075 1.075 0 0 0 1.487 0z" data-color="1"/>
        <mask height="14" width="13" y="33" x="0" maskUnits="userSpaceOnUse" style="mask-type:luminance" id="92dcb62e-6cdc-4993-991f-7317b6a938d0" fill="none">
            <path fill="#ffffff" d="M0 33.926h12.52v13.073H0z"/>
        </mask>
        <g mask="url(#92dcb62e-6cdc-4993-991f-7317b6a938d0)">
            <path fill="#00ADEF" d="M1.864 35.026a1.035 1.035 0 0 0-1.455 0 1.01 1.01 0 0 0 0 1.442l10.229 10.133a1.04 1.04 0 0 0 1.458 0 1.015 1.015 0 0 0 0-1.442z" data-color="1"/>
        </g>
        <path fill="#00ADEF" d="M33.893 18.903a1.01 1.01 0 0 0 0 1.443 1.035 1.035 0 0 0 1.455 0l3.347-3.316c.59-.551.868-1.32.868-2.059 0-.765-.277-1.504-.868-2.087L34.45 8.647a3.06 3.06 0 0 0-2.11-.827c-.744 0-1.518.276-2.076.827l-3.347 3.316c-.405.431-.405 1.076 0 1.475a1.035 1.035 0 0 0 1.455 0l3.348-3.316a.83.83 0 0 1 .62-.276q.372 0 .652.276l4.248 4.207a.87.87 0 0 1 .277.642.86.86 0 0 1-.277.616z" data-color="1"/>
        <path fill="#00ADEF" d="M35.098 10.77a1.015 1.015 0 0 0 0 1.442 1.075 1.075 0 0 0 1.488 0l10.571-10.47a1.01 1.01 0 0 0 0-1.443 1.035 1.035 0 0 0-1.455 0z" data-color="1"/>
        <path fill="#00ADEF" d="M22.88 15.006a1.035 1.035 0 0 0-1.456 0 1.01 1.01 0 0 0 0 1.443l3.505 3.468a1.035 1.035 0 0 0 1.455 0 1.01 1.01 0 0 0 0-1.442z" data-color="1"/>
        <path fill="#00ADEF" d="M18.697 19.153a1.033 1.033 0 0 0-1.459 0 1.015 1.015 0 0 0 0 1.443l3.472 3.468a1.04 1.04 0 0 0 1.459 0 1.015 1.015 0 0 0 0-1.442z" data-color="1"/>
        <path fill="#00ADEF" d="M14.477 23.326a1.035 1.035 0 0 0-1.455 0 1.01 1.01 0 0 0 0 1.443l3.504 3.468a1.035 1.035 0 0 0 1.456 0 1.05 1.05 0 0 0 0-1.474z" data-color="1"/>
        <mask height="11" width="9" y="3" x="45" maskUnits="userSpaceOnUse" style="mask-type:luminance" id="d8f218aa-c304-4856-8426-7e0697440c01" fill="none">
            <path fill="#ffffff" d="M45.93 3.219h7.09v9.958h-7.09z"/>
        </mask>
        <g mask="url(#d8f218aa-c304-4856-8426-7e0697440c01)">
            <path fill="#00ADEF" d="M50.537 4.135c.278 1.196.898 2.088 1.397 2.856.587.892 1.083 1.595 1.083 2.519 0 .95-.277 1.903-.93 2.61-.59.612-1.426.982-2.574.982-1.146 0-1.984-.37-2.542-.983-.682-.706-.96-1.66-.96-2.61 0-.923.497-1.626 1.084-2.518.529-.768 1.148-1.689 1.426-2.885a1.03 1.03 0 0 1 1.24-.768c.404.09.714.428.776.797m-.31 3.99c-.218-.336-.466-.706-.714-1.105a9.5 9.5 0 0 1-.712 1.106c-.404.583-.714 1.076-.714 1.384 0 .46.094.92.372 1.196.218.214.528.37 1.054.37.528 0 .868-.156 1.054-.37.28-.275.371-.736.371-1.196 0-.308-.31-.8-.71-1.384" data-color="1"/>
        </g>
    </g>
</svg>
