<svg width="937" height="621" viewBox="0 0 937 621" fill="none" xmlns="http://www.w3.org/2000/svg">
<path d="M236.688 1.64791L2.77094 154.278M236.688 1.64791L3.52792 0.500166L2.77094 154.278M236.688 1.64791L353.268 2.22178M236.688 1.64791L236.31 78.537L353.268 2.22178M2.77094 154.278L119.351 154.852M2.77094 154.278L2.39245 231.167M119.351 154.852L2.39245 231.167M119.351 154.852L235.931 155.426M119.351 154.852L118.973 231.741M2.39245 231.167L2.01396 308.056M2.39245 231.167L118.594 308.63M2.01396 308.056L118.594 308.63M2.01396 308.056L118.216 385.519M118.594 308.63L118.216 385.519M118.594 308.63L235.174 309.204M118.973 231.741L235.174 309.204M118.973 231.741L235.553 232.315M118.973 231.741L235.931 155.426M235.174 309.204L235.553 232.315M235.174 309.204L351.754 309.778M235.174 309.204L118.216 385.519M235.174 309.204L234.796 386.093M235.174 309.204L351.376 386.667M235.553 232.315L352.133 232.889L352.511 156M235.553 232.315L352.511 156M235.553 232.315L351.754 309.778M235.931 155.426L352.89 79.1108M235.931 155.426L352.511 156M352.511 156L352.89 79.1108M352.511 156L469.47 79.6847M351.754 309.778L468.334 310.352M351.754 309.778L468.713 233.463M351.754 309.778L467.956 387.241M468.334 310.352L468.713 233.463M468.334 310.352L467.956 387.241M468.334 310.352L584.914 310.926M468.713 233.463L468.902 195.018M468.713 233.463L410.612 194.731M468.713 233.463L585.293 234.037M468.713 233.463L585.671 157.148M468.713 233.463L584.914 310.926M410.801 156.287L352.322 194.444M410.801 156.287L410.612 194.731M410.801 156.287L468.902 195.018M352.322 194.444L410.612 194.731M352.322 194.444L410.423 233.176L410.612 194.731M410.612 194.731L468.902 195.018M353.268 2.22178L469.47 79.6847M353.268 2.22178L352.89 79.1108M352.89 79.1108L469.47 79.6847M469.47 79.6847L586.428 3.36952L586.05 80.2586M469.47 79.6847L586.05 80.2586M469.47 79.6847L527.57 118.416M469.47 79.6847L469.28 118.129M118.216 385.519L234.796 386.093M118.216 385.519L234.417 462.982M234.796 386.093L234.417 462.982M234.796 386.093L351.376 386.667M234.796 386.093L350.997 463.556M234.417 462.982L233.66 616.761M234.417 462.982L0.5 615.613L233.66 616.761M234.417 462.982L350.997 463.556M234.417 462.982L234.039 539.871M233.66 616.761L234.039 539.871M233.66 616.761L350.24 617.334M350.997 463.556L234.039 539.871M350.997 463.556L467.199 541.019M350.997 463.556L467.577 464.13M350.997 463.556L351.376 386.667M350.997 463.556L351.186 425.112M350.997 463.556L409.476 425.399M234.039 539.871L350.24 617.334M350.24 617.334L350.619 540.445L467.199 541.019M350.24 617.334L467.199 541.019M467.199 541.019L467.577 464.13M467.577 464.13L584.157 464.704M467.577 464.13L584.536 387.815M467.577 464.13L699.98 619.056M467.577 464.13L700.737 465.278M351.376 386.667L351.186 425.112M351.376 386.667L409.476 425.399M409.476 425.399L351.186 425.112M409.476 425.399L467.766 425.686L409.287 463.843L409.476 425.399ZM409.476 425.399L409.666 386.954L467.956 387.241M409.476 425.399L467.956 387.241M467.956 387.241L584.914 310.926M467.956 387.241L584.536 387.815M584.914 310.926L584.536 387.815M584.914 310.926L701.873 234.611M584.914 310.926L701.494 311.5M584.536 387.815L584.157 464.704M584.536 387.815L701.494 311.5M584.536 387.815L701.116 388.389M584.157 464.704L700.737 465.278M584.157 464.704L701.116 388.389M700.737 465.278L701.116 388.389M700.737 465.278L699.98 619.056M700.737 465.278L933.141 620.204L699.98 619.056M700.737 465.278L817.696 388.963M700.737 465.278L817.317 465.852M701.116 388.389L701.494 311.5M701.494 311.5L817.696 388.963M701.494 311.5L818.074 312.074M701.494 311.5L701.873 234.611M701.494 311.5L818.453 235.184M817.696 388.963L818.074 312.074M817.696 388.963L817.317 465.852M817.696 388.963L934.276 389.537M818.074 312.074L934.276 389.537M818.074 312.074L934.654 312.647M817.317 465.852L934.276 389.537M934.276 389.537L934.654 312.647M934.654 312.647L935.033 235.758M934.654 312.647L818.453 235.184M586.05 80.2586L585.861 118.703L527.76 79.9716L586.05 80.2586ZM586.05 80.2586L702.63 80.8325M586.05 80.2586L702.251 157.722M586.05 80.2586L703.008 3.94339L702.63 80.8325M527.57 118.416L469.28 118.129M527.57 118.416L527.381 156.861M527.57 118.416L585.671 157.148M469.28 118.129L527.381 156.861M527.381 156.861L585.671 157.148M585.671 157.148L585.293 234.037M702.63 80.8325L702.251 157.722M702.251 157.722L585.293 234.037M702.251 157.722L701.873 234.611M702.251 157.722L818.453 235.184M702.251 157.722L935.411 158.869M702.251 157.722L936.168 5.09113L935.411 158.869M585.293 234.037L701.873 234.611M701.873 234.611L818.453 235.184M818.453 235.184L935.033 235.758M935.033 235.758L818.831 158.295L935.411 158.869M935.033 235.758L935.411 158.869M1.25698 461.835L117.837 462.409L1.63547 384.946L1.25698 461.835Z" stroke="white" stroke-linejoin="round"/>
</svg>
